if (_typeface_js && _typeface_js.loadFace) _typeface_js.loadFace({"glyphs":{"S":{"x_min":32,"x_max":652,"ha":690,"o":"m 581 932 q 565 970 581 954 q 522 998 549 987 q 457 1015 494 1009 q 376 1021 419 1021 q 276 1008 335 1021 q 162 963 217 996 q 70 875 108 930 q 32 733 32 819 q 66 600 32 650 q 154 520 101 551 q 267 468 206 488 q 379 422 327 447 q 467 359 432 397 q 502 255 502 320 q 447 138 502 184 q 306 93 393 93 q 240 99 267 93 q 194 115 214 106 q 155 132 174 124 q 111 140 136 140 q 77 129 97 140 q 57 88 57 119 q 80 40 57 60 q 139 6 103 20 q 217 -14 175 -7 q 300 -21 260 -21 q 438 0 374 -21 q 549 56 502 19 q 624 149 597 94 q 652 274 652 204 q 631 383 652 338 q 577 461 610 429 q 502 513 545 493 q 415 552 459 534 q 329 586 372 569 q 254 624 287 602 q 201 675 221 645 q 181 750 181 705 q 194 818 181 788 q 233 866 208 847 q 292 896 258 886 q 362 907 325 907 q 428 902 408 907 q 459 894 447 898 q 483 886 471 890 q 528 882 496 882 q 565 897 550 882 q 581 932 581 912 "},"¦":{"x_min":44,"x_max":251,"ha":300,"o":"m 251 159 q 246 241 251 202 q 231 311 242 280 q 200 359 220 341 q 146 377 180 377 q 96 359 116 377 q 65 311 77 341 q 48 241 53 280 q 44 159 44 202 q 50 77 44 116 q 70 8 57 38 q 102 -38 82 -20 q 146 -57 121 -57 q 198 -38 178 -57 q 230 8 219 -20 q 246 77 242 38 q 251 159 251 116 m 251 782 q 246 864 251 825 q 231 934 242 903 q 200 982 220 964 q 146 1001 180 1001 q 96 982 116 1001 q 65 934 77 964 q 48 864 53 903 q 44 782 44 825 q 50 701 44 741 q 70 632 57 662 q 102 584 82 602 q 146 566 121 566 q 198 584 178 566 q 230 632 219 602 q 246 701 242 662 q 251 782 251 741 "},"/":{"x_min":9.71875,"x_max":404.9375,"ha":408,"o":"m 388 868 q 404 933 404 908 q 397 968 405 958 q 370 948 386 968 q 337 887 354 929 l 15 91 q 11 79 13 88 q 9 59 9 70 q 11 40 9 50 q 19 25 13 30 q 45 43 30 25 q 70 87 59 62 l 388 868 "},"y":{"x_min":18.0625,"x_max":615.328125,"ha":638,"o":"m 58 658 q 26 640 34 658 q 18 603 18 623 q 35 537 18 578 q 72 448 52 496 l 213 108 q 238 32 231 66 q 245 -33 245 -1 q 238 -86 245 -62 q 219 -129 230 -110 q 196 -162 208 -148 q 176 -184 184 -176 q 127 -219 154 -206 q 77 -241 101 -231 q 38 -262 54 -251 q 22 -291 22 -273 q 42 -324 22 -309 q 98 -340 62 -340 q 190 -323 151 -340 q 260 -272 229 -306 q 317 -185 291 -238 q 370 -60 343 -133 l 580 486 q 615 607 615 576 q 606 635 615 622 q 576 649 597 649 q 540 637 555 649 q 513 606 525 625 q 493 565 501 587 q 477 524 484 543 l 436 405 q 392 315 416 351 q 327 279 368 279 q 263 317 290 279 q 219 401 237 354 l 170 522 q 150 572 161 547 q 125 616 138 597 q 95 646 112 635 q 58 658 79 658 "},"Á":{"x_min":-2.78125,"x_max":891.734375,"ha":889,"o":"m 613 726 q 572 824 590 779 q 536 901 555 868 q 495 951 518 933 q 441 970 473 970 q 392 952 412 970 q 354 905 372 935 q 320 834 336 875 q 283 747 304 793 l 115 362 q 84 296 104 338 q 45 208 65 254 q 11 119 26 162 q -2 53 -2 77 q 11 12 -2 23 q 54 1 25 1 q 94 21 76 1 q 129 71 112 42 q 160 127 145 99 q 188 170 175 155 q 229 202 209 191 q 271 219 248 214 q 324 226 294 225 q 395 228 354 228 l 490 228 q 554 226 526 228 q 604 219 581 225 q 646 202 627 214 q 684 173 665 191 q 722 120 707 150 q 754 63 738 90 q 789 18 769 37 q 843 0 809 0 q 882 18 873 0 q 891 47 891 37 l 891 48 q 878 107 891 69 q 847 189 865 145 q 811 275 830 233 q 779 347 791 318 l 613 726 m 288 440 q 300 500 288 455 q 331 592 311 544 q 377 677 351 640 q 436 714 404 714 q 478 696 458 714 q 515 652 498 679 q 545 594 531 626 q 567 532 558 562 q 581 480 576 503 q 586 447 586 457 q 553 357 586 390 q 438 324 520 324 q 328 351 368 324 q 288 440 288 378 m 508 1243 q 463 1292 508 1292 q 422 1267 440 1292 q 394 1211 405 1243 q 377 1146 383 1179 q 370 1097 370 1114 q 379 1047 370 1061 q 411 1033 387 1033 q 441 1059 423 1033 q 472 1119 458 1085 q 497 1189 487 1154 q 508 1243 508 1225 "},"g":{"x_min":22,"x_max":735,"ha":775,"o":"m 537 635 q 487 642 507 635 q 447 659 468 650 q 402 676 427 668 q 334 684 376 684 q 188 649 248 684 q 92 563 129 614 q 38 454 55 513 q 22 346 22 395 q 32 254 22 296 q 57 181 42 213 q 88 127 72 149 q 115 93 104 104 q 146 65 127 81 q 191 35 165 49 q 252 11 218 21 q 329 2 286 2 q 394 6 369 2 q 435 16 418 10 q 465 25 451 21 q 499 30 479 30 q 567 2 543 30 q 591 -61 591 -24 q 570 -138 591 -104 q 518 -196 550 -173 q 445 -231 486 -218 q 361 -244 404 -244 q 283 -237 314 -244 q 229 -221 252 -230 q 190 -207 207 -213 q 152 -201 172 -201 q 108 -209 121 -201 q 95 -245 95 -217 q 118 -289 95 -270 q 179 -321 142 -308 q 265 -340 217 -334 q 361 -347 313 -347 q 528 -317 457 -347 q 645 -234 599 -288 q 712 -103 690 -180 q 735 65 735 -27 l 735 531 q 732 567 735 546 q 722 606 730 588 q 698 638 714 625 q 654 652 682 652 q 618 649 629 652 q 600 643 608 646 q 579 637 591 640 q 537 635 566 635 m 148 344 q 168 448 148 403 q 225 523 189 493 q 307 569 260 553 q 407 585 354 585 q 493 562 454 585 q 559 503 532 539 q 601 426 586 468 q 616 343 616 383 q 599 257 616 301 q 553 178 582 214 q 483 121 524 143 q 395 99 443 99 q 295 119 341 99 q 216 173 249 139 q 166 251 184 207 q 148 344 148 296 "},"–":{"x_min":90.28125,"x_max":770.890625,"ha":857,"o":"m 186 442 q 119 433 148 442 q 90 401 90 425 q 120 372 90 377 q 186 368 150 368 l 672 368 q 739 374 708 368 q 770 401 770 381 q 761 421 770 414 q 738 434 752 429 q 707 440 725 439 q 672 442 690 442 l 186 442 "},"ë":{"x_min":28,"x_max":679,"ha":678,"o":"m 679 394 q 656 506 679 455 q 594 593 633 557 q 504 649 555 629 q 398 670 454 670 q 247 647 315 670 q 130 579 179 624 q 54 468 80 533 q 28 318 28 403 q 57 193 28 251 q 135 92 86 135 q 246 24 184 49 q 375 -1 309 -1 q 468 8 429 -1 q 529 29 506 17 q 564 55 553 42 q 575 78 575 69 q 568 107 575 97 q 542 117 561 117 q 502 110 521 117 q 463 95 484 103 q 419 80 442 87 q 368 74 396 74 q 309 83 341 74 q 252 108 278 92 q 208 151 225 125 q 191 209 191 176 q 206 264 191 243 q 247 298 222 286 q 301 316 272 311 q 357 321 331 321 q 428 318 397 321 q 482 312 458 315 q 525 307 505 309 q 563 304 544 304 q 649 329 619 304 q 679 394 679 354 m 188 475 q 201 528 188 503 q 235 573 214 554 q 286 605 257 593 q 347 617 315 617 q 413 607 380 617 q 471 578 445 597 q 513 533 496 560 q 530 472 530 507 q 516 422 530 443 q 480 388 503 401 q 427 369 458 375 q 363 363 397 363 q 307 367 337 363 q 250 385 276 372 q 206 419 224 397 q 188 475 188 442 m 523 861 q 482 845 495 861 q 468 810 468 830 q 482 772 468 789 q 523 755 496 755 q 566 772 550 755 q 582 810 582 789 q 568 845 582 830 q 523 861 554 861 m 219 861 q 178 845 191 861 q 165 810 165 830 q 179 772 165 789 q 219 755 193 755 q 262 772 247 755 q 277 810 277 789 q 263 845 277 830 q 219 861 250 861 "},"Î":{"x_min":5.5625,"x_max":302.796875,"ha":335,"o":"m 231 872 q 229 911 231 890 q 221 950 228 933 q 202 979 215 968 q 167 991 189 991 q 131 979 144 991 q 112 950 118 968 q 104 911 105 932 q 103 872 103 890 l 103 138 q 114 38 103 77 q 168 0 125 0 q 203 11 190 0 q 221 40 215 22 q 229 84 228 59 q 231 138 231 109 l 231 872 m 293 1077 q 302 1089 302 1077 q 288 1126 302 1101 q 250 1174 273 1150 q 200 1216 227 1198 q 147 1235 173 1235 q 94 1216 119 1235 q 49 1173 69 1197 q 17 1124 29 1149 q 5 1086 5 1099 q 11 1077 5 1077 q 49 1090 31 1077 q 81 1120 66 1104 q 113 1150 97 1136 q 147 1164 129 1164 q 181 1150 163 1164 q 216 1120 198 1136 q 253 1090 234 1104 q 293 1077 272 1077 "},"e":{"x_min":28,"x_max":679,"ha":678,"o":"m 679 394 q 656 506 679 455 q 594 593 633 557 q 504 649 555 629 q 398 670 454 670 q 247 647 315 670 q 130 579 179 624 q 54 468 80 533 q 28 318 28 403 q 57 193 28 251 q 135 92 86 135 q 246 24 184 49 q 375 -1 309 -1 q 468 8 429 -1 q 529 29 506 17 q 564 55 553 42 q 575 78 575 69 q 568 107 575 97 q 542 117 561 117 q 502 110 521 117 q 463 95 484 103 q 419 80 442 87 q 368 74 396 74 q 309 83 341 74 q 252 108 278 92 q 208 151 225 125 q 191 209 191 176 q 206 264 191 243 q 247 298 222 286 q 301 316 272 311 q 357 321 331 321 q 428 318 397 321 q 482 312 458 315 q 525 307 505 309 q 563 304 544 304 q 649 329 619 304 q 679 394 679 354 m 188 475 q 201 528 188 503 q 235 573 214 554 q 286 605 257 593 q 347 617 315 617 q 413 607 380 617 q 471 578 445 597 q 513 533 496 560 q 530 472 530 507 q 516 422 530 443 q 480 388 503 401 q 427 369 458 375 q 363 363 397 363 q 307 367 337 363 q 250 385 276 372 q 206 419 224 397 q 188 475 188 442 "},"Ã":{"x_min":-2.78125,"x_max":891.734375,"ha":889,"o":"m 613 726 q 572 824 590 779 q 536 901 555 868 q 495 951 518 933 q 441 970 473 970 q 392 952 412 970 q 354 905 372 935 q 320 834 336 875 q 283 747 304 793 l 115 362 q 84 296 104 338 q 45 208 65 254 q 11 119 26 162 q -2 53 -2 77 q 11 12 -2 23 q 54 1 25 1 q 94 21 76 1 q 129 71 112 42 q 160 127 145 99 q 188 170 175 155 q 229 202 209 191 q 271 219 248 214 q 324 226 294 225 q 395 228 354 228 l 490 228 q 554 226 526 228 q 604 219 581 225 q 646 202 627 214 q 684 173 665 191 q 722 120 707 150 q 754 63 738 90 q 789 18 769 37 q 843 0 809 0 q 882 18 873 0 q 891 47 891 37 l 891 48 q 878 107 891 69 q 847 189 865 145 q 811 275 830 233 q 779 347 791 318 l 613 726 m 288 440 q 300 500 288 455 q 331 592 311 544 q 377 677 351 640 q 436 714 404 714 q 478 696 458 714 q 515 652 498 679 q 545 594 531 626 q 567 532 558 562 q 581 480 576 503 q 586 447 586 457 q 553 357 586 390 q 438 324 520 324 q 328 351 368 324 q 288 440 288 378 m 537 1108 q 483 1112 508 1104 q 434 1132 458 1120 q 381 1151 409 1143 q 319 1154 354 1159 q 266 1127 279 1147 q 256 1087 254 1107 q 268 1066 259 1070 q 290 1065 277 1062 q 315 1071 302 1068 q 341 1077 327 1075 q 404 1075 379 1083 q 451 1055 429 1066 q 497 1036 473 1044 q 556 1033 520 1027 q 600 1054 580 1036 q 615 1101 619 1073 q 606 1120 612 1116 q 588 1123 600 1125 q 564 1116 577 1120 q 537 1108 551 1111 "},"J":{"x_min":29.25,"x_max":540,"ha":596,"o":"m 540 863 q 537 899 540 879 q 527 936 534 919 q 508 966 520 954 q 479 979 497 979 q 442 965 455 979 q 423 934 429 952 q 415 897 416 916 q 414 863 414 877 l 414 355 q 410 296 414 337 q 391 212 407 254 q 344 137 376 169 q 254 106 312 106 q 188 115 211 106 q 151 134 166 124 q 120 153 136 144 q 73 163 104 163 l 69 163 q 41 149 54 163 q 29 111 29 136 q 50 59 29 83 q 103 18 70 36 q 174 -8 136 1 q 247 -18 212 -18 q 368 2 313 -18 q 460 61 422 23 q 519 154 498 100 q 540 277 540 209 l 540 863 "},"»":{"x_min":39.203125,"x_max":615,"ha":643,"o":"m 123 558 q 81 582 101 572 q 50 592 61 592 q 39 580 39 592 q 54 541 39 555 q 89 514 69 528 l 151 473 q 197 439 178 457 q 217 387 217 422 q 195 334 217 354 q 150 298 173 315 l 91 259 q 57 235 73 247 q 40 199 40 223 q 53 186 40 186 q 83 194 64 186 q 123 215 103 202 l 229 279 q 267 300 246 288 q 305 323 287 311 q 336 352 323 336 q 349 387 349 368 q 338 423 349 408 q 312 450 328 437 q 276 473 296 462 q 237 494 257 483 l 123 558 m 390 559 q 348 583 368 573 q 317 593 328 593 q 306 582 306 593 q 321 543 306 557 q 356 515 336 529 l 418 475 q 463 441 444 458 q 483 389 483 423 q 461 336 483 355 q 416 300 440 317 l 359 261 q 324 237 340 249 q 307 201 307 225 q 320 188 307 188 q 350 196 331 188 q 390 217 370 204 l 496 280 q 533 301 512 290 q 572 325 554 312 q 602 353 590 337 q 615 389 615 369 q 604 424 615 409 q 578 451 594 439 q 542 474 562 464 q 504 495 523 484 l 390 559 "},"©":{"x_min":86,"x_max":1098,"ha":1215,"o":"m 1098 512 q 1075 660 1098 592 q 1013 783 1052 728 q 923 878 974 837 q 815 946 872 919 q 699 987 758 973 q 586 1001 640 1001 q 423 969 511 1001 q 261 876 336 938 q 136 719 186 813 q 86 501 86 626 q 123 313 86 404 q 227 151 161 222 q 386 38 294 80 q 590 -4 479 -4 q 783 32 692 -4 q 945 137 875 69 q 1056 300 1015 205 q 1098 512 1098 395 m 589 972 q 782 927 697 972 q 924 812 866 883 q 1012 658 982 742 q 1042 491 1042 573 q 1007 322 1042 406 q 912 171 972 238 q 768 63 851 105 q 590 21 686 21 q 420 62 500 21 q 279 168 340 102 q 184 317 219 234 q 150 487 150 401 q 181 672 150 584 q 272 827 213 760 q 411 933 330 894 q 589 972 491 972 m 593 766 q 474 740 520 766 q 403 675 429 714 q 369 592 378 636 q 360 512 360 548 q 373 407 360 457 q 417 318 387 357 q 492 258 446 280 q 600 236 538 236 q 657 242 629 236 q 707 258 685 248 q 742 279 729 268 q 756 299 756 290 q 752 310 756 304 q 740 317 747 317 q 722 310 732 317 q 698 295 713 303 q 664 280 683 287 q 615 274 645 274 q 539 292 574 274 q 479 342 504 311 q 440 414 454 373 q 427 497 427 454 q 439 584 427 543 q 474 658 452 626 q 529 709 497 690 q 600 728 561 728 q 652 721 629 728 q 693 707 675 715 q 725 692 711 698 q 747 686 739 686 q 760 690 754 686 q 765 705 765 694 q 718 745 765 725 q 593 766 670 766 "},"ò":{"x_min":11,"x_max":722,"ha":735,"o":"m 722 330 q 692 478 722 413 q 612 587 662 543 q 499 655 563 632 q 365 678 434 678 q 233 654 297 678 q 120 586 169 630 q 40 477 70 541 q 11 330 11 412 q 39 187 11 251 q 116 78 67 123 q 229 10 165 34 q 365 -13 294 -13 q 513 15 447 -13 q 625 91 578 44 q 697 201 672 139 q 722 330 722 263 m 136 330 q 153 425 136 380 q 201 502 170 469 q 274 554 231 535 q 365 574 316 574 q 454 556 412 574 q 527 506 495 539 q 577 429 558 473 q 596 330 596 384 q 576 234 596 277 q 525 160 557 191 q 451 111 493 128 q 365 94 409 94 q 270 114 312 94 q 197 169 227 135 q 151 244 167 202 q 136 330 136 287 m 290 959 q 300 905 290 941 q 325 835 311 870 q 357 775 340 801 q 387 749 375 749 q 419 763 411 749 q 427 813 427 777 q 421 862 427 830 q 404 927 415 895 q 375 983 393 959 q 334 1008 356 1008 q 290 959 290 1008 "},"^":{"x_min":113.890625,"x_max":662.546875,"ha":756,"o":"m 618 686 l 531 838 q 502 892 516 865 q 472 940 488 919 q 434 976 455 962 q 387 990 413 990 q 338 973 359 990 q 300 931 318 956 q 268 878 283 906 q 240 827 254 849 l 154 685 q 125 631 136 656 q 113 590 113 605 q 133 572 113 572 q 181 594 165 572 q 213 641 197 617 l 266 722 q 289 754 277 738 q 315 783 301 770 q 346 803 329 795 q 387 811 363 811 q 427 804 409 811 q 457 784 444 797 q 481 756 470 772 q 504 723 493 740 l 558 638 q 595 591 576 611 q 648 571 613 571 q 662 586 662 571 q 649 628 662 601 q 618 686 636 655 "},"\f":{"x_min":133.34375,"x_max":430.59375,"ha":558,"o":"m 143 1003 q 133 990 133 1003 q 147 953 133 978 q 185 905 162 929 q 235 863 208 881 q 288 845 262 845 q 341 863 315 845 q 386 906 366 882 q 418 955 406 930 q 430 993 430 980 q 425 1003 430 1003 q 386 989 404 1003 q 354 959 369 975 q 322 929 338 943 q 288 916 306 916 q 254 929 272 916 q 219 959 237 943 q 182 989 201 975 q 143 1003 163 1003 "},"«":{"x_min":38,"x_max":613.796875,"ha":643,"o":"m 529 558 l 415 494 q 376 473 395 483 q 340 450 356 462 q 314 423 324 437 q 304 387 304 408 q 316 352 304 368 q 347 323 329 336 q 385 300 365 311 q 423 279 406 288 l 529 215 q 569 194 549 202 q 599 186 588 186 q 612 199 612 186 q 595 235 612 223 q 561 259 579 247 l 502 298 q 457 334 479 315 q 436 387 436 354 q 455 439 436 422 q 501 473 474 457 l 563 514 q 598 541 583 528 q 613 580 613 555 q 602 592 613 592 q 571 582 591 592 q 529 558 551 572 m 262 559 l 148 495 q 110 474 129 484 q 74 451 90 464 q 48 424 58 439 q 38 389 38 409 q 50 353 38 369 q 80 325 62 337 q 119 301 98 312 q 157 280 140 290 l 262 217 q 302 196 282 204 q 332 188 321 188 q 345 201 345 188 q 328 237 345 225 q 294 261 312 249 l 236 300 q 191 336 212 317 q 170 389 170 355 q 189 441 170 423 q 234 475 208 458 l 297 515 q 331 543 316 529 q 347 582 347 557 q 335 593 347 593 q 304 583 324 593 q 262 559 284 573 "},"D":{"x_min":51,"x_max":932,"ha":947,"o":"m 804 853 q 706 927 758 899 q 599 972 655 956 q 485 995 544 989 q 369 1002 427 1002 l 186 1002 q 115 990 141 1002 q 73 961 88 979 q 55 917 59 942 q 51 863 51 892 l 51 161 q 55 93 51 123 q 73 43 59 63 q 110 11 87 22 q 175 0 134 0 l 343 0 q 469 6 408 0 q 588 30 530 12 q 700 81 645 48 q 807 166 754 113 q 852 220 829 189 q 892 294 875 252 q 920 388 909 336 q 932 505 932 440 q 900 705 932 623 q 804 853 869 787 m 179 674 q 185 765 179 725 q 211 833 192 806 q 265 874 230 860 q 355 888 299 888 q 529 866 448 888 q 669 799 610 844 q 762 680 728 753 q 797 503 797 607 q 760 331 797 404 q 663 208 724 257 q 522 136 602 160 q 355 113 442 113 q 267 125 302 113 q 213 162 233 138 q 186 222 194 186 q 179 307 179 258 l 179 674 "},"∙":{"x_min":80.5625,"x_max":202.796875,"ha":272,"o":"m 202 448 q 183 494 202 475 q 140 513 163 513 q 97 493 113 513 q 80 448 80 473 q 98 407 80 425 q 140 389 116 389 q 183 407 163 389 q 202 448 202 425 "},"ÿ":{"x_min":18.0625,"x_max":615.328125,"ha":638,"o":"m 58 658 q 26 641 34 658 q 18 604 18 623 q 35 538 18 579 q 72 448 52 497 l 213 108 q 238 32 231 66 q 245 -33 245 -1 q 238 -86 245 -62 q 219 -129 230 -110 q 196 -162 208 -148 q 176 -184 184 -176 q 127 -219 154 -206 q 77 -241 101 -231 q 38 -262 54 -251 q 22 -291 22 -273 q 42 -324 22 -309 q 98 -340 62 -340 q 190 -323 151 -340 q 260 -272 229 -306 q 317 -185 291 -238 q 370 -60 343 -133 l 580 486 q 615 607 615 576 q 606 635 615 622 q 576 648 597 648 q 540 637 555 648 q 513 606 525 625 q 493 565 501 587 q 477 523 484 543 l 436 405 q 392 315 416 351 q 327 279 368 279 q 263 317 290 279 q 219 401 237 354 l 170 522 q 150 572 161 547 q 125 616 138 597 q 95 646 112 635 q 58 658 79 658 m 468 861 q 427 845 440 861 q 413 810 413 830 q 427 772 413 789 q 468 755 441 755 q 511 772 495 755 q 527 810 527 789 q 513 845 527 830 q 468 861 500 861 m 163 861 q 122 845 136 861 q 109 810 109 830 q 123 772 109 789 q 163 755 137 755 q 206 772 191 755 q 222 810 222 789 q 208 845 222 830 q 163 861 194 861 "},"í":{"x_min":90,"x_max":227.515625,"ha":303,"o":"m 215 540 q 212 578 215 556 q 203 619 210 599 q 185 651 196 638 q 153 665 173 665 q 124 651 135 665 q 107 619 113 638 q 99 578 101 599 q 97 540 97 556 l 97 112 q 99 79 97 98 q 107 44 101 60 q 124 15 113 27 q 153 4 135 4 q 183 15 171 4 q 202 42 195 26 q 212 78 209 59 q 215 112 215 97 l 215 540 m 227 948 q 183 997 227 997 q 142 972 159 997 q 113 916 124 948 q 96 851 102 884 q 90 802 90 819 q 98 752 90 766 q 130 738 106 738 q 160 764 142 738 q 192 824 177 790 q 217 894 206 859 q 227 948 227 930 "},"ˆ":{"x_min":133.34375,"x_max":430.59375,"ha":558,"o":"m 420 845 q 430 857 430 845 q 416 894 430 869 q 378 942 401 918 q 328 984 355 966 q 275 1003 301 1003 q 222 984 247 1003 q 177 941 197 965 q 145 892 156 917 q 133 854 133 867 q 138 845 133 845 q 177 858 159 845 q 209 888 194 872 q 240 918 225 904 q 275 932 256 932 q 309 918 291 932 q 344 888 326 904 q 381 858 362 872 q 420 845 400 845 "},"w":{"x_min":-9.71875,"x_max":1013.96875,"ha":1004,"o":"m 512 664 q 450 644 473 664 q 412 594 426 625 q 390 525 398 563 q 372 450 381 487 q 358 397 366 426 q 337 343 350 369 q 306 299 325 316 q 262 281 288 281 q 225 298 241 281 q 194 342 208 315 q 169 403 180 369 q 145 472 158 437 q 127 532 136 501 q 106 589 118 563 q 77 632 94 615 q 34 648 59 648 q -9 604 -9 648 q 5 529 -9 576 q 41 419 20 482 l 105 225 q 134 135 120 176 q 164 64 148 94 q 201 17 180 34 q 251 0 222 0 q 309 18 287 0 q 345 64 331 36 q 367 128 358 93 q 384 200 376 164 q 428 329 404 279 q 502 379 452 379 q 546 362 527 379 q 579 318 565 344 q 604 264 594 293 q 622 211 615 234 q 642 141 632 178 q 668 74 652 105 q 705 23 683 43 q 763 3 727 3 q 812 19 793 3 q 846 66 832 36 q 873 137 861 96 q 902 226 886 177 l 965 416 q 998 519 983 470 q 1013 598 1013 568 q 982 639 1013 639 q 933 617 951 639 q 904 566 915 595 q 888 506 894 537 q 875 455 882 475 q 859 409 868 439 q 838 351 851 380 q 807 301 826 322 q 759 280 787 280 q 718 300 736 280 q 686 347 700 319 q 664 404 673 375 q 650 452 655 433 q 630 523 640 486 q 606 591 620 559 q 569 643 591 622 q 512 664 547 664 "},"$":{"x_min":74,"x_max":737,"ha":747,"o":"m 502 981 q 463 1005 478 991 q 437 1030 448 1019 q 416 1049 425 1041 q 392 1058 406 1058 q 372 1047 382 1058 q 348 1021 362 1037 q 318 990 335 1006 q 280 965 302 974 q 196 922 234 944 q 131 872 159 901 q 89 805 104 844 q 74 709 74 766 q 96 610 74 650 q 153 544 119 571 q 222 501 186 518 q 284 468 258 483 q 322 438 306 456 q 352 405 338 421 q 378 377 366 389 q 406 366 391 366 q 431 368 424 366 q 444 372 438 370 q 457 376 449 374 q 484 378 464 378 q 538 366 516 378 q 573 337 560 355 q 592 296 586 319 q 598 248 598 272 q 587 204 598 223 q 560 172 577 184 q 523 152 543 159 q 485 146 503 146 q 447 150 460 146 q 427 162 435 155 q 413 173 420 168 q 392 178 406 178 q 368 170 377 178 q 351 153 360 162 q 326 136 342 144 q 278 129 310 129 q 238 133 253 129 q 211 141 222 137 q 190 149 199 145 q 168 154 181 154 q 122 140 141 154 q 104 104 104 127 q 122 66 104 83 q 164 36 139 49 q 216 14 189 23 q 263 1 243 5 q 315 -16 297 -5 q 342 -38 332 -27 q 361 -56 352 -48 q 392 -64 371 -64 q 417 -54 406 -64 q 441 -33 428 -45 q 472 -7 454 -20 q 514 16 489 6 q 685 126 634 59 q 737 267 737 194 q 722 360 737 321 q 685 426 707 399 q 635 471 662 453 q 583 500 608 489 q 538 517 558 510 q 512 528 519 524 q 479 559 493 541 q 453 596 465 578 q 428 627 440 614 q 397 639 415 639 q 366 631 387 639 q 325 623 344 623 q 286 627 306 623 q 249 643 266 631 q 222 680 232 656 q 212 742 212 703 q 221 783 212 767 q 244 810 230 799 q 276 824 259 820 q 310 829 293 829 q 342 823 330 829 q 364 810 355 817 q 382 798 374 804 q 403 792 391 792 q 427 802 416 792 q 452 824 439 812 q 478 847 464 837 q 510 856 492 856 q 540 853 520 856 q 575 849 560 849 q 620 860 603 849 q 637 903 637 872 q 625 934 637 923 q 593 952 613 945 q 550 965 574 959 q 502 981 525 970 "},"\\":{"x_min":47.859375,"x_max":443.09375,"ha":488,"o":"m 65 868 l 381 87 q 408 43 393 62 q 434 25 423 25 q 441 40 440 30 q 443 59 443 50 q 441 79 443 70 q 437 91 438 88 l 116 887 q 82 948 98 929 q 55 968 66 968 q 47 933 47 958 q 65 868 48 908 "},"Ì":{"x_min":87.484375,"x_max":231,"ha":335,"o":"m 231 872 q 229 911 231 890 q 221 950 228 933 q 202 979 215 968 q 167 991 189 991 q 131 979 144 991 q 112 950 118 968 q 104 911 105 932 q 103 872 103 890 l 103 138 q 114 38 103 77 q 168 0 125 0 q 203 11 190 0 q 221 40 215 22 q 229 84 228 59 q 231 138 231 109 l 231 872 m 87 1273 q 97 1219 87 1255 q 122 1149 108 1184 q 154 1089 137 1115 q 184 1063 172 1063 q 216 1077 208 1063 q 225 1127 225 1091 q 218 1176 225 1144 q 201 1241 212 1209 q 172 1297 190 1273 q 131 1322 154 1322 q 87 1273 87 1322 "},"Ç":{"x_min":36,"x_max":853.21875,"ha":861,"o":"m 404 -204 q 443 -187 424 -204 q 478 -143 462 -170 q 501 -83 493 -116 q 504 -17 508 -50 q 528 -19 515 -18 q 553 -20 540 -20 q 687 -6 630 -20 q 780 27 743 7 q 835 69 817 48 q 853 105 853 89 q 842 147 853 130 q 799 165 831 165 q 746 153 769 165 q 697 128 724 141 q 635 102 671 114 q 549 91 600 91 q 393 127 462 91 q 275 221 324 163 q 200 353 226 280 q 174 502 174 427 q 205 671 174 595 q 291 799 237 747 q 412 881 344 852 q 553 911 480 911 q 626 902 596 911 q 681 884 657 894 q 726 865 705 873 q 768 857 746 857 q 824 909 824 857 q 803 948 824 927 q 748 984 783 968 q 662 1010 712 1000 q 551 1021 611 1021 q 346 985 440 1021 q 183 882 253 950 q 75 714 114 814 q 36 486 36 614 q 56 343 36 418 q 120 200 76 268 q 233 77 164 132 q 401 -1 303 23 q 410 -62 414 -37 q 396 -105 405 -87 q 378 -136 387 -123 q 368 -160 368 -149 q 377 -192 368 -180 q 404 -204 386 -204 "},"’":{"x_min":123.625,"x_max":261.125,"ha":329,"o":"m 261 948 q 216 997 261 997 q 175 972 193 997 q 147 916 158 948 q 129 852 136 884 q 123 802 123 819 q 131 752 123 766 q 163 739 140 739 q 193 764 176 739 q 225 825 211 790 q 250 895 240 859 q 261 948 261 930 "},"-":{"x_min":90.28125,"x_max":726.453125,"ha":788,"o":"m 186 482 q 119 468 148 482 q 90 432 90 455 q 120 398 90 408 q 186 389 150 389 l 627 389 q 695 400 663 389 q 726 432 726 412 q 695 469 726 457 q 627 482 663 482 l 186 482 "},"Q":{"x_min":14,"x_max":1052,"ha":1060,"o":"m 1052 499 q 1012 703 1052 610 q 901 865 972 796 q 735 970 831 933 q 526 1008 639 1008 q 315 966 410 1008 q 153 853 221 924 q 50 690 86 783 q 14 495 14 597 q 49 306 14 397 q 153 145 84 215 q 321 34 221 76 q 554 -7 422 -7 q 623 -2 592 -7 q 684 3 654 3 q 720 0 703 3 q 757 -13 738 -3 q 790 -35 777 -23 q 816 -56 803 -47 q 842 -72 828 -66 q 880 -79 856 -79 q 911 -65 903 -79 q 919 -27 919 -51 q 917 0 919 -17 q 915 34 916 16 q 913 63 914 51 q 912 77 912 76 q 934 150 912 115 q 982 231 956 186 q 1029 340 1007 277 q 1052 499 1052 404 m 154 494 q 183 665 154 590 q 265 791 213 740 q 384 869 316 842 q 529 897 452 897 q 689 865 618 897 q 810 781 760 834 q 886 659 860 728 q 913 515 913 590 q 906 424 913 469 q 883 342 899 379 q 844 283 868 306 q 783 261 819 261 q 730 270 747 261 q 701 290 714 279 q 675 310 689 301 q 630 319 661 319 q 601 306 608 319 q 594 276 594 292 q 598 241 594 258 q 601 218 601 225 q 598 175 601 195 q 583 139 594 155 q 550 114 572 123 q 494 106 529 106 q 391 128 450 106 q 280 199 333 151 q 190 320 227 247 q 154 494 154 393 "},"M":{"x_min":56,"x_max":1124,"ha":1176,"o":"m 448 544 l 362 786 q 325 881 341 844 q 286 940 308 918 q 239 968 266 959 q 171 978 212 978 q 107 962 130 978 q 73 924 85 946 q 58 879 61 902 q 56 841 56 855 l 56 138 q 58 94 56 117 q 67 51 60 70 q 85 20 73 33 q 116 8 97 8 q 158 37 141 8 q 175 98 175 66 l 175 421 q 189 605 175 540 q 237 670 204 670 q 279 651 259 670 q 316 600 298 631 q 348 529 333 569 q 377 451 363 489 l 444 266 q 475 173 461 220 q 507 89 490 127 q 544 29 523 52 q 593 6 565 6 q 637 27 618 6 q 671 83 655 48 q 703 164 687 119 q 736 260 718 210 l 800 438 q 835 530 818 487 q 869 604 853 573 q 903 653 886 635 q 939 671 921 671 q 990 615 975 671 q 1006 430 1006 559 l 1006 114 q 1008 86 1006 103 q 1016 51 1010 69 q 1035 20 1022 33 q 1067 8 1047 8 q 1097 19 1086 8 q 1114 46 1108 31 q 1122 77 1121 62 q 1124 99 1124 92 l 1124 808 q 1117 894 1124 861 q 1096 946 1111 927 q 1059 971 1082 965 q 1007 978 1037 978 q 938 966 965 978 q 891 932 911 955 q 855 875 870 909 q 823 793 840 840 l 730 541 q 700 465 715 501 q 669 402 686 429 q 634 359 652 375 q 593 343 615 343 q 546 361 568 343 q 507 409 525 380 q 475 475 490 439 q 448 544 461 511 "},"C":{"x_min":36,"x_max":853.21875,"ha":861,"o":"m 824 909 q 803 948 824 927 q 748 984 783 968 q 662 1010 712 1000 q 551 1021 611 1021 q 346 985 440 1021 q 183 882 253 950 q 75 713 114 813 q 36 485 36 613 q 63 317 36 406 q 153 153 91 228 q 312 29 214 78 q 553 -20 411 -20 q 687 -6 630 -20 q 780 27 743 7 q 835 69 817 48 q 853 105 853 89 q 842 147 853 130 q 799 165 831 165 q 746 153 769 165 q 697 128 724 141 q 635 102 671 114 q 549 91 600 91 q 393 127 462 91 q 275 221 324 163 q 200 353 226 280 q 174 502 174 427 q 205 671 174 595 q 291 799 237 747 q 412 881 344 852 q 553 911 480 911 q 626 902 596 911 q 681 884 657 894 q 726 865 705 873 q 768 857 746 857 q 824 909 824 857 "},"œ":{"x_min":11,"x_max":1202,"ha":1229,"o":"m 1202 406 q 1179 518 1202 467 q 1117 605 1156 569 q 1027 661 1078 641 q 921 682 976 682 q 646 553 715 682 q 521 646 596 614 q 365 678 447 678 q 233 654 297 678 q 120 586 169 630 q 40 477 70 541 q 11 330 11 412 q 39 187 11 251 q 116 78 67 123 q 229 10 165 34 q 365 -13 294 -13 q 541 28 465 -13 q 662 136 617 69 q 760 43 700 77 q 897 11 819 9 q 990 20 951 11 q 1051 41 1028 29 q 1086 67 1075 54 q 1097 90 1097 81 q 1090 119 1097 109 q 1064 129 1083 129 q 1024 122 1043 129 q 985 107 1006 115 q 941 92 964 99 q 890 86 918 86 q 831 95 863 86 q 774 120 800 104 q 730 163 747 137 q 713 221 713 188 q 728 276 713 255 q 769 310 744 298 q 824 328 794 323 q 879 333 853 333 q 950 330 919 333 q 1004 324 981 327 q 1047 319 1028 321 q 1086 316 1067 316 q 1172 341 1142 316 q 1202 406 1202 366 m 136 330 q 153 425 136 380 q 201 502 170 469 q 274 554 231 535 q 365 574 316 574 q 454 556 412 574 q 527 506 495 539 q 577 429 558 473 q 596 330 596 384 q 576 234 596 277 q 525 160 557 191 q 451 111 493 128 q 365 94 409 94 q 270 114 312 94 q 197 169 227 135 q 151 244 167 202 q 136 330 136 287 m 710 487 q 723 540 710 515 q 757 585 736 566 q 808 617 779 605 q 869 629 837 629 q 935 619 903 629 q 993 590 968 609 q 1036 545 1019 572 q 1053 484 1053 519 q 1039 434 1053 455 q 1003 400 1026 413 q 950 381 980 387 q 886 375 919 375 q 829 379 859 375 q 772 397 798 384 q 728 431 746 409 q 710 487 710 454 "},"!":{"x_min":117,"x_max":239,"ha":342,"o":"m 235 874 q 232 914 235 892 q 223 953 229 935 q 205 984 216 972 q 176 997 194 997 q 145 984 157 997 q 128 953 133 972 q 121 912 122 934 q 120 874 120 891 l 120 456 q 122 409 120 433 q 131 367 125 385 q 149 335 138 348 q 176 323 160 323 q 205 335 193 323 q 223 367 216 348 q 232 410 229 387 q 235 456 235 434 l 235 874 m 176 0 q 220 15 201 0 q 239 56 239 31 q 220 101 239 83 q 176 119 202 119 q 134 100 151 119 q 117 56 117 81 q 135 16 117 33 q 176 0 153 0 "},"ç":{"x_min":32,"x_max":542.921875,"ha":585,"o":"m 32 339 q 55 198 32 253 q 112 109 79 144 q 181 50 145 73 q 244 0 217 26 q 267 -21 258 -13 q 286 -37 277 -28 q 304 -58 295 -45 q 326 -91 313 -70 q 351 -131 338 -113 q 372 -163 363 -148 q 388 -194 381 -179 q 394 -229 394 -210 q 399 -265 394 -245 q 426 -286 405 -286 q 443 -274 440 -286 q 447 -248 447 -263 l 447 -237 q 434 -199 447 -215 q 408 -169 422 -184 q 382 -135 394 -153 q 370 -88 370 -116 q 383 -56 370 -70 q 413 -29 395 -41 q 454 -6 431 -17 q 494 14 476 4 q 524 38 512 25 q 537 66 537 51 q 524 98 537 90 q 487 105 510 105 q 440 103 467 105 q 381 100 413 100 q 285 120 327 100 q 213 174 242 140 q 169 253 184 208 q 154 346 154 297 q 176 447 154 404 q 231 519 198 490 q 301 562 263 547 q 372 577 340 577 q 414 570 383 577 q 476 564 445 564 q 523 572 504 564 q 542 604 542 581 q 538 624 542 611 q 517 650 534 638 q 466 671 499 662 q 374 681 433 681 q 261 662 322 681 q 150 601 201 643 q 65 495 99 560 q 32 339 32 430 "},"È":{"x_min":57,"x_max":688.640625,"ha":699,"o":"m 663 925 q 632 969 663 957 q 534 981 601 981 l 212 981 q 134 975 163 981 q 88 954 105 969 q 61 892 66 932 q 57 792 57 851 l 57 165 q 63 81 57 112 q 87 32 69 50 q 142 7 106 12 q 238 3 177 3 l 519 3 q 644 12 601 3 q 688 51 688 21 q 644 101 688 89 q 528 113 599 113 l 371 113 q 301 119 334 113 q 243 142 267 125 q 204 192 219 160 q 190 273 190 223 q 202 372 190 336 q 238 426 215 408 q 295 449 262 444 q 370 454 329 454 l 486 454 q 542 455 515 454 q 590 461 569 456 q 622 476 611 466 q 634 505 634 487 q 595 552 634 542 q 486 562 555 562 l 381 562 q 311 565 345 562 q 251 583 277 568 q 208 627 224 598 q 193 706 193 656 q 206 795 193 762 q 246 844 220 828 q 308 865 272 861 q 387 870 344 870 l 477 870 q 550 871 516 870 q 609 879 584 872 q 649 895 634 885 q 663 925 663 906 m 298 1278 q 309 1224 298 1260 q 334 1154 319 1189 q 366 1094 348 1120 q 395 1068 383 1068 q 427 1082 419 1068 q 436 1132 436 1096 q 429 1181 436 1149 q 412 1246 423 1214 q 383 1302 401 1278 q 343 1327 365 1327 q 298 1278 298 1327 "},"{":{"x_min":114,"x_max":411.34375,"ha":528,"o":"m 347 939 q 390 980 373 966 q 407 1009 407 994 q 376 1035 407 1035 q 321 1020 353 1035 q 268 983 290 1005 q 231 904 240 954 q 222 804 222 854 l 222 701 q 213 605 222 643 q 193 545 205 568 q 168 508 181 522 q 142 483 154 494 q 122 458 130 472 q 114 422 114 444 q 131 376 114 392 q 169 334 148 359 q 207 265 190 309 q 225 139 225 221 l 225 31 q 236 -67 225 -21 q 293 -157 248 -112 q 333 -180 308 -172 q 379 -188 358 -188 q 402 -184 393 -188 q 411 -174 411 -181 q 403 -147 411 -158 q 385 -127 396 -136 q 364 -110 375 -118 q 344 -93 353 -101 q 316 -37 325 -71 q 308 31 308 -4 l 308 137 q 299 262 308 220 q 280 327 290 303 q 261 367 269 351 q 253 417 253 384 q 261 474 253 455 q 280 518 269 494 q 298 582 290 543 q 307 701 307 622 l 307 789 q 316 873 307 830 q 347 939 325 916 "},"X":{"x_min":15.8125,"x_max":796.34375,"ha":807,"o":"m 400 675 q 334 708 364 675 q 276 787 304 742 l 243 843 q 209 897 226 871 q 172 944 192 924 q 131 976 153 964 q 83 989 108 989 q 51 975 63 989 q 40 951 40 962 q 59 893 40 926 q 106 819 78 859 l 213 666 q 255 591 240 629 q 270 522 270 554 q 253 451 270 491 q 208 370 236 412 l 85 187 q 35 107 56 142 q 15 51 15 71 q 23 19 15 30 q 58 8 31 8 q 125 35 94 8 q 182 106 156 62 l 243 210 q 279 267 261 239 q 314 317 296 295 q 351 351 332 338 q 393 363 371 363 q 440 351 418 363 q 481 319 461 339 q 517 274 500 299 q 551 219 535 248 l 619 103 q 678 30 646 59 q 749 1 710 1 q 786 14 776 1 q 796 48 796 27 q 780 102 796 70 q 736 173 764 134 l 614 347 q 559 440 581 395 q 538 522 538 486 q 552 591 538 554 q 593 666 567 629 l 692 810 q 738 882 719 850 q 757 935 757 914 q 749 973 757 958 q 715 988 740 988 q 672 976 692 988 q 635 944 653 964 q 602 899 618 925 q 571 847 586 874 l 532 781 q 475 706 507 736 q 400 675 443 675 "},"ô":{"x_min":11,"x_max":722,"ha":735,"o":"m 722 330 q 692 478 722 413 q 612 587 662 543 q 499 655 563 632 q 365 678 434 678 q 233 654 297 678 q 120 586 169 630 q 40 477 70 541 q 11 330 11 412 q 39 187 11 251 q 116 78 67 123 q 229 10 165 34 q 365 -13 294 -13 q 513 15 447 -13 q 625 91 578 44 q 697 201 672 139 q 722 330 722 263 m 136 330 q 153 425 136 380 q 201 502 170 469 q 274 554 231 535 q 365 574 316 574 q 454 556 412 574 q 527 506 495 539 q 577 429 558 473 q 596 330 596 384 q 576 234 596 277 q 525 160 557 191 q 451 111 493 128 q 365 94 409 94 q 270 114 312 94 q 197 169 227 135 q 151 244 167 202 q 136 330 136 287 m 498 759 q 508 771 508 759 q 493 808 508 783 q 456 856 479 832 q 406 898 433 880 q 352 917 379 917 q 300 898 325 917 q 254 855 275 879 q 222 806 234 831 q 211 768 211 781 q 216 759 211 759 q 254 772 237 759 q 287 802 272 786 q 318 832 302 818 q 352 846 334 846 q 386 832 369 846 q 422 802 404 818 q 459 772 440 786 q 498 759 477 759 "},"#":{"x_min":104,"x_max":798.625,"ha":846,"o":"m 479 667 q 414 686 445 667 q 359 736 383 705 q 321 805 336 767 q 306 881 306 843 q 264 794 286 833 q 227 740 242 754 q 174 695 202 715 q 147 650 147 675 q 160 618 147 634 q 187 584 172 602 q 214 543 202 565 q 227 494 227 520 q 207 436 227 461 q 164 392 187 412 q 122 356 141 373 q 104 319 104 338 q 119 284 104 306 q 153 235 134 262 q 188 180 172 209 q 204 126 204 151 q 233 180 213 148 q 280 241 252 212 q 343 290 308 270 q 423 310 379 310 q 497 287 465 310 q 551 232 529 263 q 584 169 573 201 q 595 122 595 137 q 645 205 623 176 q 680 249 666 234 q 697 263 684 254 q 722 283 709 272 q 745 306 736 294 q 755 326 755 318 q 743 363 755 347 q 715 397 730 380 q 687 436 700 415 q 675 484 675 457 q 694 541 675 515 q 736 587 713 566 q 779 625 759 608 q 798 658 798 643 q 783 696 798 678 q 750 736 768 714 q 716 789 731 758 q 701 865 701 819 q 668 810 690 844 q 616 744 645 776 q 552 690 587 712 q 479 667 518 667 m 285 490 q 307 549 285 520 q 361 599 330 577 q 421 634 391 620 q 465 647 451 647 q 519 632 491 647 q 567 596 546 618 q 603 548 589 575 q 617 498 617 522 q 594 431 617 462 q 541 379 571 401 q 480 346 511 358 q 435 334 450 334 q 394 345 419 334 q 344 377 368 356 q 302 425 319 397 q 285 490 285 454 "},"Ê":{"x_min":57,"x_max":688.640625,"ha":699,"o":"m 663 925 q 632 969 663 957 q 534 981 601 981 l 212 981 q 134 975 163 981 q 88 954 105 969 q 61 892 66 932 q 57 792 57 851 l 57 165 q 63 81 57 112 q 87 32 69 50 q 142 7 106 12 q 238 3 177 3 l 519 3 q 644 12 601 3 q 688 51 688 21 q 644 101 688 89 q 528 113 599 113 l 371 113 q 301 119 334 113 q 243 142 267 125 q 204 192 219 160 q 190 273 190 223 q 202 372 190 336 q 238 426 215 408 q 295 449 262 444 q 370 454 329 454 l 486 454 q 542 455 515 454 q 590 461 569 456 q 622 476 611 466 q 634 505 634 487 q 595 552 634 542 q 486 562 555 562 l 381 562 q 311 565 345 562 q 251 583 277 568 q 208 627 224 598 q 193 706 193 656 q 206 795 193 762 q 246 844 220 828 q 308 865 272 861 q 387 870 344 870 l 477 870 q 550 871 516 870 q 609 879 584 872 q 649 895 634 885 q 663 925 663 906 m 516 1052 q 526 1064 526 1052 q 511 1101 526 1076 q 474 1149 497 1125 q 424 1191 451 1173 q 370 1210 397 1210 q 318 1191 343 1210 q 272 1148 293 1172 q 240 1099 252 1124 q 229 1061 229 1074 q 234 1052 229 1052 q 272 1065 255 1052 q 305 1095 290 1079 q 336 1125 320 1111 q 370 1139 352 1139 q 404 1125 387 1139 q 440 1095 422 1111 q 477 1065 458 1079 q 516 1052 495 1052 "},")":{"x_min":110.890625,"x_max":330,"ha":465,"o":"m 110 -72 q 119 -99 110 -89 q 140 -110 127 -110 q 178 -85 156 -110 q 220 -19 199 -61 q 261 76 241 21 q 296 189 281 130 q 321 308 312 248 q 330 423 330 369 q 309 636 330 531 q 260 822 289 740 q 197 956 230 905 q 137 1007 163 1007 q 115 968 115 1007 q 135 906 115 947 q 181 799 156 865 q 226 638 205 733 q 247 413 247 544 q 225 246 247 329 q 178 97 203 163 q 132 -15 153 30 q 110 -72 110 -61 "},"Å":{"x_min":-2.78125,"x_max":891.734375,"ha":889,"o":"m 613 726 q 572 824 590 779 q 536 901 555 868 q 495 951 518 933 q 441 970 473 970 q 392 952 412 970 q 354 905 372 935 q 320 834 336 875 q 283 747 304 793 l 115 362 q 84 296 104 338 q 45 208 65 254 q 11 119 26 162 q -2 53 -2 77 q 11 12 -2 23 q 54 1 25 1 q 94 21 76 1 q 129 71 112 42 q 160 127 145 99 q 188 170 175 155 q 229 202 209 191 q 271 219 248 214 q 324 226 294 225 q 395 228 354 228 l 490 228 q 554 226 526 228 q 604 219 581 225 q 646 202 627 214 q 684 173 665 191 q 722 120 707 150 q 754 63 738 90 q 789 18 769 37 q 843 0 809 0 q 882 18 873 0 q 891 47 891 37 l 891 48 q 878 107 891 69 q 847 189 865 145 q 811 275 830 233 q 779 347 791 318 l 613 726 m 288 440 q 300 500 288 455 q 331 592 311 544 q 377 677 351 640 q 436 714 404 714 q 478 696 458 714 q 515 652 498 679 q 545 594 531 626 q 567 532 558 562 q 581 480 576 503 q 586 447 586 457 q 553 357 586 390 q 438 324 520 324 q 328 351 368 324 q 288 440 288 378 m 431 1207 q 368 1184 391 1207 q 345 1126 345 1162 q 353 1090 345 1111 q 373 1050 361 1069 q 401 1019 386 1032 q 431 1007 416 1007 q 463 1020 445 1007 q 495 1054 480 1034 q 519 1094 509 1073 q 529 1130 529 1115 q 500 1185 529 1163 q 431 1207 472 1207 m 398 1113 q 409 1140 398 1129 q 431 1151 420 1151 q 457 1140 444 1151 q 470 1111 470 1129 q 458 1087 470 1098 q 431 1076 445 1076 q 408 1086 418 1076 q 398 1113 398 1097 "},"ø":{"x_min":11,"x_max":722,"ha":735,"o":"m 549 698 q 565 764 565 739 q 558 799 566 789 q 531 779 547 799 q 498 718 515 760 l 474 662 q 365 678 420 678 q 233 654 297 678 q 120 586 169 630 q 40 477 70 541 q 11 330 11 412 q 67 135 11 215 q 213 17 124 54 l 176 -77 q 172 -89 174 -80 q 170 -107 170 -98 q 172 -128 170 -119 q 180 -144 174 -138 q 206 -125 191 -144 q 231 -81 220 -106 l 265 0 q 365 -13 312 -13 q 513 15 447 -13 q 625 91 578 44 q 697 201 672 139 q 722 330 722 263 q 666 525 722 447 q 526 643 610 604 l 549 698 m 136 330 q 153 425 136 380 q 201 502 170 469 q 274 554 231 535 q 365 574 316 574 q 434 562 398 574 l 256 122 q 167 211 198 154 q 136 330 136 268 m 596 330 q 576 234 596 277 q 525 159 557 191 q 451 111 493 128 q 365 94 409 94 q 307 100 337 94 l 484 538 q 564 454 533 507 q 596 330 596 400 "},"â":{"x_min":41.671875,"x_max":643.109375,"ha":679,"o":"m 288 687 q 236 673 265 684 q 186 651 206 661 q 187 639 187 644 q 187 632 187 634 l 187 619 q 191 607 187 611 q 211 604 195 604 q 225 605 218 604 q 244 607 233 605 l 281 621 q 294 623 288 622 q 306 623 300 623 q 391 607 347 623 q 459 562 434 591 q 479 536 470 550 q 488 498 488 522 l 488 487 q 486 478 488 484 q 481 472 483 472 l 481 473 q 477 458 476 465 q 473 443 479 451 q 461 435 469 436 q 444 429 452 434 q 427 412 437 423 q 406 398 416 401 q 353 388 381 390 q 295 384 325 386 q 238 380 266 382 q 186 369 211 377 q 153 356 170 365 q 119 336 136 347 q 88 312 102 325 q 66 287 73 300 q 47 244 52 266 q 41 200 41 222 q 52 137 41 168 q 81 82 63 107 q 122 39 100 57 q 170 14 145 22 q 198 8 184 9 q 227 7 212 7 q 297 14 263 7 q 355 29 330 22 q 354 43 355 34 q 354 59 354 51 q 355 73 354 69 q 310 79 329 76 q 277 89 291 83 q 249 102 262 94 q 222 125 236 111 q 188 195 188 159 q 196 236 188 215 q 215 280 204 257 l 230 280 l 230 295 q 263 316 245 304 q 297 332 281 327 q 325 339 311 337 q 355 341 340 341 q 447 318 406 341 q 495 251 488 294 q 497 232 497 244 q 478 159 497 193 q 444 102 459 126 l 429 95 l 429 90 q 429 81 429 86 q 430 72 430 76 q 429 66 430 68 q 467 54 451 58 q 511 44 483 51 q 540 38 525 41 q 570 34 555 34 q 599 39 586 34 q 622 58 612 44 q 638 129 633 76 q 643 250 643 183 q 641 337 643 293 q 636 420 640 382 q 629 489 633 459 q 622 532 626 518 q 609 561 618 544 q 591 593 601 577 q 569 622 580 608 q 548 643 558 636 q 465 679 518 666 q 352 691 412 691 q 288 687 319 691 m 515 791 q 525 803 525 791 q 510 840 525 815 q 472 888 495 864 q 422 930 450 912 q 369 949 395 949 q 316 930 341 949 q 271 887 291 911 q 239 838 251 863 q 227 800 227 813 q 233 791 227 791 q 271 804 254 791 q 304 834 288 818 q 335 864 319 850 q 369 878 351 878 q 403 864 386 878 q 438 834 420 850 q 475 804 456 818 q 515 791 494 791 "},"}":{"x_min":105.65625,"x_max":404,"ha":525,"o":"m 170 -85 q 127 -128 143 -113 q 111 -158 111 -142 q 140 -183 111 -183 q 195 -167 164 -183 q 250 -130 227 -152 q 275 -87 266 -113 q 289 -31 285 -60 q 294 28 293 -2 q 295 87 295 59 l 295 152 q 303 248 295 211 q 323 309 311 286 q 349 345 335 332 q 375 370 363 359 q 395 394 387 382 q 404 430 404 406 q 386 475 404 458 q 347 515 368 491 q 309 581 326 540 q 292 702 292 623 l 292 770 q 292 835 292 805 q 285 897 292 867 q 265 953 279 926 q 225 1009 251 981 q 184 1032 209 1024 q 136 1040 158 1040 q 114 1036 123 1040 q 105 1026 105 1033 q 112 999 105 1010 q 129 978 119 988 q 152 961 140 969 q 172 944 164 953 q 202 874 197 917 q 208 767 208 830 l 208 702 q 216 585 208 624 q 235 523 225 545 q 254 484 245 501 q 264 434 264 468 q 254 377 264 397 q 235 335 245 358 q 216 275 225 312 q 208 162 208 237 l 208 90 q 200 -20 208 22 q 170 -85 191 -63 "},"‰":{"x_min":34,"x_max":1249,"ha":1280,"o":"m 496 693 q 477 787 496 743 q 428 866 459 832 q 354 919 397 900 q 261 939 311 939 q 171 918 212 939 q 99 864 129 898 q 51 786 68 830 q 34 693 34 741 q 52 607 34 647 q 102 538 71 568 q 175 491 133 508 q 261 475 217 475 q 351 490 308 475 q 425 536 393 506 q 476 604 457 565 q 496 693 496 644 m 1249 664 q 1234 739 1249 698 q 1190 816 1219 780 q 1119 875 1161 851 q 1021 899 1076 899 q 926 880 968 899 q 852 831 883 862 q 804 756 821 800 q 788 661 788 712 q 806 576 788 616 q 855 504 824 536 q 928 453 886 472 q 1017 435 969 435 q 1106 451 1064 435 q 1180 498 1149 468 q 1230 571 1211 529 q 1249 664 1249 614 m 947 137 q 932 213 947 172 q 888 289 917 254 q 817 348 859 324 q 719 372 774 372 q 624 353 666 372 q 550 304 581 335 q 502 229 519 273 q 486 134 486 186 q 504 50 486 90 q 553 -21 522 10 q 626 -72 584 -53 q 715 -91 667 -91 q 804 -74 762 -91 q 878 -27 847 -57 q 928 45 909 3 q 947 137 947 87 m 864 652 q 904 773 864 725 q 1015 821 944 821 q 1128 777 1083 821 q 1173 665 1173 733 q 1133 555 1173 599 q 1015 511 1093 511 q 953 523 980 511 q 905 556 925 536 q 874 602 884 577 q 864 652 864 627 m 563 126 q 603 246 563 198 q 714 294 643 294 q 826 250 782 294 q 871 138 871 206 q 831 29 871 73 q 714 -15 791 -15 q 651 -2 679 -15 q 603 30 624 9 q 573 76 583 51 q 563 126 563 101 m 110 692 q 121 756 110 726 q 152 810 132 787 q 200 847 172 833 q 261 861 227 861 q 320 847 291 861 q 370 810 348 833 q 405 756 393 787 q 418 692 418 726 q 405 637 418 663 q 371 592 393 612 q 321 562 350 573 q 261 551 293 551 q 203 562 230 551 q 155 592 176 573 q 122 637 134 612 q 110 692 110 663 m 740 816 q 765 860 752 838 q 786 901 777 883 q 797 934 794 920 q 794 954 800 948 q 774 939 787 954 q 747 904 761 924 q 721 863 734 884 q 701 827 708 841 l 336 178 q 318 149 331 170 q 293 104 305 128 q 273 59 280 80 q 273 31 266 38 q 297 46 283 31 q 324 79 311 60 q 347 115 337 98 q 362 140 358 133 l 740 816 "},"Ä":{"x_min":-2.78125,"x_max":891.734375,"ha":889,"o":"m 613 726 q 572 824 590 779 q 536 901 555 868 q 495 951 518 933 q 441 970 473 970 q 392 952 412 970 q 354 905 372 935 q 320 834 336 875 q 283 747 304 793 l 115 362 q 84 296 104 338 q 45 208 65 254 q 11 119 26 162 q -2 53 -2 77 q 11 12 -2 23 q 54 1 25 1 q 94 21 76 1 q 129 71 112 42 q 160 127 145 99 q 188 170 175 155 q 229 202 209 191 q 271 219 248 214 q 324 226 294 225 q 395 228 354 228 l 490 228 q 554 226 526 228 q 604 219 581 225 q 646 202 627 214 q 684 173 665 191 q 722 120 707 150 q 754 63 738 90 q 789 18 769 37 q 843 0 809 0 q 882 18 873 0 q 891 47 891 37 l 891 48 q 878 107 891 69 q 847 189 865 145 q 811 275 830 233 q 779 347 791 318 l 613 726 m 288 440 q 300 500 288 455 q 331 592 311 544 q 377 677 351 640 q 436 714 404 714 q 478 696 458 714 q 515 652 498 679 q 545 594 531 626 q 567 532 558 562 q 581 480 576 503 q 586 447 586 457 q 553 357 586 390 q 438 324 520 324 q 328 351 368 324 q 288 440 288 378 m 588 1143 q 547 1127 561 1143 q 534 1092 534 1112 q 548 1054 534 1071 q 588 1037 562 1037 q 632 1054 616 1037 q 648 1092 648 1071 q 634 1127 648 1112 q 588 1143 620 1143 m 284 1143 q 243 1127 256 1143 q 230 1092 230 1112 q 244 1054 230 1071 q 284 1037 258 1037 q 327 1054 312 1037 q 343 1092 343 1071 q 329 1127 343 1112 q 284 1143 315 1143 "},"a":{"x_min":24,"x_max":611,"ha":647,"o":"m 611 393 q 547 600 611 530 q 365 670 483 670 q 256 660 305 670 q 174 637 208 650 q 121 611 140 623 q 103 594 103 598 q 109 588 103 590 q 119 586 115 586 q 190 600 144 586 q 306 614 235 614 q 354 606 326 614 q 408 582 383 598 q 453 542 434 566 q 472 486 472 518 q 456 433 472 455 q 416 395 440 411 q 363 372 392 380 q 309 365 334 365 q 211 357 262 365 q 119 329 161 349 q 51 272 78 308 q 24 177 24 236 q 48 83 24 119 q 103 28 72 48 q 166 3 135 9 q 212 -3 197 -3 q 248 0 228 -3 q 291 10 269 3 q 333 26 314 16 q 366 49 352 35 q 298 51 334 45 q 232 74 263 58 q 182 119 202 91 q 162 184 162 147 q 184 255 162 226 q 236 303 206 284 q 295 331 265 322 q 338 340 324 340 q 380 332 356 340 q 426 307 404 323 q 463 269 448 291 q 478 218 478 247 q 467 158 478 186 q 443 110 457 131 q 417 74 430 88 q 400 56 404 60 q 430 38 411 45 q 468 28 448 31 q 505 23 487 24 q 532 22 522 22 l 533 22 q 593 50 576 22 q 611 113 611 79 l 611 393 "},"—":{"x_min":36.109375,"x_max":919.515625,"ha":946,"o":"m 131 442 q 65 433 94 442 q 36 401 36 425 q 65 372 36 377 q 131 368 95 368 l 820 368 q 888 374 857 368 q 919 401 919 381 q 888 434 919 426 q 820 442 857 442 l 131 442 "},"=":{"x_min":73.609375,"x_max":693.109375,"ha":739,"o":"m 169 601 q 102 587 131 601 q 73 549 73 574 q 103 516 73 526 q 169 507 133 507 l 594 507 q 661 518 630 507 q 693 549 693 530 q 661 587 693 574 q 594 601 630 601 l 169 601 m 169 303 q 102 289 131 303 q 73 251 73 276 q 103 219 73 229 q 169 209 133 209 l 594 209 q 661 220 630 209 q 693 251 693 232 q 661 289 693 276 q 594 303 630 303 l 169 303 "},"N":{"x_min":51,"x_max":939,"ha":999,"o":"m 607 433 l 362 814 q 296 910 322 876 q 249 958 270 943 q 206 978 227 975 q 152 981 184 981 q 94 964 114 981 q 63 921 73 947 q 52 861 53 894 q 51 796 51 828 l 51 121 q 66 37 51 70 q 113 5 81 5 q 147 18 134 5 q 166 50 159 31 q 176 91 173 70 q 179 131 179 113 l 179 495 q 197 636 179 595 q 247 676 215 676 q 309 645 276 676 q 376 562 342 615 l 662 113 q 705 51 686 75 q 745 12 725 27 q 786 -7 765 -1 q 834 -13 807 -13 q 886 -2 865 -13 q 918 25 907 7 q 934 66 929 44 q 939 114 939 89 l 939 794 q 925 914 939 867 q 873 961 911 961 q 823 924 837 961 q 810 839 810 886 l 811 602 q 809 472 811 526 q 799 383 807 417 q 778 333 791 349 q 741 317 764 317 q 675 347 707 317 q 607 433 643 377 "},"ú":{"x_min":57,"x_max":667,"ha":708,"o":"m 113 659 q 73 636 90 659 q 57 565 57 613 l 57 249 q 117 43 57 110 q 282 -24 177 -24 q 349 -16 323 -24 q 393 0 375 -8 q 430 17 412 9 q 476 25 448 25 q 512 22 498 25 q 538 16 526 19 q 564 10 550 13 q 600 8 578 8 q 653 46 639 8 q 667 156 667 85 l 667 516 q 664 572 667 545 q 656 617 662 598 q 638 648 650 637 q 605 659 626 659 q 574 647 586 659 q 555 617 562 635 q 545 576 548 598 q 543 537 543 555 l 543 331 q 533 244 543 288 q 503 163 523 199 q 451 102 483 126 q 377 79 420 79 q 275 99 315 79 q 212 163 235 120 q 181 269 190 206 q 172 419 172 333 l 172 554 q 157 631 172 604 q 113 659 142 659 m 426 954 q 381 1003 426 1003 q 341 978 358 1003 q 312 922 323 954 q 295 857 301 890 q 288 808 288 825 q 297 758 288 772 q 329 744 305 744 q 359 770 341 744 q 391 830 376 796 q 416 900 405 865 q 426 954 426 936 "},"2":{"x_min":49,"x_max":679,"ha":708,"o":"m 679 740 q 595 943 679 873 q 372 1014 512 1014 q 248 994 300 1014 q 162 947 195 975 q 113 890 129 919 q 97 842 97 860 q 108 802 97 815 q 148 790 119 790 q 199 806 177 790 q 245 842 220 822 q 300 878 269 862 q 376 895 330 895 q 451 880 419 895 q 504 842 483 865 q 535 792 525 819 q 546 740 546 765 q 527 663 546 703 q 478 584 508 624 q 413 507 448 544 q 344 438 378 469 q 284 383 311 407 q 244 347 257 359 q 183 289 216 319 q 119 225 150 258 q 69 159 89 193 q 49 91 49 125 q 58 49 49 66 q 81 20 67 31 q 114 4 96 9 q 151 0 133 0 l 513 0 q 605 9 566 0 q 644 49 644 18 q 607 87 644 77 q 520 97 570 97 l 470 97 q 405 99 437 97 q 348 109 373 101 q 308 132 323 117 q 293 172 293 147 q 321 249 293 210 q 392 329 349 288 q 486 413 436 369 q 579 508 535 458 q 650 615 622 558 q 679 740 679 673 "},"ü":{"x_min":57,"x_max":667,"ha":708,"o":"m 113 659 q 73 636 90 659 q 57 565 57 613 l 57 249 q 117 43 57 110 q 282 -24 177 -24 q 349 -16 323 -24 q 393 0 375 -8 q 430 17 412 9 q 476 25 448 25 q 512 22 498 25 q 538 16 526 19 q 564 10 550 13 q 600 8 578 8 q 653 46 639 8 q 667 156 667 85 l 667 516 q 664 572 667 545 q 656 617 662 598 q 638 648 650 637 q 605 659 626 659 q 574 647 586 659 q 555 617 562 635 q 545 576 548 598 q 543 537 543 555 l 543 331 q 533 244 543 288 q 503 163 523 199 q 451 102 483 126 q 377 79 420 79 q 275 99 315 79 q 212 163 235 120 q 181 269 190 206 q 172 419 172 333 l 172 554 q 157 631 172 604 q 113 659 142 659 m 504 871 q 463 855 476 871 q 450 820 450 840 q 463 782 450 799 q 504 765 477 765 q 547 782 531 765 q 563 820 563 799 q 550 855 563 840 q 504 871 536 871 m 200 871 q 159 855 172 871 q 145 820 145 840 q 159 782 145 799 q 200 765 173 765 q 243 782 227 765 q 258 820 258 799 q 244 855 258 840 q 200 871 230 871 "},"Z":{"x_min":17,"x_max":731,"ha":757,"o":"m 731 909 q 719 958 731 939 q 681 986 707 977 q 614 998 656 995 q 513 1001 572 1001 l 286 1000 q 176 998 221 1000 q 104 990 132 997 q 64 973 76 984 q 51 941 51 962 q 65 912 51 923 q 97 895 78 900 q 136 888 115 889 q 174 887 157 887 l 303 887 q 379 884 344 887 q 440 871 414 881 q 480 843 465 862 q 495 795 495 825 q 474 734 495 771 q 415 648 453 696 l 110 262 q 43 168 69 211 q 17 90 17 125 q 28 42 17 60 q 62 14 39 23 q 122 1 86 4 q 207 -1 158 -1 l 502 -1 q 664 7 610 -1 q 718 51 718 15 q 706 82 718 71 q 674 99 695 93 q 625 107 653 105 q 565 110 597 110 l 432 110 q 363 112 396 110 q 306 123 331 115 q 266 148 281 132 q 252 190 252 164 q 275 267 252 229 q 339 355 299 305 l 647 744 q 708 832 685 792 q 731 909 731 871 "},"u":{"x_min":57,"x_max":667,"ha":708,"o":"m 113 660 q 73 637 90 660 q 57 565 57 614 l 57 249 q 117 43 57 110 q 282 -24 177 -24 q 349 -16 323 -24 q 393 0 375 -8 q 430 17 412 9 q 476 25 448 25 q 512 22 498 25 q 538 16 526 19 q 564 10 550 13 q 600 8 578 8 q 653 46 639 8 q 667 156 667 85 l 667 516 q 664 572 667 546 q 656 618 662 598 q 638 648 650 637 q 605 660 626 660 q 574 648 586 660 q 555 617 562 636 q 545 577 548 598 q 543 537 543 555 l 543 331 q 533 244 543 288 q 503 163 523 199 q 451 102 483 126 q 377 79 420 79 q 275 99 315 79 q 212 163 235 120 q 181 270 190 206 q 172 419 172 333 l 172 554 q 157 632 172 604 q 113 660 142 660 "},"˜":{"x_min":60.609375,"x_max":420.21875,"ha":471,"o":"m 341 854 q 287 858 312 850 q 238 877 262 866 q 186 897 213 888 q 123 900 158 905 q 70 872 83 893 q 61 833 58 852 q 72 812 63 816 q 94 811 81 808 q 119 817 106 813 q 145 823 131 820 q 208 820 183 829 q 255 801 233 812 q 301 782 277 790 q 361 779 325 773 q 404 800 384 782 q 419 847 423 819 q 410 866 416 862 q 393 869 404 870 q 368 861 381 866 q 341 854 355 857 "},"Ó":{"x_min":22,"x_max":1068,"ha":1075,"o":"m 1068 480 q 1024 725 1068 623 q 907 892 980 827 q 738 988 834 957 q 535 1019 641 1019 q 316 977 412 1019 q 155 862 220 935 q 56 692 90 789 q 22 480 22 594 q 58 287 22 379 q 160 126 94 195 q 322 15 227 56 q 535 -25 417 -25 q 747 11 649 -25 q 915 113 844 47 q 1027 272 987 179 q 1068 480 1068 365 m 161 480 q 192 664 161 584 q 276 798 224 744 q 396 880 328 852 q 535 908 464 908 q 691 879 619 908 q 816 796 763 851 q 899 661 868 741 q 930 480 930 581 q 900 329 930 401 q 819 204 871 258 q 695 117 767 149 q 535 86 623 86 q 376 122 445 86 q 258 215 306 158 q 185 343 210 273 q 161 480 161 413 m 623 1319 q 579 1368 623 1368 q 538 1343 555 1368 q 509 1287 520 1319 q 492 1222 498 1255 q 486 1173 486 1190 q 494 1123 486 1137 q 526 1109 502 1109 q 556 1135 538 1109 q 588 1195 573 1161 q 613 1265 602 1230 q 623 1319 623 1301 "},"k":{"x_min":96,"x_max":622.921875,"ha":620,"o":"m 150 939 q 120 929 130 939 q 104 905 109 920 q 97 870 98 890 q 96 827 96 850 l 96 100 q 109 26 96 56 q 153 -3 123 -3 q 181 8 169 -3 q 198 37 192 20 q 206 69 204 53 q 209 94 209 85 q 231 194 209 162 q 285 226 253 226 q 352 199 321 226 q 410 137 382 173 l 450 84 q 513 15 481 44 q 586 -14 546 -14 q 622 19 622 -14 q 603 70 622 42 q 556 130 584 98 l 510 186 q 463 254 482 218 q 445 326 445 290 q 464 388 445 357 q 509 448 484 420 l 546 493 q 576 531 564 514 q 588 561 588 548 q 580 583 588 575 q 549 591 572 591 q 507 577 529 591 q 461 539 485 562 l 418 497 q 354 439 386 465 q 290 414 322 414 q 226 459 247 414 q 206 586 206 505 l 206 823 q 194 909 206 879 q 150 939 183 939 "},"Ù":{"x_min":51,"x_max":841,"ha":885,"o":"m 182 457 l 182 805 q 179 866 182 835 q 169 923 176 897 q 149 967 162 950 q 119 985 137 985 q 83 969 96 985 q 62 929 70 954 q 53 872 55 904 q 51 805 51 840 l 51 418 q 87 203 51 287 q 180 71 123 119 q 306 3 237 22 q 441 -15 375 -15 q 576 3 505 -15 q 705 70 646 21 q 802 207 764 119 q 841 435 841 294 l 841 805 q 838 869 841 837 q 829 926 836 901 q 809 967 822 951 q 774 983 796 983 q 742 966 754 983 q 722 923 729 948 q 712 866 715 897 q 710 805 710 835 l 710 414 q 690 279 710 336 q 636 185 671 222 q 552 128 601 147 q 444 110 502 110 q 317 135 368 110 q 236 207 266 161 q 194 316 207 253 q 182 457 182 380 m 379 1243 q 389 1189 379 1225 q 414 1119 400 1154 q 446 1059 429 1085 q 476 1033 463 1033 q 508 1047 500 1033 q 516 1097 516 1061 q 510 1146 516 1114 q 493 1211 504 1179 q 463 1267 481 1243 q 423 1292 445 1292 q 379 1243 379 1292 "},"Ÿ":{"x_min":-5.96875,"x_max":739.75,"ha":733,"o":"m 374 644 q 328 656 349 644 q 289 687 307 667 q 255 733 271 706 q 223 787 238 759 l 188 847 q 123 940 157 901 q 39 980 88 980 q 3 962 12 980 q -5 924 -5 944 q 13 865 -5 901 q 64 784 32 829 l 180 617 q 265 469 230 545 q 301 324 301 392 l 301 102 q 319 31 301 59 q 364 4 337 4 q 413 35 396 4 q 430 106 430 67 l 430 335 q 466 473 430 398 q 555 623 503 548 l 674 798 q 721 874 703 840 q 739 929 739 908 q 724 967 739 959 q 696 974 709 974 q 622 938 656 974 q 557 851 588 901 l 520 787 q 486 733 503 759 q 452 687 470 706 q 414 656 434 667 q 374 644 395 644 m 534 1214 q 493 1198 506 1214 q 480 1163 480 1183 q 494 1125 480 1142 q 534 1108 508 1108 q 578 1125 562 1108 q 594 1163 594 1142 q 580 1198 594 1183 q 534 1214 566 1214 m 230 1214 q 189 1198 202 1214 q 176 1163 176 1183 q 190 1125 176 1142 q 230 1108 204 1108 q 273 1125 258 1108 q 288 1163 288 1142 q 275 1198 288 1183 q 230 1214 261 1214 "},"¢":{"x_min":31,"x_max":544.96875,"ha":576,"o":"m 364 833 q 332 821 349 833 q 299 796 315 810 q 269 769 283 783 q 242 752 254 756 q 183 724 219 744 q 113 667 147 705 q 55 571 79 630 q 31 426 31 512 q 44 316 31 363 q 80 235 58 270 q 127 177 101 200 q 176 139 153 153 q 215 117 199 124 q 235 107 232 110 q 288 69 269 85 q 318 41 306 52 q 342 24 331 30 q 375 19 354 19 q 409 26 399 19 q 428 45 419 34 q 446 69 436 56 q 478 94 456 82 q 523 119 501 105 q 544 163 544 134 q 535 187 544 180 q 513 199 526 195 q 484 207 500 203 q 456 219 468 210 q 431 243 438 231 q 420 265 425 255 q 407 280 415 274 q 378 286 399 286 q 350 277 357 286 q 335 260 343 269 q 313 242 328 250 q 260 234 297 234 q 228 243 249 234 q 188 273 208 252 q 153 331 168 295 q 138 423 138 367 q 147 496 138 460 q 172 561 156 532 q 208 607 188 589 q 253 626 229 626 q 300 616 288 626 q 320 595 313 606 q 339 573 328 583 q 382 564 350 564 q 403 575 396 564 q 419 602 411 587 q 435 630 426 616 q 460 648 443 644 q 489 655 474 652 q 517 662 504 658 q 537 675 529 666 q 544 701 544 684 q 536 729 544 717 q 517 747 528 740 q 495 760 507 755 q 478 767 483 765 q 455 783 467 773 q 429 805 443 794 q 399 824 415 816 q 364 833 382 833 "},"é":{"x_min":28,"x_max":679,"ha":678,"o":"m 679 394 q 656 506 679 455 q 594 593 633 557 q 504 649 555 629 q 398 670 454 670 q 247 647 315 670 q 130 579 179 624 q 54 468 80 533 q 28 318 28 403 q 57 193 28 251 q 135 92 86 135 q 246 24 184 49 q 375 -1 309 -1 q 468 8 429 -1 q 529 29 506 17 q 564 55 553 42 q 575 78 575 69 q 568 107 575 97 q 542 117 561 117 q 502 110 521 117 q 463 95 484 103 q 419 80 442 87 q 368 74 396 74 q 309 83 341 74 q 252 108 278 92 q 208 151 225 125 q 191 209 191 176 q 206 264 191 243 q 247 298 222 286 q 301 316 272 311 q 357 321 331 321 q 428 318 397 321 q 482 312 458 315 q 525 307 505 309 q 563 304 544 304 q 649 329 619 304 q 679 394 679 354 m 188 475 q 201 528 188 503 q 235 573 214 554 q 286 605 257 593 q 347 617 315 617 q 413 607 380 617 q 471 578 445 597 q 513 533 496 560 q 530 472 530 507 q 516 422 530 443 q 480 388 503 401 q 427 369 458 375 q 363 363 397 363 q 307 367 337 363 q 250 385 276 372 q 206 419 224 397 q 188 475 188 442 m 436 941 q 391 990 436 990 q 350 965 368 990 q 322 909 333 941 q 304 844 311 877 q 298 795 298 812 q 306 745 298 759 q 338 731 315 731 q 368 757 351 731 q 400 817 386 783 q 425 887 415 852 q 436 941 436 923 "},"s":{"x_min":28,"x_max":514,"ha":531,"o":"m 280 681 q 194 670 239 681 q 112 637 150 660 q 51 577 75 614 q 28 489 28 540 q 53 396 28 430 q 116 341 78 362 q 199 306 154 319 q 281 275 243 293 q 344 232 319 258 q 370 159 370 205 q 363 125 370 144 q 340 91 356 107 q 302 64 325 75 q 246 53 279 53 q 173 66 206 53 q 117 80 140 80 q 89 75 101 80 q 76 50 76 69 q 94 19 76 32 q 136 0 111 7 q 189 -11 161 -8 q 239 -15 217 -15 q 360 0 308 -15 q 446 38 411 14 q 497 94 480 62 q 514 160 514 126 q 488 265 514 226 q 427 327 463 304 q 346 363 390 350 q 265 392 302 376 q 204 433 229 408 q 179 505 179 458 q 191 549 179 532 q 221 575 204 565 q 255 589 238 585 q 280 593 272 593 q 328 588 309 593 q 371 583 347 583 q 407 590 391 583 q 422 615 422 596 q 406 644 422 632 q 367 664 390 656 q 320 676 344 672 q 280 681 296 681 "},"B":{"x_min":63,"x_max":772,"ha":794,"o":"m 728 770 q 700 886 728 841 q 625 955 672 930 q 516 990 579 980 q 386 1000 454 1000 l 196 1000 q 93 967 124 1000 q 63 868 63 934 l 63 181 q 72 82 63 119 q 97 28 81 46 q 138 5 114 10 q 194 1 162 1 l 336 1 q 444 5 390 1 q 546 20 498 10 q 631 46 594 30 q 692 85 669 62 q 715 106 701 94 q 741 139 728 119 q 762 191 753 160 q 772 266 772 221 q 751 365 772 327 q 707 429 731 402 q 663 478 683 456 q 643 531 643 501 q 656 599 643 576 q 685 642 669 622 q 714 690 701 663 q 728 770 728 717 m 196 291 q 243 431 196 394 q 386 468 290 468 q 515 449 465 468 q 592 404 565 431 q 629 346 619 377 q 639 290 639 315 q 614 197 639 234 q 552 139 590 161 q 466 109 514 118 q 372 100 418 100 q 234 147 273 100 q 196 291 196 194 m 196 739 q 209 816 196 784 q 245 865 222 847 q 298 891 268 883 q 359 899 328 899 q 475 882 430 899 q 546 841 519 865 q 582 787 572 816 q 592 733 592 758 q 579 668 592 698 q 538 616 566 638 q 465 581 510 594 q 358 568 421 568 q 292 577 322 568 q 241 605 262 586 q 207 657 219 625 q 196 739 196 690 "},"…":{"x_min":72.234375,"x_max":581.984375,"ha":649,"o":"m 194 55 q 175 101 194 82 q 131 120 155 120 q 88 100 105 120 q 72 55 72 80 q 90 14 72 32 q 131 -4 108 -4 q 175 14 155 -4 q 194 55 194 32 m 581 55 q 562 101 581 82 q 519 120 543 120 q 476 100 493 120 q 459 55 459 80 q 477 14 459 32 q 519 -4 495 -4 q 562 14 543 -4 q 581 55 581 32 m 387 55 q 368 101 387 82 q 325 120 348 120 q 281 100 298 120 q 265 55 265 80 q 283 14 265 32 q 325 -4 301 -4 q 368 14 348 -4 q 387 55 387 32 "},"?":{"x_min":40.078125,"x_max":592,"ha":676,"o":"m 592 767 q 569 865 592 822 q 508 940 547 909 q 417 989 469 972 q 306 1007 366 1007 q 191 986 241 1007 q 108 937 141 965 q 57 880 74 909 q 40 835 40 851 q 53 792 40 804 q 85 781 66 781 q 138 797 116 781 q 181 833 159 814 q 231 869 203 852 q 301 886 258 886 q 374 870 344 886 q 421 832 404 855 q 446 783 438 809 q 454 735 454 756 q 423 633 454 679 q 356 547 392 588 q 290 468 320 506 q 259 387 259 430 q 269 341 259 362 q 303 320 278 320 q 342 338 327 320 q 370 382 356 356 q 400 438 384 408 q 441 494 416 469 q 480 531 455 508 q 530 590 505 555 q 573 669 555 624 q 592 767 592 713 m 295 4 q 342 21 325 4 q 359 62 359 39 q 343 104 359 85 q 295 123 327 123 q 253 104 268 123 q 238 62 238 85 q 251 21 238 39 q 295 4 263 4 "},"H":{"x_min":61,"x_max":868,"ha":915,"o":"m 190 813 q 187 870 190 839 q 178 927 185 901 q 159 970 171 953 q 124 988 147 988 q 72 944 84 988 q 61 832 61 900 l 61 152 q 63 95 61 122 q 73 47 66 67 q 92 15 80 27 q 124 4 105 4 q 176 49 162 4 q 190 166 190 95 l 190 234 q 196 326 190 284 q 221 398 202 368 q 274 444 240 428 q 365 460 308 460 l 572 460 q 657 446 625 460 q 708 406 690 432 q 732 342 726 380 q 739 257 739 304 l 739 166 q 742 87 739 118 q 754 37 745 55 q 775 10 762 18 q 804 3 787 3 q 854 41 840 3 q 868 164 868 80 l 868 856 q 855 950 868 910 q 802 990 843 990 q 767 975 780 990 q 748 936 754 960 q 740 881 741 912 q 739 818 739 851 q 734 726 739 771 q 715 648 730 682 q 669 593 700 614 q 586 573 638 573 l 358 573 q 269 593 302 573 q 218 646 235 613 q 195 722 201 679 q 190 813 190 765 "},"î":{"x_min":4.171875,"x_max":301.40625,"ha":303,"o":"m 215 540 q 212 578 215 556 q 203 619 210 599 q 185 651 196 638 q 153 665 173 665 q 124 651 135 665 q 107 619 113 638 q 99 578 101 599 q 97 540 97 556 l 97 112 q 99 79 97 98 q 107 44 101 60 q 124 15 113 27 q 153 4 135 4 q 183 15 171 4 q 202 42 195 26 q 212 78 209 59 q 215 112 215 97 l 215 540 m 291 763 q 301 775 301 763 q 286 812 301 787 q 249 860 272 836 q 199 902 226 884 q 145 921 172 921 q 93 902 118 921 q 47 859 68 883 q 15 810 27 835 q 4 772 4 785 q 9 763 4 763 q 47 776 30 763 q 80 806 65 790 q 111 836 95 822 q 145 850 127 850 q 179 836 162 850 q 215 806 197 822 q 252 776 233 790 q 291 763 270 763 "},"c":{"x_min":32,"x_max":546.3125,"ha":589,"o":"m 546 601 q 526 636 546 622 q 481 658 507 649 q 428 670 456 666 q 387 675 401 675 q 260 653 324 675 q 145 588 196 631 q 63 480 94 545 q 32 327 32 415 q 46 226 32 271 q 80 150 61 182 q 116 100 98 119 q 142 75 135 82 q 173 48 151 64 q 224 19 194 33 q 293 -5 254 4 q 378 -15 332 -15 q 426 -11 399 -15 q 478 0 453 -8 q 520 23 503 8 q 537 60 537 37 q 521 91 537 83 q 481 99 504 99 q 429 94 456 99 q 387 89 403 89 q 301 107 343 89 q 226 157 258 125 q 175 231 194 188 q 156 323 156 273 q 174 422 156 377 q 222 500 192 468 q 294 550 253 533 q 382 568 336 568 q 442 562 417 568 q 490 556 467 556 q 533 568 521 556 q 546 601 546 580 "},"¶":{"x_min":75,"x_max":672,"ha":801,"o":"m 672 -136 l 672 726 q 648 781 672 764 q 590 799 624 799 l 358 799 q 220 786 274 799 q 132 746 165 774 q 87 673 99 718 q 75 563 75 628 q 95 460 75 500 q 147 395 115 420 q 217 361 179 371 q 292 352 256 352 q 318 333 310 352 q 326 289 326 314 l 326 -135 q 341 -190 326 -163 q 384 -218 356 -218 q 424 -190 413 -218 q 436 -136 436 -163 l 436 561 q 456 633 436 600 q 504 667 476 667 q 545 636 526 667 q 564 561 564 605 l 564 -136 q 579 -191 564 -165 q 619 -218 594 -218 q 661 -192 651 -218 q 672 -136 672 -166 m 327 565 q 309 508 327 536 q 259 481 291 481 q 207 508 225 481 q 190 565 190 536 q 194 595 190 579 q 209 627 199 612 q 231 651 219 641 q 260 661 243 661 q 289 651 277 661 q 310 627 302 641 q 322 595 318 612 q 327 565 327 579 "},"•":{"x_min":44.453125,"x_max":350.03125,"ha":386,"o":"m 350 462 q 338 521 350 493 q 307 569 327 548 q 259 602 287 590 q 197 614 231 614 q 86 570 127 614 q 44 462 44 526 q 87 353 44 397 q 197 310 130 310 q 306 353 262 310 q 350 462 350 396 m 222 462 q 214 443 222 451 q 195 434 206 434 q 177 443 184 434 q 169 462 169 451 q 177 481 169 473 q 195 488 184 488 q 214 481 206 488 q 222 462 222 473 "},"¥":{"x_min":-5.96875,"x_max":739.75,"ha":733,"o":"m 153 497 q 87 483 116 497 q 57 445 57 470 q 87 412 57 422 q 153 403 117 403 l 289 403 q 298 363 295 382 q 301 325 301 344 l 301 303 l 151 303 q 84 289 113 303 q 55 251 55 276 q 85 219 55 229 q 151 209 114 209 l 301 209 l 301 103 q 319 31 301 59 q 364 4 337 4 q 413 36 396 4 q 430 107 430 68 l 430 209 l 575 209 q 643 220 611 209 q 674 251 674 232 q 643 289 674 276 q 575 303 611 303 l 430 303 l 430 336 q 439 403 430 369 l 578 403 q 645 414 614 403 q 677 445 677 426 q 645 483 677 470 q 578 497 614 497 l 477 497 q 555 623 511 561 l 674 798 q 721 874 703 840 q 739 929 739 908 q 724 967 739 959 q 696 975 709 975 q 622 938 656 975 q 557 851 588 901 l 520 787 q 486 733 503 760 q 452 687 470 707 q 414 656 434 668 q 374 645 395 645 q 328 656 349 645 q 289 688 307 668 q 255 733 271 707 q 223 788 238 760 l 188 847 q 123 941 157 901 q 39 981 88 981 q 3 962 12 981 q -5 925 -5 944 q 13 865 -5 901 q 64 785 32 829 l 180 618 q 252 497 220 558 l 153 497 "},"(":{"x_min":111,"x_max":328.734375,"ha":431,"o":"m 328 958 q 300 995 328 995 q 262 970 282 995 q 220 904 241 946 q 179 808 199 862 q 144 695 159 754 q 119 575 128 636 q 111 461 111 515 q 131 248 111 352 q 180 62 151 144 q 244 -70 210 -19 q 303 -121 277 -121 q 321 -110 316 -121 q 325 -84 325 -100 q 305 -21 325 -62 q 259 85 284 19 q 214 246 235 151 q 194 471 194 341 q 214 638 194 555 q 261 787 235 721 q 307 900 287 854 q 328 958 328 946 "},"U":{"x_min":51,"x_max":841,"ha":885,"o":"m 182 457 l 182 805 q 179 866 182 835 q 169 923 176 897 q 149 967 162 950 q 119 985 137 985 q 83 969 96 985 q 62 929 70 954 q 53 872 55 904 q 51 805 51 840 l 51 418 q 87 203 51 287 q 180 71 123 119 q 306 3 237 22 q 441 -15 375 -15 q 576 3 505 -15 q 705 70 646 21 q 802 207 764 119 q 841 434 841 294 l 841 805 q 838 869 841 837 q 829 926 836 901 q 809 967 822 951 q 774 983 796 983 q 742 965 754 983 q 722 922 729 948 q 712 865 715 896 q 710 805 710 834 l 710 413 q 690 279 710 336 q 636 184 671 222 q 552 128 601 147 q 444 110 502 110 q 317 135 368 110 q 236 207 266 161 q 194 316 207 253 q 182 457 182 380 "},"Ñ":{"x_min":51,"x_max":939,"ha":999,"o":"m 607 432 l 362 813 q 296 909 322 875 q 249 957 270 942 q 206 977 227 974 q 152 980 184 980 q 94 963 114 980 q 63 920 73 946 q 52 860 53 894 q 51 795 51 827 l 51 121 q 66 37 51 70 q 113 5 81 5 q 147 18 134 5 q 166 50 159 31 q 176 91 173 70 q 179 131 179 113 l 179 495 q 197 635 179 595 q 247 675 215 675 q 309 645 276 675 q 376 562 342 614 l 662 113 q 705 51 686 75 q 745 12 725 27 q 786 -7 765 -1 q 834 -13 807 -13 q 886 -2 865 -13 q 918 25 907 7 q 934 66 929 43 q 939 114 939 89 l 939 794 q 925 913 939 866 q 873 960 911 960 q 823 923 837 960 q 810 838 810 885 l 811 602 q 809 471 811 525 q 799 383 807 417 q 778 333 791 349 q 741 317 764 317 q 675 347 707 317 q 607 432 643 377 m 632 1129 q 577 1133 602 1125 q 528 1152 552 1141 q 476 1172 504 1163 q 413 1175 448 1180 q 361 1148 373 1168 q 351 1108 348 1127 q 363 1087 354 1091 q 384 1086 372 1083 q 409 1092 397 1088 q 436 1098 422 1095 q 498 1095 473 1104 q 545 1076 523 1087 q 591 1057 568 1065 q 651 1054 615 1048 q 694 1075 675 1057 q 709 1122 713 1094 q 700 1141 707 1137 q 683 1144 694 1145 q 659 1136 672 1141 q 632 1129 645 1132 "},"F":{"x_min":78,"x_max":660.8125,"ha":658,"o":"m 660 925 q 623 971 660 961 q 514 981 585 981 l 217 981 q 156 975 181 981 q 112 955 130 969 q 86 914 94 940 q 78 844 78 887 l 78 124 q 95 29 78 58 q 140 1 112 1 q 191 31 176 1 q 207 126 207 62 l 207 209 q 218 321 207 280 q 253 386 230 362 q 333 418 280 412 q 466 424 387 424 l 502 424 q 546 426 523 424 q 587 434 569 428 q 619 451 606 440 q 631 479 631 461 q 620 506 631 496 q 590 522 609 516 q 548 529 571 527 q 499 532 524 532 l 414 532 q 308 543 346 532 q 245 580 270 555 q 212 643 217 608 q 208 711 208 679 q 225 798 208 766 q 270 846 242 830 q 332 866 298 862 q 399 871 366 871 l 520 871 q 571 873 545 871 q 616 880 596 875 q 648 896 635 886 q 660 925 660 907 "},":":{"x_min":128,"x_max":249,"ha":367,"o":"m 249 103 q 235 145 249 122 q 189 168 221 168 q 143 148 159 168 q 128 103 128 128 q 145 66 128 83 q 189 49 162 49 q 233 68 217 49 q 249 103 249 87 m 248 577 q 234 620 248 597 q 189 643 221 643 q 143 622 159 643 q 128 577 128 602 q 145 540 128 558 q 189 523 162 523 q 232 542 216 523 q 248 577 248 562 "},"Û":{"x_min":51,"x_max":841,"ha":885,"o":"m 182 457 l 182 805 q 179 866 182 835 q 169 923 176 897 q 149 967 162 950 q 119 985 137 985 q 83 969 96 985 q 62 929 70 954 q 53 872 55 904 q 51 805 51 840 l 51 418 q 87 203 51 287 q 180 71 123 119 q 306 3 237 22 q 441 -15 375 -15 q 576 3 505 -15 q 705 70 646 21 q 802 207 764 119 q 841 435 841 294 l 841 805 q 838 869 841 837 q 829 926 836 901 q 809 967 822 951 q 774 983 796 983 q 742 966 754 983 q 722 923 729 948 q 712 866 715 897 q 710 805 710 835 l 710 414 q 690 279 710 336 q 636 185 671 222 q 552 128 601 147 q 444 110 502 110 q 317 135 368 110 q 236 207 266 161 q 194 316 207 253 q 182 457 182 380 m 579 1021 q 588 1033 588 1021 q 574 1070 588 1045 q 536 1118 559 1094 q 486 1160 513 1142 q 433 1179 459 1179 q 380 1160 405 1179 q 335 1117 355 1141 q 303 1068 315 1093 q 291 1030 291 1043 q 297 1021 291 1021 q 335 1034 318 1021 q 368 1064 352 1048 q 399 1094 383 1080 q 433 1108 415 1108 q 467 1094 450 1108 q 502 1064 484 1080 q 539 1034 520 1048 q 579 1021 558 1021 "},"*":{"x_min":105.5625,"x_max":455.59375,"ha":574,"o":"m 280 913 q 259 903 269 913 q 237 880 248 893 q 215 853 226 867 q 194 835 204 840 q 170 826 186 830 q 140 815 155 821 q 115 804 126 810 q 105 790 105 798 q 111 757 105 769 q 125 736 116 746 q 141 714 133 726 q 155 681 150 702 q 158 652 158 670 q 159 619 158 636 q 165 590 161 602 q 184 579 170 579 q 219 586 200 579 q 276 594 238 594 q 336 584 313 594 q 375 574 359 574 q 393 587 387 574 q 400 618 398 600 q 402 655 401 636 q 406 687 402 675 q 420 715 412 703 q 436 737 429 726 q 450 760 444 749 q 455 785 455 771 q 443 800 455 793 q 413 814 430 807 q 380 828 397 821 q 355 843 363 835 q 336 864 345 851 q 316 887 326 876 q 297 905 306 897 q 280 913 288 913 "},"†":{"x_min":76.390625,"x_max":715.328125,"ha":801,"o":"m 490 781 q 447 858 456 815 q 434 938 437 901 q 423 1002 430 976 q 390 1029 416 1029 q 364 1002 369 1029 q 355 938 359 976 q 340 857 351 899 q 297 783 329 815 q 231 749 269 755 q 158 741 193 742 q 100 735 123 740 q 76 705 76 730 q 100 673 76 678 q 160 665 125 667 q 236 653 195 662 q 309 612 277 644 q 331 556 323 598 q 345 452 340 513 q 354 318 351 391 q 361 170 358 245 q 366 26 363 95 q 374 -97 369 -43 q 386 -184 379 -151 q 406 -217 394 -217 q 424 -184 418 -217 q 434 -97 430 -151 q 438 26 437 -43 q 439 171 438 96 q 441 318 440 245 q 445 451 441 391 q 457 554 450 512 q 477 609 465 597 q 550 649 508 640 q 627 662 591 659 q 689 672 663 666 q 715 699 715 677 q 689 733 715 726 q 627 742 663 740 q 553 751 591 745 q 490 781 515 758 "},"\u001e":{"x_min":17,"x_max":731,"ha":757,"o":"m 731 909 q 719 959 731 940 q 681 986 707 977 q 614 998 656 995 q 513 1001 572 1001 l 286 1000 q 176 998 221 1000 q 104 990 132 997 q 64 973 76 984 q 51 941 51 962 q 65 912 51 923 q 97 895 78 900 q 136 888 115 889 q 174 887 157 887 l 303 887 q 379 884 344 887 q 440 871 414 881 q 480 843 465 862 q 495 795 495 825 q 474 734 495 771 q 415 648 453 696 l 110 262 q 43 168 69 211 q 17 90 17 125 q 28 42 17 60 q 62 14 39 23 q 122 1 86 4 q 207 -1 158 -1 l 502 -1 q 664 7 610 -1 q 718 51 718 15 q 706 82 718 71 q 674 99 695 93 q 625 107 653 105 q 565 110 597 110 l 432 110 q 363 112 396 110 q 306 123 331 115 q 266 148 281 132 q 252 190 252 164 q 275 267 252 229 q 339 355 299 305 l 647 744 q 708 832 685 793 q 731 909 731 872 m 246 1225 q 236 1212 236 1225 q 250 1175 236 1200 q 288 1127 265 1151 q 338 1085 311 1103 q 391 1067 365 1067 q 443 1085 418 1067 q 489 1128 469 1104 q 521 1177 509 1152 q 533 1215 533 1202 q 527 1225 533 1225 q 489 1211 507 1225 q 457 1181 472 1197 q 425 1151 441 1165 q 391 1138 409 1138 q 357 1151 375 1138 q 322 1181 340 1165 q 285 1211 304 1197 q 246 1225 266 1225 "},"V":{"x_min":-9.71875,"x_max":813.953125,"ha":808,"o":"m 166 821 q 129 907 147 875 q 96 955 112 939 q 68 976 80 972 q 47 981 55 981 q 4 969 19 981 q -9 929 -9 957 q -4 892 -9 914 q 11 842 0 871 l 280 133 q 297 88 288 112 q 320 44 306 64 q 354 12 334 25 q 405 -1 375 -1 q 472 36 447 -1 q 518 126 497 73 l 784 809 q 805 871 797 841 q 813 925 813 901 q 804 963 813 948 q 770 978 794 978 q 737 964 752 978 q 709 930 722 951 q 684 882 695 909 q 662 827 672 855 l 519 434 q 502 396 513 418 q 477 352 491 373 q 447 317 463 332 q 412 302 430 302 q 370 319 388 302 q 337 359 351 336 q 313 407 323 382 q 295 452 302 433 l 166 821 "},"å":{"x_min":23,"x_max":611,"ha":647,"o":"m 611 393 q 547 600 611 530 q 365 670 483 670 q 256 660 305 670 q 174 637 208 650 q 121 611 140 623 q 103 594 103 598 q 109 588 103 590 q 119 586 115 586 q 190 600 144 586 q 306 614 235 614 q 354 606 326 614 q 408 582 383 598 q 453 542 434 566 q 472 486 472 518 q 456 433 472 455 q 416 395 440 411 q 363 372 392 380 q 309 365 334 365 q 211 357 262 365 q 118 329 160 349 q 50 272 77 308 q 23 177 23 236 q 47 83 23 119 q 102 28 71 48 q 165 3 134 9 q 212 -3 196 -3 q 248 0 227 -3 q 291 10 269 3 q 333 26 313 16 q 366 49 352 35 q 298 51 334 45 q 231 74 262 58 q 181 119 201 91 q 161 184 161 147 q 183 255 161 226 q 235 303 205 284 q 294 331 265 322 q 337 340 323 340 q 379 332 355 340 q 426 307 404 323 q 463 269 448 291 q 478 218 478 247 q 467 158 478 186 q 443 110 457 131 q 417 74 430 88 q 400 56 404 60 q 430 38 411 45 q 468 28 448 31 q 505 23 487 24 q 532 22 522 22 l 533 22 q 593 50 576 22 q 611 113 611 79 l 611 393 m 349 924 q 286 901 309 924 q 264 843 264 879 q 271 807 264 828 q 291 767 279 786 q 319 736 304 749 q 349 724 334 724 q 381 737 363 724 q 413 771 398 751 q 437 811 427 790 q 447 847 447 832 q 418 902 447 880 q 349 924 390 924 m 316 830 q 327 857 316 845 q 350 868 338 868 q 375 857 362 868 q 388 827 388 845 q 376 804 388 815 q 350 793 363 793 q 326 803 336 793 q 316 830 316 813 "}," ":{"x_min":0,"x_max":0,"ha":313},"0":{"x_min":57,"x_max":782,"ha":833,"o":"m 782 484 q 763 689 782 593 q 701 858 744 786 q 588 972 658 930 q 415 1014 518 1014 q 250 973 318 1014 q 138 862 182 933 q 76 694 95 791 q 57 484 57 597 q 83 258 57 352 q 157 103 109 163 q 270 14 204 42 q 415 -14 336 -14 q 560 13 493 -14 q 677 101 627 41 q 754 255 726 161 q 782 484 782 349 m 175 484 q 185 628 175 555 q 222 762 195 701 q 296 860 249 822 q 415 899 342 899 q 533 860 485 899 q 610 762 581 822 q 652 629 640 703 q 665 484 665 555 q 652 344 665 414 q 610 220 640 275 q 533 133 581 166 q 415 100 485 100 q 302 131 348 100 q 228 215 256 162 q 187 337 199 268 q 175 484 175 407 "},"”":{"x_min":93.0625,"x_max":513.9375,"ha":601,"o":"m 230 953 q 186 1002 230 1002 q 145 977 162 1002 q 115 920 127 953 q 98 855 104 887 q 93 805 93 822 q 133 742 93 742 q 163 768 145 742 q 195 829 180 794 q 220 899 209 864 q 230 953 230 935 m 513 951 q 503 992 513 982 q 469 1002 493 1002 q 429 977 445 1002 q 400 920 412 953 q 383 855 388 887 q 377 805 377 822 q 416 742 377 742 q 447 768 430 742 q 478 829 463 794 q 503 899 493 864 q 513 951 513 933 "},"@":{"x_min":132,"x_max":1172,"ha":1271,"o":"m 778 733 q 741 735 757 733 q 708 741 724 738 q 672 747 691 744 q 627 750 653 750 q 511 722 562 750 q 426 648 461 695 q 374 539 391 601 q 357 405 357 476 q 363 337 357 376 q 390 264 370 298 q 445 205 409 229 q 538 181 481 181 q 597 187 576 181 q 634 201 619 193 q 664 215 649 208 q 701 221 679 221 l 702 221 q 756 214 733 221 q 803 199 780 207 q 851 183 826 190 q 912 177 877 177 q 951 183 933 177 q 985 200 970 190 q 1010 221 1001 210 q 1019 239 1019 232 q 948 251 976 239 q 904 287 920 263 q 881 343 887 311 q 875 416 875 376 q 880 486 875 455 q 893 543 885 516 q 906 599 901 570 q 912 662 912 627 q 888 719 912 706 q 821 733 864 733 l 778 733 m 454 455 q 471 560 454 515 q 516 635 488 605 q 578 679 544 664 q 646 694 612 694 q 713 672 682 694 q 765 617 744 651 q 799 544 787 584 q 812 465 812 503 q 795 395 812 434 q 755 320 778 355 q 708 262 732 286 q 667 239 684 239 q 564 258 605 239 q 498 309 523 277 q 463 379 473 340 q 454 455 454 417 m 899 944 q 878 964 887 952 q 848 988 869 976 q 788 1008 827 1000 q 674 1017 748 1017 q 474 988 559 1017 q 329 913 390 960 q 231 807 269 867 q 170 689 193 748 q 140 576 148 630 q 132 482 132 521 q 140 370 132 430 q 172 250 149 310 q 234 135 195 190 q 333 36 273 79 q 477 -32 394 -6 q 671 -58 560 -58 l 703 -58 q 745 -54 727 -58 q 763 -44 763 -51 q 742 -37 759 -39 q 706 -32 726 -34 q 671 -30 687 -31 q 656 -30 656 -30 q 459 8 546 -30 q 310 116 371 47 q 215 278 248 185 q 183 478 183 371 q 195 612 183 544 q 235 741 208 679 q 307 854 263 802 q 413 940 351 905 q 528 975 463 968 q 669 982 594 982 q 755 972 706 982 q 855 943 803 963 q 955 891 906 923 q 1042 814 1003 859 q 1105 709 1081 769 q 1129 570 1129 648 q 1124 494 1129 527 q 1115 436 1120 461 q 1105 393 1109 411 q 1101 366 1101 376 q 1116 352 1101 352 q 1134 369 1124 352 q 1152 415 1144 386 q 1166 486 1160 445 q 1172 573 1172 526 q 1137 752 1172 680 q 1058 866 1103 823 q 967 926 1012 908 q 899 944 922 944 "},"ö":{"x_min":11,"x_max":722,"ha":735,"o":"m 722 330 q 692 478 722 413 q 612 587 662 543 q 499 655 563 632 q 365 678 434 678 q 233 654 297 678 q 120 586 169 630 q 40 477 70 541 q 11 330 11 412 q 39 187 11 251 q 116 78 67 123 q 229 10 165 34 q 365 -13 294 -13 q 513 15 447 -13 q 625 91 578 44 q 697 201 672 139 q 722 330 722 263 m 136 330 q 153 425 136 380 q 201 502 170 469 q 274 554 231 535 q 365 574 316 574 q 454 556 412 574 q 527 506 495 539 q 577 429 558 473 q 596 330 596 384 q 576 234 596 277 q 525 160 557 191 q 451 111 493 128 q 365 94 409 94 q 270 114 312 94 q 197 169 227 135 q 151 244 167 202 q 136 330 136 287 m 518 864 q 477 848 490 864 q 463 813 463 833 q 477 775 463 792 q 518 758 491 758 q 561 775 545 758 q 577 813 577 792 q 563 848 577 833 q 518 864 550 864 m 213 864 q 172 848 186 864 q 159 813 159 833 q 173 775 159 792 q 213 758 187 758 q 256 775 241 758 q 272 813 272 792 q 258 848 272 833 q 213 864 244 864 "},"i":{"x_min":97,"x_max":215,"ha":303,"o":"m 215 540 q 212 578 215 556 q 203 619 210 599 q 185 651 196 638 q 153 665 173 665 q 124 651 135 665 q 107 619 113 638 q 99 578 101 599 q 97 540 97 556 l 97 112 q 99 79 97 98 q 107 44 101 60 q 124 15 113 27 q 153 4 135 4 q 183 15 171 4 q 202 42 195 26 q 212 78 209 59 q 215 112 215 97 l 215 540 m 153 868 q 192 883 177 868 q 208 918 208 899 q 194 954 208 938 q 153 970 180 970 q 114 954 127 970 q 101 918 101 938 q 113 883 101 899 q 153 868 126 868 "},"Õ":{"x_min":22,"x_max":1068,"ha":1075,"o":"m 1068 480 q 1024 725 1068 623 q 907 892 980 827 q 738 988 834 957 q 535 1019 641 1019 q 316 977 412 1019 q 155 862 220 935 q 56 692 90 789 q 22 480 22 594 q 58 287 22 379 q 160 126 94 195 q 322 15 227 56 q 535 -25 417 -25 q 747 11 649 -25 q 915 113 844 47 q 1027 272 987 179 q 1068 480 1068 365 m 161 480 q 192 664 161 584 q 276 798 224 744 q 396 880 328 852 q 535 908 464 908 q 691 879 619 908 q 816 796 763 851 q 899 661 868 741 q 930 480 930 581 q 900 329 930 401 q 819 204 871 258 q 695 117 767 149 q 535 86 623 86 q 376 122 445 86 q 258 215 306 158 q 185 343 210 273 q 161 480 161 413 m 645 1190 q 591 1194 616 1186 q 542 1213 566 1202 q 490 1233 518 1225 q 427 1236 462 1241 q 375 1209 387 1229 q 365 1169 362 1188 q 377 1148 368 1152 q 398 1147 386 1144 q 423 1153 411 1150 q 450 1159 436 1157 q 512 1157 487 1165 q 559 1137 537 1148 q 605 1118 581 1126 q 665 1115 629 1109 q 708 1136 688 1118 q 723 1183 727 1155 q 714 1202 720 1198 q 697 1205 708 1207 q 672 1198 686 1202 q 645 1190 659 1193 "},"þ":{"x_min":67.453125,"x_max":776,"ha":797,"o":"m 471 690 q 373 674 414 691 q 300 639 331 658 q 248 608 270 620 q 207 609 225 596 q 193 651 196 616 q 192 732 191 685 q 195 831 193 778 q 194 929 196 884 q 182 1002 192 973 q 149 1032 171 1032 q 95 1007 117 1032 q 73 934 73 983 l 67 -189 q 68 -227 67 -207 q 75 -263 70 -246 q 93 -290 81 -280 q 126 -301 105 -301 q 157 -288 145 -301 q 175 -256 169 -275 q 183 -212 181 -237 q 186 -164 186 -188 l 186 -107 q 191 -53 186 -80 q 209 -7 197 -27 q 240 25 222 12 q 285 38 259 38 q 330 32 310 38 q 369 20 349 26 q 410 8 388 14 q 465 3 433 3 q 585 27 528 3 q 685 98 642 52 q 751 206 727 143 q 776 347 776 269 q 747 500 776 436 q 673 607 719 565 q 575 669 628 649 q 471 690 521 690 m 404 590 q 495 573 451 590 q 573 525 538 556 q 629 448 608 494 q 650 344 650 402 q 631 250 650 294 q 581 175 613 207 q 503 124 548 143 q 404 106 458 106 q 318 126 358 106 q 250 181 279 147 q 205 259 222 215 q 189 348 189 302 q 206 437 189 394 q 252 514 223 480 q 320 569 282 548 q 404 590 359 590 "},"]":{"x_min":132,"x_max":283,"ha":439,"o":"m 139 994 q 148 967 139 981 q 170 932 158 953 q 191 878 181 910 q 201 796 201 845 l 201 16 q 201 12 201 12 q 189 -64 201 -34 q 166 -113 178 -94 q 143 -146 154 -133 q 132 -172 132 -159 q 195 -211 132 -211 q 268 -167 253 -211 q 283 -31 283 -124 l 283 856 q 282 923 283 891 q 274 979 281 955 q 249 1018 266 1003 q 199 1033 231 1033 q 150 1021 162 1033 q 139 994 139 1009 "},"m":{"x_min":48,"x_max":1097,"ha":1130,"o":"m 876 666 q 801 654 828 666 q 752 631 773 643 q 711 608 731 619 q 659 597 691 597 q 601 608 628 597 q 546 631 574 619 q 489 654 519 643 q 421 666 459 666 q 358 658 384 666 q 313 642 332 650 q 276 626 293 634 q 238 619 259 619 q 205 621 218 619 q 178 628 191 624 q 152 634 166 631 q 123 637 139 637 q 63 606 78 637 q 48 521 48 575 l 48 97 q 63 24 48 48 q 106 0 78 0 q 150 29 135 0 q 165 99 165 59 l 165 292 q 175 396 165 347 q 207 483 185 445 q 261 542 229 520 q 334 565 293 565 q 401 553 369 565 q 458 513 433 542 q 498 435 483 484 q 513 312 513 387 l 513 104 q 528 29 513 58 q 571 0 543 0 q 618 29 604 0 q 632 104 632 59 l 632 309 q 639 396 632 351 q 665 479 647 441 q 715 540 684 516 q 790 564 745 564 q 880 542 844 564 q 939 484 917 520 q 970 400 961 448 q 980 298 980 352 l 981 93 q 993 29 981 58 q 1034 0 1006 0 q 1082 32 1067 0 q 1097 102 1097 65 l 1097 385 q 1083 490 1097 439 q 1043 579 1070 541 q 974 642 1016 618 q 876 666 933 666 "},"8":{"x_min":39,"x_max":673,"ha":716,"o":"m 636 780 q 606 892 636 848 q 534 963 577 937 q 442 1000 491 990 q 354 1011 392 1011 q 257 999 308 1011 q 165 958 206 987 q 95 880 123 929 q 68 758 68 831 q 79 690 68 715 q 105 645 91 666 q 131 596 119 623 q 143 519 143 569 q 127 464 143 488 q 91 412 111 440 q 54 348 70 384 q 39 258 39 312 q 59 153 39 202 q 120 66 80 104 q 219 7 159 29 q 356 -14 278 -14 q 497 11 438 -14 q 596 75 557 36 q 654 163 635 115 q 673 258 673 212 q 655 354 673 316 q 617 420 638 392 q 578 472 596 448 q 561 524 561 495 q 572 587 561 562 q 598 637 584 612 q 624 695 612 662 q 636 780 636 727 m 161 294 q 176 373 161 338 q 218 432 191 408 q 279 469 244 456 q 355 483 315 483 q 437 468 401 483 q 498 428 473 453 q 536 368 523 402 q 549 295 549 334 q 537 232 549 266 q 503 169 526 198 q 445 121 480 140 q 362 103 409 103 q 274 118 312 103 q 211 161 236 134 q 173 222 186 187 q 161 294 161 256 m 190 749 q 201 808 190 779 q 235 863 213 838 q 285 902 256 887 q 349 918 315 918 q 418 904 387 918 q 470 865 448 890 q 502 810 491 841 q 514 745 514 779 q 498 674 514 704 q 457 624 482 644 q 405 595 433 605 q 354 586 377 586 q 298 596 327 586 q 245 627 269 606 q 205 679 221 648 q 190 749 190 709 "},"R":{"x_min":64,"x_max":758,"ha":783,"o":"m 758 712 q 737 819 758 775 q 683 894 717 864 q 606 941 649 924 q 514 967 562 958 q 417 978 466 976 q 326 981 369 981 l 205 981 q 143 976 169 981 q 98 954 116 972 q 72 901 80 936 q 64 803 64 865 l 64 129 q 83 36 64 67 q 130 6 102 6 q 176 36 160 6 q 192 150 192 67 l 192 217 q 196 284 192 249 q 213 350 200 319 q 252 400 226 381 q 320 420 277 420 q 383 404 355 420 q 433 363 411 388 q 474 309 456 339 q 508 251 492 279 l 580 112 q 638 26 607 57 q 704 -4 668 -4 q 742 7 732 -4 q 752 37 752 19 q 742 84 752 59 q 721 123 732 108 l 656 226 q 613 306 631 264 q 596 385 596 348 q 608 435 596 412 q 638 477 620 457 q 676 518 656 497 q 715 566 697 539 q 745 628 733 593 q 758 712 758 664 m 195 694 q 238 840 195 800 q 382 881 282 881 q 405 880 386 881 q 449 874 423 879 q 504 858 475 869 q 557 828 533 847 q 598 778 582 808 q 614 706 614 749 q 598 635 614 664 q 559 587 583 607 q 505 557 534 568 q 448 540 475 546 q 398 532 421 533 q 367 531 376 531 q 237 575 279 531 q 195 694 195 619 "},"á":{"x_min":23.953125,"x_max":627,"ha":663,"o":"m 344 696 q 306 692 328 696 q 262 683 285 689 q 221 671 240 677 q 189 658 201 665 q 169 642 173 650 q 164 627 164 634 q 166 616 164 620 q 168 608 168 611 l 167 607 q 240 611 204 608 q 310 615 276 615 q 402 599 362 615 q 462 531 442 583 q 470 509 467 520 q 474 487 474 498 q 462 451 474 467 q 410 408 443 420 q 339 391 378 395 q 262 386 301 387 q 189 376 222 384 q 122 344 154 368 q 71 295 90 320 q 44 259 58 280 q 26 214 29 237 q 24 200 25 207 q 23 187 23 194 q 42 109 23 142 q 89 55 60 76 q 158 23 119 33 q 239 13 197 13 q 344 29 294 13 q 344 38 344 32 q 343 51 343 44 l 343 58 q 291 75 321 65 q 240 96 261 85 q 194 139 215 110 q 172 207 172 168 q 182 251 172 230 q 244 314 197 290 q 343 337 292 337 q 406 326 376 337 q 455 287 436 315 q 467 278 458 283 q 478 267 475 272 q 480 253 479 260 q 481 240 481 247 q 466 169 481 204 q 440 118 451 135 q 428 111 437 115 q 418 103 419 107 q 417 100 418 101 q 417 96 417 99 q 418 85 417 90 q 419 74 419 79 q 418 67 419 68 q 478 44 442 58 q 545 29 514 29 l 552 29 q 604 62 588 32 q 625 125 620 92 q 620 136 621 136 q 619 133 619 136 q 624 222 621 178 q 627 310 627 267 q 615 460 627 389 q 574 582 604 530 q 490 665 543 634 q 354 696 437 696 l 344 696 m 454 976 q 409 1025 454 1025 q 368 1000 386 1025 q 340 944 351 976 q 322 879 329 912 q 316 830 316 847 q 325 780 316 794 q 356 766 333 766 q 386 792 369 766 q 418 852 404 818 q 443 922 433 887 q 454 976 454 958 "},"×":{"x_min":15.421875,"x_max":518.234375,"ha":525,"o":"m 389 415 q 418 497 391 462 q 470 561 444 533 q 511 610 495 588 q 508 652 526 631 q 471 654 494 667 q 417 619 448 641 q 347 577 386 597 q 262 561 308 558 q 194 588 223 563 q 140 637 164 612 q 96 677 117 662 q 58 676 76 692 q 51 637 39 659 q 83 586 62 615 q 124 520 104 556 q 142 438 144 484 q 114 369 139 401 q 64 310 90 337 q 23 260 39 283 q 23 220 7 238 q 62 216 39 204 q 116 251 86 229 q 180 293 146 273 q 251 311 215 313 q 329 283 294 308 q 390 233 364 258 q 437 192 416 208 q 475 191 458 176 q 487 217 489 202 q 475 250 486 233 q 450 286 465 267 q 420 326 434 305 q 397 370 407 348 q 389 415 387 391 "},"o":{"x_min":11,"x_max":722,"ha":735,"o":"m 722 330 q 692 478 722 413 q 612 587 662 543 q 499 655 563 632 q 365 678 434 678 q 233 654 297 678 q 120 586 169 630 q 40 477 70 541 q 11 330 11 412 q 39 187 11 251 q 116 78 67 123 q 229 10 165 34 q 365 -13 294 -13 q 513 15 447 -13 q 625 91 578 44 q 697 201 672 139 q 722 330 722 263 m 136 330 q 153 425 136 380 q 201 502 170 469 q 274 554 231 535 q 365 574 316 574 q 454 556 412 574 q 527 506 495 539 q 577 429 558 473 q 596 330 596 384 q 576 234 596 277 q 525 160 557 191 q 451 111 493 128 q 365 94 409 94 q 270 114 312 94 q 197 169 227 135 q 151 244 167 202 q 136 330 136 287 "},"5":{"x_min":52.96875,"x_max":653,"ha":686,"o":"m 580 944 q 566 968 580 958 q 529 983 552 978 q 477 992 507 989 q 416 995 447 995 l 304 995 q 177 990 222 995 q 108 961 132 985 q 83 906 89 942 q 78 811 78 871 l 78 638 q 84 580 78 602 q 103 546 90 558 q 133 530 115 534 q 173 526 151 526 l 250 526 q 460 462 393 526 q 528 287 528 399 q 513 217 528 251 q 471 156 498 183 q 404 113 443 130 q 318 97 365 97 q 249 108 277 97 q 198 135 221 120 q 154 162 175 149 q 108 175 133 175 q 66 164 80 175 q 52 122 52 154 q 68 82 52 106 q 116 36 84 58 q 194 -2 147 13 q 305 -18 241 -18 q 456 9 391 -18 q 564 82 521 36 q 630 192 608 129 q 653 326 653 255 q 634 427 653 373 q 579 527 616 482 q 482 602 541 572 q 339 632 422 632 q 298 638 320 632 q 254 660 275 644 q 220 703 234 676 q 207 772 207 730 q 212 808 207 786 q 238 850 218 830 q 297 884 258 869 q 407 899 337 899 l 433 899 q 547 908 513 899 q 580 944 580 917 "},"õ":{"x_min":11,"x_max":722,"ha":735,"o":"m 722 330 q 692 478 722 413 q 612 587 662 543 q 499 655 563 632 q 365 678 434 678 q 233 654 297 678 q 120 586 169 630 q 40 477 70 541 q 11 330 11 412 q 39 187 11 251 q 116 78 67 123 q 229 10 165 34 q 365 -13 294 -13 q 513 15 447 -13 q 625 91 578 44 q 697 201 672 139 q 722 330 722 263 m 136 330 q 153 425 136 380 q 201 502 170 469 q 274 554 231 535 q 365 574 316 574 q 454 556 412 574 q 527 506 495 539 q 577 429 558 473 q 596 330 596 384 q 576 234 596 277 q 525 160 557 191 q 451 111 493 128 q 365 94 409 94 q 270 114 312 94 q 197 169 227 135 q 151 244 167 202 q 136 330 136 287 m 461 845 q 406 850 431 841 q 357 869 381 858 q 305 888 333 880 q 243 891 277 897 q 190 864 202 884 q 180 825 177 844 q 192 804 183 808 q 213 802 201 800 q 238 809 226 805 q 265 815 251 812 q 327 812 302 820 q 375 793 352 804 q 420 773 397 782 q 480 770 444 765 q 523 792 504 773 q 538 838 543 811 q 529 858 536 854 q 512 861 523 862 q 488 853 501 858 q 461 845 475 848 "},"7":{"x_min":25.1875,"x_max":638,"ha":649,"o":"m 508 1002 l 166 1002 q 126 1000 150 1002 q 80 992 102 999 q 41 974 57 986 q 25 943 25 962 q 36 913 25 923 q 64 897 47 902 q 101 890 80 891 q 141 889 122 889 l 308 889 q 365 883 339 889 q 411 864 391 877 q 441 829 430 851 q 453 777 453 808 q 448 747 453 763 q 436 712 443 730 q 421 676 429 694 q 404 641 412 658 l 155 130 q 139 98 148 118 q 130 61 130 79 q 138 18 130 36 q 173 0 146 0 q 231 20 208 0 q 279 93 254 40 l 562 690 q 615 808 592 753 q 638 913 638 863 q 598 982 638 963 q 508 1002 558 1002 "},"K":{"x_min":68,"x_max":808.9375,"ha":803,"o":"m 195 799 q 192 859 195 831 q 183 907 190 887 q 161 939 175 927 q 123 951 147 951 q 95 938 107 951 q 78 908 84 926 q 70 871 72 891 q 68 835 68 851 l 68 111 q 83 30 68 61 q 130 0 98 0 q 160 9 148 0 q 179 34 172 19 q 189 68 186 50 q 192 105 192 87 q 195 250 192 193 q 207 343 199 308 q 230 392 215 377 q 268 407 245 407 q 331 388 303 407 q 384 343 358 370 q 435 282 410 315 q 489 219 460 250 q 551 149 518 188 q 618 74 583 109 q 686 14 653 39 q 752 -11 720 -11 q 791 -4 774 -11 q 808 22 808 2 q 788 75 808 48 q 747 126 767 102 q 641 243 695 187 q 543 346 588 298 q 471 434 499 394 q 443 506 443 474 q 469 591 443 554 q 526 660 495 628 q 558 690 536 670 q 606 736 579 710 q 660 790 632 762 q 711 842 688 817 q 748 887 733 867 q 763 916 763 906 q 749 951 763 944 q 725 958 736 958 q 658 935 692 958 q 589 880 624 913 q 520 808 554 847 q 451 737 485 770 q 407 692 429 715 q 362 651 385 669 q 317 621 339 633 q 276 610 296 610 q 231 627 247 610 q 206 672 214 644 q 197 733 199 700 q 195 799 195 766 "},",":{"x_min":68.0625,"x_max":206.96875,"ha":275,"o":"m 104 -122 q 145 -93 126 -122 q 178 -28 165 -64 q 199 41 191 7 q 206 87 206 75 q 165 145 206 145 q 122 117 140 145 q 91 52 104 89 q 73 -21 79 15 q 68 -78 68 -59 q 77 -110 68 -98 q 104 -122 86 -122 "},"d":{"x_min":32,"x_max":743,"ha":795,"o":"m 743 130 l 743 902 q 736 971 743 945 q 721 1011 730 998 q 700 1028 712 1024 q 677 1033 688 1033 q 637 1005 652 1033 q 622 922 622 978 l 622 827 q 619 749 622 786 q 606 684 616 712 q 574 639 595 655 q 519 624 553 624 q 472 628 490 624 q 435 639 454 633 q 396 651 417 646 q 337 657 374 657 q 238 638 291 657 q 138 577 184 619 q 62 471 93 536 q 32 312 32 405 q 54 174 32 237 q 118 66 77 111 q 215 -4 158 21 q 341 -30 272 -30 q 411 -22 384 -30 q 458 -6 437 -14 q 499 10 479 2 q 552 18 520 18 q 596 15 583 18 q 618 8 609 12 q 636 2 626 5 q 666 0 645 0 q 724 33 706 0 q 743 130 743 67 m 156 307 q 176 410 156 364 q 229 488 196 457 q 305 538 262 520 q 394 557 348 557 q 493 532 451 557 q 563 469 535 507 q 605 389 591 432 q 619 312 619 347 q 602 223 619 266 q 555 147 585 180 q 485 94 526 114 q 398 74 445 74 q 306 91 350 74 q 229 139 262 108 q 176 214 196 171 q 156 307 156 257 "},"¨":{"x_min":169.453125,"x_max":587.546875,"ha":703,"o":"m 527 998 q 486 982 500 998 q 473 947 473 967 q 487 909 473 926 q 527 892 501 892 q 571 909 555 892 q 587 947 587 926 q 573 982 587 967 q 527 998 559 998 m 223 997 q 182 982 195 997 q 169 947 169 967 q 183 909 169 926 q 223 892 197 892 q 266 909 251 892 q 281 947 281 926 q 268 982 281 967 q 223 997 254 997 "},"Ô":{"x_min":22,"x_max":1068,"ha":1075,"o":"m 1068 480 q 1024 725 1068 623 q 907 892 980 827 q 738 988 834 957 q 535 1019 641 1019 q 316 977 412 1019 q 155 862 220 935 q 56 692 90 789 q 22 480 22 594 q 58 287 22 379 q 160 126 94 195 q 322 15 227 56 q 535 -25 417 -25 q 747 11 649 -25 q 915 113 844 47 q 1027 272 987 179 q 1068 480 1068 365 m 161 480 q 192 664 161 584 q 276 798 224 744 q 396 880 328 852 q 535 908 464 908 q 691 879 619 908 q 816 796 763 851 q 899 661 868 741 q 930 480 930 581 q 900 329 930 401 q 819 204 871 258 q 695 117 767 149 q 535 86 623 86 q 376 122 445 86 q 258 215 306 158 q 185 343 210 273 q 161 480 161 413 m 686 1106 q 695 1118 695 1106 q 681 1155 695 1130 q 643 1203 666 1179 q 593 1245 620 1227 q 540 1264 566 1264 q 487 1245 512 1264 q 442 1202 462 1226 q 410 1153 422 1178 q 398 1115 398 1128 q 404 1106 398 1106 q 442 1119 425 1106 q 475 1149 459 1133 q 506 1179 490 1165 q 540 1193 522 1193 q 574 1179 556 1193 q 609 1149 591 1165 q 646 1119 627 1133 q 686 1106 665 1106 "},"E":{"x_min":57,"x_max":688.640625,"ha":699,"o":"m 663 925 q 632 969 663 957 q 534 981 601 981 l 212 981 q 134 975 163 981 q 88 954 105 969 q 61 892 66 932 q 57 792 57 851 l 57 165 q 63 81 57 112 q 87 32 69 50 q 142 7 106 12 q 238 3 177 3 l 519 3 q 644 12 601 3 q 688 51 688 21 q 644 101 688 89 q 528 113 599 113 l 371 113 q 301 119 334 113 q 243 142 267 125 q 204 192 219 160 q 190 273 190 223 q 202 372 190 336 q 238 426 215 408 q 295 449 262 444 q 370 454 329 454 l 486 454 q 542 455 515 454 q 590 461 569 456 q 622 476 611 466 q 634 505 634 487 q 595 552 634 542 q 486 562 555 562 l 381 562 q 311 565 345 562 q 251 583 277 568 q 208 627 224 598 q 193 706 193 656 q 206 795 193 762 q 246 844 220 828 q 308 865 272 861 q 387 870 344 870 l 477 870 q 550 871 516 870 q 609 879 584 872 q 649 895 634 885 q 663 925 663 906 "},"Y":{"x_min":-5.96875,"x_max":739.75,"ha":733,"o":"m 374 644 q 328 656 349 644 q 289 687 307 668 q 255 733 271 706 q 223 787 238 759 l 188 847 q 123 941 157 901 q 39 981 88 981 q 3 962 12 981 q -5 925 -5 944 q 13 865 -5 901 q 64 785 32 829 l 180 618 q 265 469 230 546 q 301 325 301 393 l 301 102 q 319 31 301 59 q 364 4 337 4 q 413 35 396 4 q 430 106 430 67 l 430 336 q 466 473 430 398 q 555 623 503 548 l 674 798 q 721 874 703 840 q 739 929 739 908 q 724 967 739 959 q 696 975 709 975 q 622 938 656 975 q 557 851 588 901 l 520 787 q 486 733 503 759 q 452 687 470 706 q 414 656 434 668 q 374 644 395 644 "},"\"":{"x_min":75,"x_max":383,"ha":472,"o":"m 115 765 q 137 776 129 765 q 150 806 146 788 q 157 847 155 824 q 160 891 160 870 q 150 970 160 939 q 118 1001 141 1001 q 83 970 91 1001 q 75 891 75 939 q 77 848 75 870 q 84 807 79 826 q 96 776 88 788 q 115 765 104 765 m 338 765 q 360 776 352 765 q 373 806 369 788 q 380 847 378 824 q 383 891 383 870 q 373 970 383 939 q 341 1001 364 1001 q 306 970 314 1001 q 298 891 298 939 q 300 848 298 870 q 307 807 302 826 q 319 776 311 788 q 338 765 327 765 "},"‹":{"x_min":40,"x_max":349.796875,"ha":390,"o":"m 265 558 l 151 494 q 112 473 131 483 q 76 450 92 462 q 50 423 60 437 q 40 387 40 408 q 52 352 40 368 q 83 323 65 336 q 121 300 101 311 q 159 279 142 288 l 265 215 q 305 194 285 202 q 335 186 324 186 q 348 199 348 186 q 331 235 348 223 q 297 259 315 247 l 238 298 q 193 334 215 315 q 172 387 172 354 q 191 439 172 422 q 237 473 210 457 l 299 514 q 334 541 319 528 q 349 580 349 555 q 338 592 349 592 q 307 582 327 592 q 265 558 287 572 "},"ê":{"x_min":28,"x_max":679,"ha":678,"o":"m 679 394 q 656 506 679 455 q 594 593 633 557 q 504 649 555 629 q 398 670 454 670 q 247 647 315 670 q 130 579 179 624 q 54 468 80 533 q 28 318 28 403 q 57 193 28 251 q 135 92 86 135 q 246 24 184 49 q 375 -1 309 -1 q 468 8 429 -1 q 529 29 506 17 q 564 55 553 42 q 575 78 575 69 q 568 107 575 97 q 542 117 561 117 q 502 110 521 117 q 463 95 484 103 q 419 80 442 87 q 368 74 396 74 q 309 83 341 74 q 252 108 278 92 q 208 151 225 125 q 191 209 191 176 q 206 264 191 243 q 247 298 222 286 q 301 316 272 311 q 357 321 331 321 q 428 318 397 321 q 482 312 458 315 q 525 307 505 309 q 563 304 544 304 q 649 329 619 304 q 679 394 679 354 m 188 475 q 201 528 188 503 q 235 573 214 554 q 286 605 257 593 q 347 617 315 617 q 413 607 380 617 q 471 578 445 597 q 513 533 496 560 q 530 472 530 507 q 516 422 530 443 q 480 388 503 401 q 427 369 458 375 q 363 363 397 363 q 307 367 337 363 q 250 385 276 372 q 206 419 224 397 q 188 475 188 442 m 508 752 q 518 764 518 752 q 503 801 518 776 q 466 849 488 825 q 416 891 443 873 q 362 910 388 910 q 309 891 334 910 q 264 848 284 872 q 232 799 244 824 q 220 761 220 774 q 226 752 220 752 q 264 765 247 752 q 297 795 281 779 q 328 825 312 811 q 362 839 344 839 q 396 825 379 839 q 431 795 413 811 q 468 765 450 779 q 508 752 487 752 "},"Ï":{"x_min":22.21875,"x_max":313.90625,"ha":335,"o":"m 231 872 q 229 911 231 890 q 221 950 228 933 q 202 979 215 968 q 167 991 189 991 q 131 979 144 991 q 112 950 118 968 q 104 911 105 932 q 103 872 103 890 l 103 138 q 114 38 103 77 q 168 0 125 0 q 203 11 190 0 q 221 40 215 22 q 229 84 228 59 q 231 138 231 109 l 231 872 m 254 1192 q 213 1176 226 1192 q 200 1141 200 1161 q 213 1103 200 1120 q 254 1086 227 1086 q 297 1103 281 1086 q 313 1141 313 1120 q 300 1176 313 1161 q 254 1192 286 1192 m 76 1193 q 35 1177 48 1193 q 22 1142 22 1162 q 36 1104 22 1121 q 76 1087 50 1087 q 119 1104 104 1087 q 134 1142 134 1121 q 120 1177 134 1162 q 76 1193 106 1193 "},"„":{"x_min":93.0625,"x_max":513.9375,"ha":601,"o":"m 230 90 q 186 139 230 139 q 145 114 162 139 q 115 57 127 90 q 98 -7 104 24 q 93 -57 93 -40 q 133 -121 93 -121 q 163 -94 145 -121 q 195 -33 180 -68 q 220 36 209 1 q 230 90 230 72 m 513 88 q 503 129 513 119 q 469 139 493 139 q 429 114 445 139 q 400 57 412 90 q 383 -7 388 24 q 377 -57 377 -40 q 416 -121 377 -121 q 447 -94 430 -121 q 478 -33 463 -68 q 503 36 493 1 q 513 88 513 70 "},"Â":{"x_min":-2.78125,"x_max":891.734375,"ha":889,"o":"m 613 726 q 572 824 590 779 q 536 901 555 868 q 495 951 518 933 q 441 970 473 970 q 392 952 412 970 q 354 905 372 935 q 320 834 336 875 q 283 747 304 793 l 115 362 q 84 296 104 338 q 45 208 65 254 q 11 119 26 162 q -2 53 -2 77 q 11 12 -2 23 q 54 1 25 1 q 94 21 76 1 q 129 71 112 42 q 160 127 145 99 q 188 170 175 155 q 229 202 209 191 q 271 219 248 214 q 324 226 294 225 q 395 228 354 228 l 490 228 q 554 226 526 228 q 604 219 581 225 q 646 202 627 214 q 684 173 665 191 q 722 120 707 150 q 754 63 738 90 q 789 18 769 37 q 843 0 809 0 q 882 18 873 0 q 891 47 891 37 l 891 48 q 878 107 891 69 q 847 189 865 145 q 811 275 830 233 q 779 347 791 318 l 613 726 m 288 440 q 300 500 288 455 q 331 592 311 544 q 377 677 351 640 q 436 714 404 714 q 478 696 458 714 q 515 652 498 679 q 545 594 531 626 q 567 532 558 562 q 581 480 576 503 q 586 447 586 457 q 553 357 586 390 q 438 324 520 324 q 328 351 368 324 q 288 440 288 378 m 580 1027 q 590 1040 590 1027 q 575 1076 590 1052 q 538 1125 561 1101 q 488 1167 515 1149 q 434 1186 461 1186 q 381 1167 406 1186 q 336 1124 356 1148 q 304 1074 316 1099 q 293 1037 293 1049 q 298 1027 293 1027 q 336 1041 319 1027 q 369 1071 354 1055 q 400 1101 384 1087 q 434 1115 416 1115 q 468 1101 451 1115 q 504 1071 486 1087 q 541 1041 522 1055 q 580 1027 559 1027 "},"\u0006":{"x_min":183.34375,"x_max":305.578125,"ha":482,"o":"m 305 859 q 286 905 305 886 q 243 924 266 924 q 200 904 216 924 q 183 859 183 884 q 201 818 183 836 q 243 800 219 800 q 286 818 266 800 q 305 859 305 836 "},"Í":{"x_min":103,"x_max":247.5,"ha":335,"o":"m 231 872 q 229 911 231 890 q 221 950 228 933 q 202 979 215 968 q 167 991 189 991 q 131 979 144 991 q 112 950 118 968 q 104 911 105 932 q 103 872 103 890 l 103 138 q 114 38 103 77 q 168 0 125 0 q 203 11 190 0 q 221 40 215 22 q 229 84 228 59 q 231 138 231 109 l 231 872 m 247 1280 q 203 1329 247 1329 q 162 1304 179 1329 q 133 1248 144 1280 q 116 1183 122 1216 q 110 1134 110 1151 q 118 1084 110 1098 q 150 1070 126 1070 q 180 1096 162 1070 q 212 1156 197 1122 q 237 1226 226 1191 q 247 1280 247 1262 "},"´":{"x_min":123.625,"x_max":261.125,"ha":329,"o":"m 261 948 q 216 997 261 997 q 175 972 193 997 q 147 916 158 948 q 129 852 136 884 q 123 802 123 819 q 131 752 123 766 q 163 739 140 739 q 193 764 176 739 q 225 825 211 790 q 250 895 240 859 q 261 948 261 930 "},"ì":{"x_min":74.484375,"x_max":215,"ha":303,"o":"m 215 540 q 212 578 215 556 q 203 619 210 599 q 185 651 196 638 q 153 665 173 665 q 124 651 135 665 q 107 619 113 638 q 99 578 101 599 q 97 540 97 556 l 97 112 q 99 79 97 98 q 107 44 101 60 q 124 15 113 27 q 153 4 135 4 q 183 15 171 4 q 202 42 195 26 q 212 78 209 59 q 215 112 215 97 l 215 540 m 74 948 q 84 894 74 930 q 109 824 95 859 q 141 764 124 790 q 171 738 159 738 q 203 752 195 738 q 212 802 212 766 q 205 851 212 819 q 188 916 199 884 q 159 972 177 948 q 118 997 141 997 q 74 948 74 997 "},"±":{"x_min":48.609375,"x_max":687.5625,"ha":728,"o":"m 462 649 q 419 726 429 683 q 406 806 409 769 q 395 870 402 844 q 362 897 388 897 q 336 870 341 897 q 327 806 331 844 q 312 725 323 767 q 269 651 301 683 q 203 617 241 623 q 130 609 165 610 q 72 603 95 608 q 48 573 48 598 q 72 541 48 546 q 132 533 97 535 q 209 521 168 530 q 281 480 250 512 q 316 412 308 452 q 327 336 325 373 q 336 273 330 299 q 368 246 343 246 q 396 273 390 246 q 405 336 402 299 q 416 412 408 373 q 450 477 423 452 q 522 517 480 508 q 600 530 563 527 q 661 540 636 534 q 687 567 687 545 q 661 601 687 594 q 600 610 636 608 q 525 619 563 613 q 462 649 487 626 m 147 200 q 80 186 109 200 q 51 150 51 173 q 81 116 51 126 q 147 107 111 107 l 588 107 q 656 118 625 107 q 687 150 687 130 q 656 187 687 175 q 588 200 625 200 l 147 200 "},"Ú":{"x_min":51,"x_max":841,"ha":885,"o":"m 182 457 l 182 805 q 179 866 182 835 q 169 923 176 897 q 149 967 162 950 q 119 985 137 985 q 83 969 96 985 q 62 929 70 954 q 53 872 55 904 q 51 805 51 840 l 51 418 q 87 203 51 287 q 180 71 123 119 q 306 3 237 22 q 441 -15 375 -15 q 576 3 505 -15 q 705 70 646 21 q 802 207 764 119 q 841 435 841 294 l 841 805 q 838 869 841 837 q 829 926 836 901 q 809 967 822 951 q 774 983 796 983 q 742 966 754 983 q 722 923 729 948 q 712 866 715 897 q 710 805 710 835 l 710 414 q 690 279 710 336 q 636 185 671 222 q 552 128 601 147 q 444 110 502 110 q 317 135 368 110 q 236 207 266 161 q 194 316 207 253 q 182 457 182 380 m 547 1219 q 502 1268 547 1268 q 461 1243 479 1268 q 433 1187 444 1219 q 416 1122 422 1155 q 409 1073 409 1090 q 418 1023 409 1037 q 450 1009 426 1009 q 479 1035 462 1009 q 511 1095 497 1061 q 536 1165 526 1130 q 547 1219 547 1201 "},"|":{"x_min":146,"x_max":234,"ha":382,"o":"m 187 1000 q 155 950 164 1000 q 146 818 146 901 l 146 158 q 155 41 146 83 q 187 -1 164 -1 q 227 42 220 -1 q 234 158 234 85 l 234 818 q 226 950 234 901 q 187 1000 218 1000 "},"§":{"x_min":28,"x_max":596,"ha":621,"o":"m 362 982 q 276 971 320 982 q 194 938 232 961 q 133 878 157 915 q 110 790 110 841 q 125 713 110 743 q 167 662 141 683 q 69 600 111 643 q 28 489 28 558 q 53 396 28 430 q 116 341 78 362 q 199 306 154 319 q 281 275 243 293 q 344 232 319 258 q 370 159 370 205 q 363 125 370 144 q 340 91 356 107 q 302 64 325 75 q 246 53 279 53 q 173 66 206 53 q 117 80 140 80 q 89 75 101 80 q 76 50 76 69 q 94 19 76 32 q 136 0 111 7 q 189 -11 161 -8 q 239 -15 217 -15 q 360 0 308 -15 q 446 38 411 14 q 497 94 480 62 q 514 159 514 126 q 498 246 514 212 q 457 304 482 280 q 562 370 528 327 q 596 461 596 412 q 570 566 596 527 q 509 628 545 605 q 428 664 472 651 q 347 693 384 677 q 286 734 311 709 q 261 807 261 759 q 273 850 261 833 q 303 876 286 866 q 337 890 320 886 q 362 894 354 894 q 410 889 391 894 q 452 884 429 884 q 488 891 473 884 q 504 916 504 897 q 488 945 504 933 q 449 965 472 957 q 402 977 426 973 q 362 982 377 982 m 179 505 q 191 548 179 531 q 221 575 204 565 q 255 588 238 584 q 280 593 272 593 q 314 590 300 593 q 343 584 328 587 q 419 540 387 566 q 452 461 452 513 q 430 400 452 433 q 361 356 408 368 q 295 379 328 369 q 236 406 262 390 q 195 445 211 422 q 179 505 179 468 "},"Ý":{"x_min":-5.96875,"x_max":739.75,"ha":733,"o":"m 374 644 q 328 656 349 644 q 289 687 307 667 q 255 733 271 706 q 223 787 238 759 l 188 847 q 123 940 157 901 q 39 980 88 980 q 3 962 12 980 q -5 924 -5 944 q 13 865 -5 901 q 64 784 32 829 l 180 617 q 265 469 230 545 q 301 324 301 392 l 301 102 q 319 31 301 59 q 364 4 337 4 q 413 35 396 4 q 430 106 430 67 l 430 335 q 466 473 430 398 q 555 623 503 548 l 674 798 q 721 874 703 840 q 739 929 739 908 q 724 967 739 959 q 696 974 709 974 q 622 938 656 974 q 557 851 588 901 l 520 787 q 486 733 503 759 q 452 687 470 706 q 414 656 434 667 q 374 644 395 644 m 468 1186 q 423 1235 468 1235 q 382 1210 400 1235 q 354 1154 365 1186 q 336 1089 343 1122 q 330 1040 330 1057 q 338 990 330 1004 q 370 976 347 976 q 400 1002 383 976 q 432 1062 418 1028 q 457 1132 447 1097 q 468 1186 468 1168 "},"b":{"x_min":71,"x_max":778,"ha":796,"o":"m 293 620 q 208 671 230 620 q 186 801 186 722 l 186 937 q 165 1012 186 989 q 125 1035 145 1035 q 86 1007 101 1035 q 71 930 71 979 l 71 101 q 73 72 71 88 q 82 39 75 55 q 104 12 90 23 q 143 1 118 1 q 180 4 171 1 q 197 9 190 6 q 215 15 204 12 q 255 18 226 18 q 314 10 294 18 q 353 -7 333 2 q 404 -24 373 -16 q 493 -32 434 -32 q 576 -13 527 -32 q 669 46 625 5 q 746 150 714 87 q 778 301 778 213 q 752 452 778 386 q 686 564 727 519 q 589 633 644 609 q 470 657 533 657 q 415 651 440 657 q 368 638 390 646 q 329 625 347 630 q 293 620 311 620 m 410 72 q 323 92 362 72 q 254 145 283 112 q 208 221 225 179 q 192 306 192 263 q 210 408 192 362 q 260 487 229 454 q 330 538 290 520 q 411 557 369 557 q 503 538 460 557 q 581 488 547 520 q 633 411 614 455 q 652 313 652 366 q 634 221 652 265 q 585 144 617 177 q 508 91 553 110 q 410 72 464 72 "},"q":{"x_min":25,"x_max":739,"ha":778,"o":"m 334 695 q 212 669 269 695 q 113 598 155 643 q 48 491 72 553 q 25 358 25 429 q 54 198 25 265 q 127 88 83 131 q 224 25 172 45 q 326 5 277 5 q 393 9 369 5 q 435 21 417 14 q 468 33 452 27 q 509 39 484 39 q 565 24 544 39 q 596 -12 585 9 q 611 -63 608 -34 q 615 -118 615 -91 l 615 -180 q 628 -266 615 -233 q 676 -300 641 -300 q 706 -288 694 -300 q 726 -260 719 -277 q 736 -222 733 -243 q 739 -180 739 -201 l 739 525 q 720 623 739 583 q 662 663 702 663 q 602 654 627 663 q 548 645 576 645 q 497 652 519 645 q 454 670 476 660 q 405 687 433 679 q 334 695 377 695 m 392 592 q 491 566 450 592 q 559 505 532 541 q 599 428 587 469 q 612 355 612 387 q 598 269 612 312 q 556 190 584 226 q 488 133 528 155 q 395 111 448 111 q 277 136 324 111 q 202 200 230 162 q 162 282 174 238 q 151 362 151 326 q 169 446 151 404 q 219 519 187 487 q 295 571 250 551 q 392 592 339 592 "},"Ö":{"x_min":22,"x_max":1068,"ha":1075,"o":"m 1068 480 q 1024 725 1068 623 q 907 892 980 827 q 738 988 834 957 q 535 1019 641 1019 q 316 977 412 1019 q 155 862 220 935 q 56 692 90 789 q 22 480 22 594 q 58 287 22 379 q 160 126 94 195 q 322 15 227 56 q 535 -25 417 -25 q 747 11 649 -25 q 915 113 844 47 q 1027 272 987 179 q 1068 480 1068 365 m 161 480 q 192 664 161 584 q 276 798 224 744 q 396 880 328 852 q 535 908 464 908 q 691 879 619 908 q 816 796 763 851 q 899 661 868 741 q 930 480 930 581 q 900 329 930 401 q 819 204 871 258 q 695 117 767 149 q 535 86 623 86 q 376 122 445 86 q 258 215 306 158 q 185 343 210 273 q 161 480 161 413 m 682 1217 q 641 1201 654 1217 q 627 1166 627 1186 q 641 1128 627 1145 q 682 1111 655 1111 q 725 1128 709 1111 q 741 1166 741 1145 q 727 1201 741 1186 q 682 1217 713 1217 m 377 1217 q 336 1201 350 1217 q 323 1166 323 1186 q 337 1128 323 1145 q 377 1111 351 1111 q 420 1128 405 1111 q 436 1166 436 1145 q 422 1201 436 1186 q 377 1217 408 1217 "},"z":{"x_min":25,"x_max":542,"ha":567,"o":"m 430 668 l 243 664 q 127 654 170 661 q 84 626 84 646 q 101 604 84 610 q 143 594 117 597 q 198 587 169 590 q 253 574 227 583 q 296 548 279 565 q 313 499 313 531 q 291 433 313 467 q 237 363 269 399 q 168 292 205 328 q 98 222 130 257 q 45 153 66 186 q 25 90 25 119 q 53 25 25 47 q 126 4 82 4 l 144 4 l 429 13 q 450 13 436 13 q 480 17 465 14 q 505 28 494 21 q 515 46 515 35 q 496 69 515 63 q 447 78 476 75 q 384 83 418 81 q 321 93 350 85 q 272 119 291 101 q 253 172 253 138 q 274 238 253 204 q 328 307 296 272 q 397 378 359 342 q 466 449 435 414 q 520 519 498 485 q 542 588 542 554 q 507 650 542 631 q 430 668 473 670 "},"™":{"x_min":137.765625,"x_max":1273.71875,"ha":1399,"o":"m 704 1001 q 672 991 687 1001 q 647 968 658 982 q 629 936 636 953 q 622 901 622 919 q 624 832 622 880 q 628 731 626 784 q 632 630 630 677 q 634 564 634 583 q 646 516 634 529 q 676 503 658 503 q 707 530 698 503 q 723 590 716 557 q 742 650 730 623 q 783 678 754 678 q 834 649 818 678 q 865 587 851 621 q 897 524 879 552 q 952 496 915 496 q 988 509 973 496 q 1013 543 1002 522 q 1034 587 1025 564 q 1053 630 1043 609 q 1077 664 1063 651 q 1112 678 1091 678 q 1145 665 1133 678 q 1166 633 1158 653 q 1177 592 1173 614 q 1187 550 1182 569 q 1202 518 1193 530 q 1227 506 1211 506 q 1248 514 1240 506 q 1259 535 1255 522 q 1266 561 1263 547 q 1268 586 1268 575 q 1268 635 1268 603 q 1270 706 1269 667 q 1273 787 1272 746 q 1273 864 1273 828 l 1273 876 q 1272 914 1273 893 q 1262 953 1270 935 q 1236 985 1254 972 q 1188 999 1219 999 q 1122 978 1145 999 q 1084 925 1098 957 q 1060 856 1069 893 q 1039 787 1051 819 q 1007 734 1027 756 q 951 713 987 713 q 890 734 911 713 q 857 787 869 755 q 836 857 844 819 q 813 926 827 894 q 773 979 798 958 q 704 1001 748 1001 m 300 1007 l 294 1007 q 235 1005 262 1007 q 184 999 207 1004 q 150 986 162 994 q 137 963 137 977 q 156 939 137 951 q 198 906 175 927 q 240 852 221 886 q 260 762 260 818 l 260 588 q 262 561 260 576 q 269 533 264 547 q 282 512 275 520 q 303 504 290 504 q 321 512 314 504 q 333 532 329 520 q 339 558 337 544 q 342 585 342 573 l 342 763 q 360 852 342 819 q 400 904 378 884 q 440 937 422 925 q 459 965 459 950 q 444 987 459 979 q 406 1000 429 995 q 355 1005 383 1004 q 300 1007 326 1007 "},"ã":{"x_min":55.359375,"x_max":655,"ha":691,"o":"m 318 687 q 248 671 284 684 q 186 642 213 658 l 186 620 q 193 617 193 620 q 193 615 193 616 q 192 610 192 613 q 193 606 192 608 q 216 605 204 606 q 238 605 227 605 q 249 605 243 605 q 260 606 254 605 q 309 612 284 609 q 361 616 335 616 q 423 606 395 616 q 446 592 432 602 q 472 569 460 581 q 493 542 484 556 q 505 517 502 528 l 505 508 q 499 483 505 492 q 490 464 494 473 q 435 408 469 423 q 360 389 401 394 q 276 384 319 385 q 194 369 233 383 q 165 354 183 364 q 128 330 147 344 q 96 303 110 317 q 76 280 81 289 q 60 239 65 260 q 55 198 55 219 q 88 89 55 138 q 165 21 120 39 q 203 11 183 14 q 244 8 223 8 q 312 14 278 8 q 372 28 345 20 q 371 37 372 31 q 370 51 370 44 l 370 58 q 337 68 355 63 q 301 79 319 73 q 266 93 283 85 q 238 110 249 101 q 233 120 231 114 q 231 133 234 126 q 219 139 228 135 q 209 146 210 144 q 199 169 202 158 q 197 192 197 181 q 204 231 197 213 q 224 264 212 249 q 249 291 235 280 q 274 309 263 302 q 322 330 297 321 q 374 338 347 338 q 417 331 395 338 q 460 309 440 324 q 494 271 484 292 q 504 226 504 249 q 493 169 504 198 q 467 117 483 141 q 456 110 465 114 q 445 102 447 106 q 444 95 444 101 q 445 84 444 89 q 447 73 447 78 q 445 66 447 67 q 485 48 462 59 q 527 35 509 38 q 544 33 535 34 q 563 33 553 33 q 607 39 587 33 q 638 66 628 46 q 650 137 646 83 q 655 259 655 192 q 653 338 655 298 q 650 414 652 378 q 645 476 648 449 q 638 517 642 503 q 624 553 634 534 q 602 592 614 573 q 575 626 589 610 q 549 651 561 641 q 473 680 521 670 q 373 690 425 690 q 345 690 359 690 q 318 687 332 690 m 500 886 q 445 890 470 882 q 396 909 420 898 q 344 929 372 920 q 281 932 316 937 q 229 904 241 925 q 219 865 216 884 q 231 844 222 848 q 252 843 240 840 q 277 849 265 845 q 304 855 290 852 q 366 852 341 861 q 413 833 391 844 q 459 813 436 822 q 519 811 483 805 q 562 832 543 813 q 577 879 581 851 q 568 898 575 894 q 551 901 562 902 q 527 893 540 898 q 500 886 513 888 "},"æ":{"x_min":175,"x_max":1261,"ha":1471,"o":"m 733 624 q 672 630 697 624 q 625 645 648 637 q 574 660 602 653 q 503 667 546 667 q 369 652 423 667 q 315 611 315 637 q 321 601 315 605 q 334 598 327 598 q 385 609 353 598 q 452 621 417 621 q 506 613 476 621 q 562 587 536 605 q 606 541 588 569 q 625 472 625 514 q 610 423 625 436 q 581 396 595 410 q 523 367 558 372 q 454 363 488 363 l 451 363 q 320 349 373 363 q 236 311 268 336 q 189 249 204 286 q 175 164 175 212 q 192 103 175 133 q 237 50 209 73 q 301 13 265 27 q 373 0 337 0 q 468 11 432 0 q 535 35 505 22 q 594 59 565 48 q 668 71 623 71 q 744 60 714 71 q 803 37 773 50 q 869 13 833 23 q 961 3 904 3 q 1027 8 993 3 q 1089 24 1061 14 q 1136 47 1118 34 q 1154 76 1154 61 q 1132 104 1154 104 q 1101 97 1117 104 q 1068 82 1086 90 q 1026 67 1050 74 q 972 61 1003 61 q 903 72 936 61 q 846 103 871 83 q 806 151 821 123 q 792 211 792 179 q 838 303 792 269 q 976 338 884 338 q 1042 333 1019 338 q 1080 325 1065 329 q 1111 317 1095 321 q 1158 313 1127 313 q 1208 321 1188 313 q 1239 342 1227 329 q 1256 369 1251 354 q 1261 399 1261 385 q 1239 496 1261 447 q 1180 583 1217 544 q 1090 646 1142 622 q 977 671 1038 671 q 898 663 924 671 q 851 647 872 655 q 806 631 831 639 q 733 624 781 624 m 950 611 q 1005 604 976 611 q 1060 581 1035 597 q 1101 538 1085 565 q 1117 473 1117 512 q 1080 389 1117 422 q 969 356 1044 356 q 910 361 940 356 q 855 381 879 367 q 814 420 830 396 q 799 482 799 444 q 842 572 799 534 q 950 611 885 611 m 492 328 q 520 323 498 328 q 565 307 542 319 q 607 271 588 294 q 626 211 626 248 q 617 165 626 191 q 592 115 609 140 q 546 74 574 91 q 478 58 517 58 q 408 69 438 58 q 357 99 377 81 q 327 140 337 117 q 318 187 318 163 q 336 242 318 216 q 382 286 355 268 q 439 316 409 305 q 492 328 469 328 "},"®":{"x_min":22,"x_max":631,"ha":665,"o":"m 631 707 q 605 849 631 790 q 537 946 579 908 q 438 1001 494 983 q 320 1020 382 1020 q 194 995 250 1020 q 100 929 138 971 q 42 829 62 886 q 22 707 22 772 q 42 594 22 647 q 102 500 63 540 q 197 436 141 460 q 320 413 252 413 q 443 433 386 413 q 542 492 500 454 q 607 585 583 531 q 631 707 631 640 m 103 707 q 121 813 103 767 q 171 891 140 860 q 240 939 201 922 q 320 956 279 956 q 411 939 369 956 q 484 890 452 922 q 532 811 515 857 q 550 707 550 765 q 533 618 550 660 q 486 545 516 576 q 413 496 455 514 q 320 478 370 478 q 227 498 268 478 q 159 553 187 519 q 117 626 132 586 q 103 707 103 666 m 423 900 q 402 897 411 900 q 384 890 393 894 q 366 883 376 886 q 340 880 356 880 q 308 885 320 880 q 276 890 295 890 q 249 883 259 890 q 235 866 240 876 q 230 843 231 855 q 229 819 229 830 l 229 579 q 237 538 229 558 q 263 518 245 518 q 291 538 283 518 q 300 587 300 559 l 300 686 q 311 765 300 738 q 336 802 323 791 q 368 827 352 820 q 409 841 383 834 q 444 852 429 845 q 459 877 459 858 q 423 900 459 900 "},"É":{"x_min":57,"x_max":688.640625,"ha":699,"o":"m 663 925 q 632 969 663 957 q 534 981 601 981 l 212 981 q 134 975 163 981 q 88 954 105 969 q 61 892 66 932 q 57 792 57 851 l 57 165 q 63 81 57 112 q 87 32 69 50 q 142 7 106 12 q 238 3 177 3 l 519 3 q 644 12 601 3 q 688 51 688 21 q 644 101 688 89 q 528 113 599 113 l 371 113 q 301 119 334 113 q 243 142 267 125 q 204 192 219 160 q 190 273 190 223 q 202 372 190 336 q 238 426 215 408 q 295 449 262 444 q 370 454 329 454 l 486 454 q 542 455 515 454 q 590 461 569 456 q 622 476 611 466 q 634 505 634 487 q 595 552 634 542 q 486 562 555 562 l 381 562 q 311 565 345 562 q 251 583 277 568 q 208 627 224 598 q 193 706 193 656 q 206 795 193 762 q 246 844 220 828 q 308 865 272 861 q 387 870 344 870 l 477 870 q 550 871 516 870 q 609 879 584 872 q 649 895 634 885 q 663 925 663 906 m 448 1275 q 404 1324 448 1324 q 363 1299 380 1324 q 334 1243 345 1275 q 317 1178 323 1211 q 311 1129 311 1146 q 319 1079 311 1093 q 351 1065 327 1065 q 381 1091 363 1065 q 413 1151 398 1117 q 438 1221 427 1186 q 448 1275 448 1257 "},"~":{"x_min":56.953125,"x_max":480.59375,"ha":535,"o":"m 480 857 q 463 888 480 880 q 427 896 447 896 q 396 890 409 896 q 371 878 383 884 q 348 867 359 872 q 325 862 337 862 q 302 868 312 862 q 278 880 291 873 q 246 893 265 887 q 201 899 227 899 q 131 880 159 899 q 87 840 104 862 q 63 798 70 818 q 56 775 56 779 q 72 743 56 751 q 111 736 87 736 q 145 741 133 736 q 165 754 156 747 q 184 766 175 760 q 212 772 194 772 q 234 765 222 772 q 262 752 247 759 q 295 738 277 744 q 334 732 313 732 q 393 745 366 732 q 440 777 420 758 q 470 818 459 795 q 480 857 480 840 "},"¡":{"x_min":117,"x_max":239,"ha":342,"o":"m 121 -53 q 123 -93 121 -71 q 132 -132 126 -114 q 150 -163 139 -151 q 179 -176 161 -176 q 210 -163 198 -176 q 227 -132 222 -151 q 234 -91 233 -113 q 236 -53 236 -70 l 236 364 q 233 410 236 386 q 224 453 230 435 q 206 485 217 472 q 179 497 195 497 q 150 485 162 497 q 132 453 139 472 q 123 410 126 433 q 121 364 121 386 l 121 -53 m 179 821 q 135 805 154 821 q 117 764 117 789 q 135 719 117 737 q 179 701 153 701 q 221 720 204 701 q 239 764 239 739 q 220 804 239 787 q 179 821 202 821 "},"[":{"x_min":154,"x_max":305,"ha":454,"o":"m 298 992 q 286 1019 298 1007 q 237 1031 274 1031 q 187 1016 205 1031 q 163 976 170 1001 q 154 919 155 951 q 154 853 154 887 l 154 -34 q 168 -170 154 -127 q 241 -214 183 -214 q 305 -175 305 -214 q 293 -149 305 -162 q 269 -116 282 -136 q 244 -67 255 -97 q 233 9 233 -37 l 233 794 q 243 876 233 843 q 265 930 253 908 q 287 965 277 951 q 298 992 298 979 "},"L":{"x_min":86,"x_max":620.375,"ha":607,"o":"m 212 866 q 192 951 212 928 q 149 974 173 974 q 104 947 122 974 q 86 861 86 921 l 86 143 q 91 89 86 115 q 110 44 97 63 q 149 12 124 25 q 210 0 173 0 l 495 0 q 587 12 553 0 q 620 56 620 24 q 587 101 620 88 q 495 115 553 115 l 407 115 q 337 121 371 115 q 274 146 302 127 q 229 203 246 166 q 212 304 212 241 l 212 866 "}," ":{"x_min":0,"x_max":0,"ha":313},"%":{"x_min":81,"x_max":1178,"ha":1241,"o":"m 543 744 q 524 838 543 794 q 475 917 506 883 q 401 970 444 951 q 308 990 358 990 q 218 969 259 990 q 146 915 176 949 q 98 837 115 881 q 81 744 81 793 q 99 659 81 698 q 149 590 118 619 q 222 543 180 560 q 308 527 264 527 q 398 542 355 527 q 472 588 440 558 q 523 656 504 617 q 543 744 543 696 m 1178 218 q 1163 293 1178 252 q 1119 370 1148 334 q 1048 429 1090 405 q 950 453 1005 453 q 855 434 897 453 q 781 385 812 416 q 733 310 750 354 q 717 215 717 266 q 735 130 717 170 q 784 58 753 90 q 857 7 815 26 q 946 -11 898 -11 q 1035 5 993 -11 q 1109 52 1078 22 q 1159 125 1140 83 q 1178 218 1178 168 m 793 206 q 833 327 793 279 q 944 375 873 375 q 1057 331 1012 375 q 1102 219 1102 287 q 1062 109 1102 153 q 944 65 1022 65 q 882 77 909 65 q 834 110 854 90 q 803 156 813 131 q 793 206 793 181 m 157 744 q 168 808 157 777 q 199 861 179 838 q 247 898 219 884 q 308 912 274 912 q 367 898 338 912 q 417 861 395 884 q 452 808 440 838 q 465 744 465 777 q 452 689 465 715 q 418 644 440 663 q 368 614 397 625 q 308 603 340 603 q 250 614 277 603 q 202 644 223 625 q 169 689 181 663 q 157 744 157 715 m 837 816 q 862 861 850 838 q 883 902 875 883 q 894 934 891 920 q 891 954 897 948 q 871 939 884 954 q 845 904 858 925 q 818 863 832 884 q 798 827 805 841 l 433 179 q 416 150 429 170 q 390 104 402 129 q 370 59 377 80 q 370 31 363 38 q 394 46 380 31 q 421 79 408 61 q 445 115 434 98 q 459 140 455 133 l 837 816 "},"P":{"x_min":58,"x_max":732,"ha":735,"o":"m 732 707 q 694 852 732 798 q 596 935 656 906 q 461 973 536 964 q 313 983 387 983 l 267 983 q 159 978 201 983 q 95 956 117 974 q 65 903 73 938 q 58 808 58 869 l 58 178 q 69 47 58 87 q 119 8 81 8 q 154 20 141 8 q 173 53 167 33 q 181 98 180 73 q 183 147 183 123 l 183 237 q 192 319 183 283 q 226 380 202 355 q 292 418 251 405 q 395 431 333 431 q 526 445 465 431 q 633 492 587 460 q 705 578 679 525 q 732 707 732 630 m 186 713 q 201 801 186 768 q 242 852 217 834 q 297 876 267 870 q 351 882 326 882 q 419 875 379 882 q 496 849 459 868 q 559 796 533 830 q 586 708 586 762 q 563 620 586 655 q 507 563 541 584 q 431 534 473 543 q 349 525 388 525 q 230 568 274 525 q 186 713 186 611 "},"À":{"x_min":-2.78125,"x_max":891.734375,"ha":889,"o":"m 613 726 q 572 824 590 779 q 536 901 555 868 q 495 951 518 933 q 441 970 473 970 q 392 952 412 970 q 354 905 372 935 q 320 834 336 875 q 283 747 304 793 l 115 362 q 84 296 104 338 q 45 208 65 254 q 11 119 26 162 q -2 53 -2 77 q 11 12 -2 23 q 54 1 25 1 q 94 21 76 1 q 129 71 112 42 q 160 127 145 99 q 188 170 175 155 q 229 202 209 191 q 271 219 248 214 q 324 226 294 225 q 395 228 354 228 l 490 228 q 554 226 526 228 q 604 219 581 225 q 646 202 627 214 q 684 173 665 191 q 722 120 707 150 q 754 63 738 90 q 789 18 769 37 q 843 0 809 0 q 882 18 873 0 q 891 47 891 37 l 891 48 q 878 107 891 69 q 847 189 865 145 q 811 275 830 233 q 779 347 791 318 l 613 726 m 288 440 q 300 500 288 455 q 331 592 311 544 q 377 677 351 640 q 436 714 404 714 q 478 696 458 714 q 515 652 498 679 q 545 594 531 626 q 567 532 558 562 q 581 480 576 503 q 586 447 586 457 q 553 357 586 390 q 438 324 520 324 q 328 351 368 324 q 288 440 288 378 m 370 1240 q 381 1186 370 1222 q 406 1116 391 1151 q 438 1056 420 1082 q 468 1030 455 1030 q 500 1044 491 1030 q 508 1094 508 1058 q 502 1143 508 1111 q 484 1208 495 1176 q 455 1264 473 1240 q 415 1289 437 1289 q 370 1240 370 1289 "},"_":{"x_min":-69.453125,"x_max":709.78125,"ha":639,"o":"m -6 -56 q -25 -58 -13 -56 q -45 -66 -36 -60 q -62 -83 -55 -72 q -69 -112 -69 -94 q -62 -139 -69 -129 q -46 -156 -55 -150 q -26 -164 -37 -162 q -6 -167 -15 -167 l 650 -167 q 688 -155 668 -167 q 709 -112 709 -144 q 689 -66 709 -76 q 650 -56 669 -56 l -6 -56 "},"ñ":{"x_min":54.890625,"x_max":711,"ha":763,"o":"m 711 387 q 690 527 711 472 q 637 616 670 583 q 559 662 603 649 q 466 676 515 676 q 383 667 412 676 q 335 650 355 659 q 295 633 314 641 q 239 625 275 625 q 209 627 219 625 q 189 634 199 630 q 164 640 180 637 q 118 643 149 643 q 69 602 85 643 q 55 504 53 561 l 55 100 q 71 29 55 55 q 110 3 88 3 q 161 35 146 3 q 176 122 176 68 l 176 337 q 188 430 176 387 q 223 506 201 473 q 280 556 246 538 q 356 575 313 575 q 444 565 400 575 q 520 524 487 555 q 573 433 553 493 q 594 275 594 373 l 594 104 q 651 3 594 3 q 681 15 669 3 q 699 47 692 27 q 708 91 705 66 q 711 138 711 115 l 711 387 m 480 861 q 426 865 451 857 q 377 884 401 873 q 325 904 352 895 q 262 907 297 912 q 209 879 222 900 q 200 840 197 859 q 211 819 202 823 q 233 818 220 815 q 258 824 245 820 q 284 830 270 827 q 347 827 322 836 q 394 808 372 819 q 440 788 416 797 q 500 786 463 780 q 543 807 523 788 q 558 854 562 826 q 549 873 555 869 q 531 876 543 877 q 507 868 520 873 q 480 861 494 863 "},"+":{"x_min":86.125,"x_max":725.0625,"ha":801,"o":"m 500 512 q 456 589 466 546 q 443 669 447 632 q 433 733 440 707 q 400 760 426 760 q 374 733 379 760 q 365 669 369 707 q 350 588 361 630 q 306 514 338 546 q 240 480 279 486 q 168 472 202 473 q 109 466 133 471 q 86 436 86 461 q 110 404 86 410 q 170 396 134 398 q 246 384 205 393 q 319 343 287 375 q 354 275 345 315 q 365 199 362 236 q 374 136 368 162 q 405 110 380 110 q 434 136 427 110 q 443 199 440 162 q 453 275 445 236 q 487 340 461 315 q 559 380 518 371 q 637 394 601 390 q 699 403 673 397 q 725 430 725 408 q 699 464 725 457 q 637 473 673 471 q 563 482 601 476 q 500 512 525 489 "},"‚":{"x_min":123.625,"x_max":261.125,"ha":329,"o":"m 261 91 q 216 140 261 140 q 175 115 193 140 q 147 59 158 91 q 129 -4 136 27 q 123 -54 123 -37 q 131 -104 123 -90 q 163 -118 140 -118 q 193 -92 176 -118 q 225 -32 211 -66 q 250 38 240 2 q 261 91 261 73 "},"Æ":{"x_min":97.234375,"x_max":1389,"ha":1481,"o":"m 879 999 q 795 984 829 999 q 732 929 761 969 l 231 268 q 189 213 212 243 q 145 154 166 183 q 111 99 125 125 q 97 61 97 74 q 105 36 97 45 q 133 26 113 26 l 136 26 q 182 43 159 26 q 226 84 205 61 q 264 129 247 106 q 293 162 281 151 q 350 209 322 191 q 405 235 377 226 q 460 247 433 244 q 516 250 487 250 l 588 250 q 706 231 665 250 q 766 185 747 212 q 792 125 786 158 q 808 65 798 92 q 838 19 818 38 q 905 1 858 1 l 1238 1 q 1295 1 1268 1 q 1343 7 1322 2 q 1376 24 1364 13 q 1389 56 1389 35 q 1373 87 1389 75 q 1332 103 1357 98 q 1278 110 1308 109 q 1220 112 1248 112 l 1119 112 q 1048 116 1083 112 q 985 139 1012 121 q 941 194 958 157 q 925 294 925 230 q 944 383 925 349 q 992 433 963 416 q 1052 456 1020 451 q 1107 461 1083 461 l 1162 461 q 1288 468 1241 461 q 1336 512 1336 476 q 1320 542 1336 531 q 1277 560 1304 553 q 1217 567 1251 566 q 1148 569 1183 569 l 1079 569 q 970 608 1012 567 q 927 723 927 649 q 969 850 927 811 q 1098 889 1011 889 q 1100 889 1100 890 q 1101 889 1101 889 l 1187 889 q 1252 891 1220 889 q 1309 898 1284 893 q 1349 913 1334 902 q 1364 940 1364 923 q 1352 973 1364 961 q 1323 990 1341 985 q 1282 997 1305 996 q 1236 999 1259 999 l 879 999 m 721 666 q 761 651 747 666 q 784 612 776 636 q 793 560 791 589 q 796 505 796 532 q 782 429 796 459 q 746 380 768 398 q 698 353 725 361 q 648 346 672 346 q 621 347 640 346 q 580 357 601 348 q 543 384 559 365 q 528 436 528 402 q 548 495 528 457 q 597 571 568 533 q 659 638 626 609 q 721 666 693 666 "},"Ë":{"x_min":57,"x_max":688.640625,"ha":699,"o":"m 663 925 q 632 969 663 957 q 534 981 601 981 l 212 981 q 134 975 163 981 q 88 954 105 969 q 61 892 66 932 q 57 792 57 851 l 57 165 q 63 81 57 112 q 87 32 69 50 q 142 7 106 12 q 238 3 177 3 l 519 3 q 644 12 601 3 q 688 51 688 21 q 644 101 688 89 q 528 113 599 113 l 371 113 q 301 119 334 113 q 243 142 267 125 q 204 192 219 160 q 190 273 190 223 q 202 372 190 336 q 238 426 215 408 q 295 449 262 444 q 370 454 329 454 l 486 454 q 542 455 515 454 q 590 461 569 456 q 622 476 611 466 q 634 505 634 487 q 595 552 634 542 q 486 562 555 562 l 381 562 q 311 565 345 562 q 251 583 277 568 q 208 627 224 598 q 193 706 193 656 q 206 795 193 762 q 246 844 220 828 q 308 865 272 861 q 387 870 344 870 l 477 870 q 550 871 516 870 q 609 879 584 872 q 649 895 634 885 q 663 925 663 906 m 525 1175 q 484 1159 497 1175 q 470 1124 470 1144 q 484 1086 470 1103 q 525 1069 498 1069 q 568 1086 552 1069 q 584 1124 584 1103 q 570 1159 584 1144 q 525 1175 556 1175 m 220 1175 q 179 1159 193 1175 q 166 1124 166 1144 q 180 1086 166 1103 q 220 1069 194 1069 q 263 1086 248 1069 q 279 1124 279 1103 q 265 1159 279 1144 q 220 1175 251 1175 "},"'":{"x_min":114,"x_max":192,"ha":292,"o":"m 192 819 l 192 937 q 180 985 192 969 q 154 1001 168 1001 q 125 984 136 1001 q 114 937 114 967 l 114 819 q 125 778 114 796 q 151 760 136 760 q 181 778 171 760 q 192 819 192 797 "},"Š":{"x_min":32,"x_max":652,"ha":690,"o":"m 581 932 q 565 970 581 954 q 522 998 549 987 q 457 1015 494 1009 q 376 1021 419 1021 q 276 1008 335 1021 q 162 963 217 996 q 70 875 108 930 q 32 733 32 819 q 66 600 32 650 q 154 520 101 551 q 267 468 206 488 q 379 422 327 447 q 467 359 432 397 q 502 255 502 320 q 447 138 502 184 q 306 93 393 93 q 240 99 267 93 q 194 115 214 106 q 155 132 174 124 q 111 140 136 140 q 77 129 97 140 q 57 88 57 119 q 80 40 57 60 q 139 6 103 20 q 217 -14 175 -7 q 300 -21 260 -21 q 438 0 374 -21 q 549 56 502 19 q 624 149 597 94 q 652 274 652 204 q 631 383 652 338 q 577 461 610 429 q 502 513 545 493 q 415 552 459 534 q 329 586 372 569 q 254 624 287 602 q 201 675 221 645 q 181 750 181 705 q 194 818 181 788 q 233 866 208 847 q 292 896 258 886 q 362 907 325 907 q 428 902 408 907 q 459 894 447 898 q 483 886 471 890 q 528 882 496 882 q 565 897 550 882 q 581 932 581 912 m 189 1211 q 180 1198 180 1211 q 194 1161 180 1186 q 231 1113 208 1137 q 281 1071 254 1089 q 334 1053 308 1053 q 386 1071 361 1053 q 432 1114 412 1090 q 464 1163 452 1138 q 476 1201 476 1188 q 470 1211 476 1211 q 432 1197 450 1211 q 400 1167 415 1183 q 368 1137 384 1151 q 334 1124 352 1124 q 300 1137 318 1124 q 265 1167 283 1151 q 228 1197 247 1183 q 189 1211 209 1211 "},"ª":{"x_min":43,"x_max":466,"ha":518,"o":"m 466 798 q 419 947 466 897 q 289 997 373 997 q 211 990 246 997 q 152 973 176 983 q 114 955 128 963 q 101 943 101 947 q 105 938 101 940 q 112 937 110 937 q 163 947 130 937 q 247 957 196 957 q 282 951 261 957 q 321 934 303 945 q 353 906 340 923 q 367 865 367 889 q 355 827 367 843 q 326 800 344 811 q 287 783 308 789 q 248 778 266 778 q 178 772 215 778 q 111 752 141 766 q 62 711 81 737 q 43 643 43 684 q 60 575 43 601 q 100 536 77 550 q 145 518 123 523 q 179 514 168 514 q 205 516 190 514 q 235 523 219 518 q 266 534 251 527 q 290 551 280 541 q 241 553 267 548 q 193 570 215 558 q 156 601 171 582 q 142 648 142 620 q 157 699 142 677 q 195 733 173 720 q 237 753 217 747 q 269 759 258 759 q 301 754 283 759 q 333 736 318 748 q 359 709 349 724 q 370 672 370 693 q 362 629 370 648 q 345 594 354 609 q 327 569 336 579 q 314 557 318 559 q 335 543 322 548 q 363 536 349 538 q 389 532 376 533 q 408 532 402 532 l 410 532 q 454 552 442 532 q 466 597 466 572 l 466 798 "},"Œ":{"x_min":22,"x_max":1333.65625,"ha":1357,"o":"m 1308 926 q 1277 970 1308 958 q 1179 982 1246 982 l 857 982 q 774 975 808 982 q 536 1019 664 1019 q 316 977 412 1019 q 155 862 220 935 q 56 692 90 789 q 22 480 22 594 q 58 287 22 379 q 160 126 94 195 q 322 15 227 56 q 536 -25 418 -25 q 652 -14 597 -25 q 759 15 708 -4 q 809 6 779 8 q 883 4 839 4 l 1164 4 q 1289 13 1246 4 q 1333 52 1333 22 q 1289 102 1333 90 q 1173 114 1244 114 l 1016 114 q 946 120 979 114 q 888 143 912 126 q 849 193 864 161 q 835 275 835 225 q 847 373 835 337 q 883 428 860 410 q 940 451 907 446 q 1015 456 974 456 l 1131 456 q 1187 457 1160 456 q 1235 463 1214 458 q 1267 478 1256 468 q 1279 507 1279 489 q 1240 554 1279 544 q 1131 564 1200 564 l 1026 564 q 956 567 990 564 q 896 585 922 570 q 853 629 869 600 q 838 708 838 658 q 851 796 838 764 q 891 846 865 829 q 953 866 917 862 q 1032 871 989 871 l 1122 871 q 1195 872 1161 871 q 1254 880 1229 873 q 1294 896 1279 886 q 1308 926 1308 907 m 161 480 q 192 664 161 584 q 276 798 224 744 q 397 880 329 852 q 535 908 465 908 q 704 873 623 908 q 703 566 703 691 q 702 358 703 441 q 701 230 701 276 q 701 160 701 184 q 702 130 701 137 q 703 120 703 123 q 536 86 625 86 q 376 122 445 86 q 258 215 306 158 q 186 343 211 273 q 161 480 161 413 "},"ð":{"x_min":50,"x_max":723,"ha":742,"o":"m 514 851 q 525 888 528 873 q 503 916 522 902 q 470 921 489 925 q 432 907 451 918 q 378 963 405 941 q 321 985 350 985 q 289 973 297 985 q 282 941 282 961 q 300 888 282 915 q 337 829 318 861 q 318 805 323 812 q 298 758 298 773 q 316 729 297 743 q 341 729 323 723 q 379 745 358 734 q 383 711 383 729 q 360 648 383 666 q 301 619 337 630 q 222 593 265 608 q 140 538 179 577 q 109 503 125 523 q 80 455 94 483 q 58 390 66 427 q 50 306 50 353 q 74 180 50 238 q 142 78 98 121 q 248 11 186 35 q 385 -13 310 -13 q 526 9 464 -13 q 633 74 589 32 q 700 176 677 116 q 723 309 723 235 q 709 417 723 366 q 672 516 695 469 q 622 608 650 563 q 565 698 595 652 l 488 822 q 503 837 496 830 q 514 851 510 844 m 594 320 q 577 236 594 276 q 532 166 560 196 q 465 118 503 135 q 382 101 426 101 q 299 117 337 101 q 233 163 261 134 q 188 230 205 192 q 172 310 172 269 q 194 414 172 373 q 249 482 217 456 q 317 519 282 507 q 378 530 353 530 q 465 510 425 530 q 534 459 506 489 q 577 392 561 428 q 594 320 594 355 "},"T":{"x_min":6.046875,"x_max":705.96875,"ha":707,"o":"m 705 939 q 663 978 705 968 q 532 989 621 989 l 172 989 q 88 986 121 989 q 37 977 56 983 q 12 962 19 972 q 6 938 6 952 q 37 896 6 911 q 122 882 68 882 q 174 877 144 882 q 228 858 203 873 q 270 813 253 843 q 288 733 288 783 l 288 129 q 291 88 288 110 q 302 47 294 66 q 323 16 310 29 q 357 4 336 4 q 390 15 376 4 q 410 44 403 26 q 421 84 418 62 q 424 129 424 106 l 424 733 q 437 812 424 783 q 472 857 450 842 q 525 876 494 872 q 589 881 555 881 q 626 883 605 881 q 664 891 646 885 q 694 908 682 897 q 705 939 705 919 "},"š":{"x_min":28,"x_max":514,"ha":531,"o":"m 280 680 q 194 670 239 680 q 112 637 150 660 q 51 577 75 614 q 28 489 28 540 q 53 396 28 430 q 116 341 78 362 q 199 306 154 319 q 281 275 243 293 q 344 232 319 258 q 370 159 370 205 q 363 125 370 144 q 340 91 356 107 q 302 64 325 75 q 246 53 279 53 q 173 66 206 53 q 117 80 140 80 q 89 75 101 80 q 76 50 76 69 q 94 19 76 32 q 136 0 111 7 q 189 -11 161 -8 q 239 -15 217 -15 q 360 0 308 -15 q 446 38 411 14 q 497 94 480 62 q 514 159 514 126 q 488 265 514 226 q 427 327 463 304 q 346 363 390 350 q 265 392 302 376 q 204 433 229 408 q 179 505 179 458 q 191 548 179 532 q 221 575 204 565 q 255 589 238 584 q 280 593 272 593 q 328 588 309 593 q 371 583 347 583 q 407 589 391 583 q 422 615 422 596 q 406 644 422 632 q 367 664 390 655 q 320 676 344 672 q 280 680 296 680 m 111 897 q 101 884 101 897 q 115 847 101 872 q 153 799 130 823 q 203 757 176 775 q 256 739 230 739 q 309 757 283 739 q 354 800 334 776 q 386 849 375 824 q 398 887 398 874 q 393 897 398 897 q 354 883 372 897 q 322 853 337 869 q 290 823 306 837 q 256 810 275 810 q 222 823 240 810 q 187 853 205 837 q 150 883 169 869 q 111 897 131 897 "},"Þ":{"x_min":58,"x_max":732,"ha":735,"o":"m 180 880 q 177 918 180 897 q 168 960 175 940 q 150 992 161 979 q 119 1006 138 1006 q 89 992 100 1006 q 71 960 77 979 q 62 919 64 940 q 59 880 59 897 l 58 142 q 60 69 58 96 q 69 29 63 42 q 87 12 76 16 q 119 8 99 8 q 154 20 141 8 q 173 53 167 33 q 181 98 180 73 q 183 147 183 123 q 192 211 183 193 q 226 233 202 229 q 292 231 251 236 q 395 227 333 227 q 526 241 465 227 q 633 288 587 256 q 705 374 679 321 q 732 503 732 426 q 694 648 732 594 q 596 731 656 702 q 461 769 535 760 q 313 779 387 779 q 258 777 282 779 q 217 778 234 776 q 191 788 200 780 q 180 818 181 797 l 180 880 m 186 509 q 201 597 186 564 q 242 648 217 630 q 297 672 267 666 q 351 678 326 678 q 419 671 379 678 q 496 645 459 664 q 559 592 533 626 q 586 504 586 558 q 563 416 586 451 q 507 359 541 380 q 431 330 473 339 q 349 321 388 321 q 230 364 274 321 q 186 509 186 407 "},"j":{"x_min":-39,"x_max":239,"ha":326,"o":"m 239 -71 l 239 553 q 224 637 239 612 q 180 663 209 663 q 133 632 145 663 q 121 551 121 601 l 121 14 q 120 -36 121 -10 q 114 -88 119 -62 q 98 -138 108 -114 q 69 -180 87 -162 q 30 -211 50 -200 q -4 -231 11 -222 q -29 -251 -19 -240 q -39 -281 -39 -262 q -13 -322 -39 -314 q 45 -331 11 -331 q 121 -314 86 -331 q 182 -264 156 -297 q 223 -182 208 -231 q 239 -71 239 -133 m 178 887 q 219 903 206 887 q 233 937 233 918 q 220 974 233 957 q 178 992 208 992 q 142 974 155 992 q 129 937 129 957 q 142 903 129 918 q 178 887 155 887 "},"1":{"x_min":17.703125,"x_max":407,"ha":539,"o":"m 407 872 q 385 963 407 925 q 322 1002 363 1002 q 264 988 296 1002 q 198 951 233 974 q 132 902 164 929 q 73 849 99 875 q 32 802 48 823 q 17 769 17 780 q 28 748 17 754 q 57 741 39 741 q 87 747 70 741 q 122 759 103 753 q 160 772 141 766 q 196 778 180 778 q 266 732 249 778 q 283 591 283 686 l 283 138 q 285 90 283 115 q 294 45 287 65 q 312 12 301 25 q 345 0 324 0 q 375 13 363 0 q 394 47 387 26 q 404 92 401 68 q 407 138 407 116 l 407 872 "},"›":{"x_min":39.203125,"x_max":349,"ha":391,"o":"m 123 558 q 81 582 101 572 q 50 592 61 592 q 39 580 39 592 q 54 541 39 555 q 89 514 69 528 l 151 473 q 197 439 178 457 q 217 387 217 422 q 195 334 217 354 q 150 298 173 315 l 91 259 q 57 235 73 247 q 40 199 40 223 q 53 186 40 186 q 83 194 64 186 q 123 215 103 202 l 229 279 q 267 300 246 288 q 305 323 287 311 q 336 352 323 336 q 349 387 349 368 q 338 423 349 408 q 312 450 328 437 q 276 473 296 462 q 237 494 257 483 l 123 558 "},"ä":{"x_min":67,"x_max":665,"ha":703,"o":"m 312 687 q 260 673 288 685 q 208 651 231 662 l 208 606 q 281 613 248 609 q 341 618 313 618 q 397 611 370 618 q 453 584 423 604 q 478 570 465 576 q 497 554 490 565 q 501 539 503 547 q 504 524 500 531 q 504 526 504 526 q 506 526 506 526 q 510 519 507 526 q 513 509 513 512 l 513 499 q 501 456 513 473 q 475 429 490 440 q 433 405 456 412 q 385 395 411 398 q 330 390 360 391 q 268 384 301 388 q 195 361 232 379 q 135 324 158 344 q 86 263 105 301 q 67 180 67 224 q 72 138 67 159 q 90 95 78 116 q 162 31 112 59 q 275 4 212 4 q 341 14 311 4 q 364 23 358 19 q 372 33 370 27 q 377 46 375 39 q 386 66 379 54 q 340 75 359 72 q 305 85 320 79 q 276 100 290 91 q 245 125 262 109 q 220 160 227 141 q 214 198 214 179 q 225 246 214 223 q 253 289 236 269 q 293 322 270 308 q 341 340 316 336 q 359 343 351 343 q 379 343 369 343 q 480 310 439 343 q 521 223 521 277 q 520 207 521 212 q 499 152 517 182 q 468 102 481 122 l 453 95 q 452 93 453 94 q 451 90 451 91 q 453 81 451 86 q 454 72 454 76 q 453 66 454 68 q 483 54 475 58 q 513 44 492 50 q 546 36 528 40 q 583 33 565 33 q 619 38 602 33 q 645 58 635 43 q 660 127 656 76 q 665 243 665 179 q 663 330 665 286 q 659 413 662 375 q 653 481 656 451 q 645 525 649 511 q 618 585 638 551 q 578 636 598 619 q 539 659 563 648 q 486 677 514 669 q 426 688 458 685 q 364 692 394 692 q 312 687 334 692 m 528 998 q 487 982 500 998 q 473 947 473 967 q 487 909 473 926 q 528 892 501 892 q 571 909 555 892 q 587 947 587 926 q 573 982 587 967 q 528 998 559 998 m 224 998 q 183 982 196 998 q 169 947 169 967 q 183 909 169 926 q 224 892 197 892 q 267 909 251 892 q 282 947 282 926 q 268 982 282 967 q 224 998 254 998 "},"<":{"x_min":69,"x_max":680.140625,"ha":745,"o":"m 609 620 q 662 653 645 638 q 678 694 678 667 q 655 711 678 711 q 593 695 635 711 q 503 659 550 680 q 407 617 455 638 q 332 581 360 595 q 302 566 305 567 q 221 535 262 549 q 146 504 180 522 q 90 465 112 487 q 69 410 69 442 q 98 362 69 384 q 169 321 128 339 q 253 287 210 302 q 321 262 296 273 q 351 247 324 260 q 424 214 378 234 q 515 173 470 194 q 598 139 560 153 q 648 126 635 126 q 671 132 662 126 q 680 149 680 138 q 665 179 680 162 q 614 217 650 196 q 539 251 589 233 q 441 294 489 270 q 355 347 392 317 q 319 416 319 377 q 344 482 319 455 q 411 531 370 509 q 504 573 452 552 q 609 620 556 594 "},"£":{"x_min":141,"x_max":747.140625,"ha":793,"o":"m 747 930 q 727 962 747 948 q 677 986 706 976 q 615 1002 648 996 q 556 1008 583 1008 q 468 998 506 1008 q 403 975 430 988 q 358 946 376 962 q 329 920 340 931 q 271 834 297 888 q 245 719 245 780 q 230 629 245 662 q 198 574 215 595 q 165 536 180 552 q 151 494 151 519 q 164 461 151 472 q 193 431 177 450 q 224 377 210 412 q 238 273 238 341 q 222 163 238 198 q 189 109 207 128 q 156 81 171 91 q 141 46 141 71 q 153 18 141 29 q 185 1 165 7 q 226 -5 204 -3 q 267 -8 247 -8 q 360 -6 305 -8 q 464 -3 414 -5 q 548 1 514 -1 q 583 3 583 3 q 623 4 601 3 q 664 10 644 5 q 696 21 683 14 q 710 40 710 28 q 698 55 710 48 q 669 64 686 61 q 631 69 651 68 q 594 71 611 71 q 498 80 541 71 q 424 114 455 90 q 376 178 393 137 q 360 282 360 219 q 375 371 360 336 q 415 428 391 407 q 467 461 438 450 q 519 477 495 472 q 558 487 542 483 q 574 498 574 491 q 558 508 574 504 q 519 518 542 512 q 467 534 495 525 q 416 563 440 544 q 376 610 392 581 q 361 681 361 638 q 372 749 361 711 q 408 821 383 787 q 472 879 433 855 q 569 904 512 904 q 595 901 579 904 q 628 895 611 898 q 663 890 645 892 q 692 887 680 887 q 731 895 716 887 q 747 930 747 904 "},"t":{"x_min":18,"x_max":401,"ha":438,"o":"m 292 716 q 264 757 273 734 q 246 802 255 781 q 224 837 237 823 q 188 851 212 851 q 153 836 165 851 q 133 800 141 821 q 115 756 124 780 q 90 716 106 732 q 43 672 69 695 q 18 623 18 649 q 34 586 18 602 q 72 550 51 570 q 109 501 92 530 q 126 425 126 473 l 126 246 q 133 150 126 196 q 162 66 141 103 q 221 8 184 30 q 317 -13 259 -13 q 372 -3 346 -13 q 398 31 398 6 q 388 56 398 46 q 366 74 379 66 q 337 91 353 82 q 309 113 321 100 q 264 177 277 145 q 251 246 251 209 l 251 427 q 274 510 251 481 q 326 557 298 539 q 377 588 353 575 q 401 621 401 600 q 393 646 401 638 q 371 661 385 653 q 337 680 357 669 q 292 716 317 691 "},"¬":{"x_min":24.984375,"x_max":1396,"ha":1423,"o":"m 57 -6 l 1201 -6 q 1283 5 1247 -6 q 1344 38 1319 17 q 1382 86 1369 59 q 1396 144 1396 113 q 1364 239 1396 204 q 1281 290 1333 273 q 1338 338 1316 307 q 1360 413 1360 369 q 1354 456 1360 436 q 1332 495 1348 476 l 1337 495 l 1337 689 l 1272 689 l 1266 560 l 861 560 l 861 821 l 540 821 l 540 994 l 613 994 l 613 1061 l 37 1061 l 24 913 l 93 913 l 98 994 l 250 994 l 250 560 l 57 560 l 57 -6 m 319 495 l 319 994 l 469 994 l 469 754 l 792 754 l 792 561 l 718 561 l 718 494 l 721 494 l 825 236 l 558 236 l 530 171 l 849 171 l 894 61 l 125 60 l 125 495 l 319 495 m 970 61 l 966 61 l 789 495 l 1158 495 q 1225 485 1200 495 q 1264 463 1250 476 q 1284 435 1279 450 q 1289 409 1289 420 q 1254 344 1289 370 q 1170 319 1219 319 l 1012 320 l 1012 253 l 1155 253 q 1194 250 1166 253 q 1250 239 1222 248 q 1301 210 1279 230 q 1323 154 1323 190 q 1305 99 1323 118 q 1261 71 1288 80 q 1203 61 1234 62 q 1142 60 1171 60 l 970 59 l 970 61 m 1269 865 l 1333 865 l 1329 1060 l 921 1060 l 921 753 l 1134 753 l 1134 682 l 1199 682 l 1199 892 l 1134 892 l 1134 820 l 990 820 l 990 993 l 1257 993 l 1269 865 m 469 563 l 487 315 l 553 316 l 570 563 l 469 563 "},"ù":{"x_min":57,"x_max":667,"ha":708,"o":"m 113 659 q 73 636 90 659 q 57 565 57 613 l 57 249 q 117 43 57 110 q 282 -24 177 -24 q 349 -16 323 -24 q 393 0 375 -8 q 430 17 412 9 q 476 25 448 25 q 512 22 498 25 q 538 16 526 19 q 564 10 550 13 q 600 8 578 8 q 653 46 639 8 q 667 156 667 85 l 667 516 q 664 572 667 545 q 656 617 662 598 q 638 648 650 637 q 605 659 626 659 q 574 647 586 659 q 555 617 562 635 q 545 576 548 598 q 543 537 543 555 l 543 331 q 533 244 543 288 q 503 163 523 199 q 451 102 483 126 q 377 79 420 79 q 275 99 315 79 q 212 163 235 120 q 181 269 190 206 q 172 419 172 333 l 172 554 q 157 631 172 604 q 113 659 142 659 m 273 944 q 284 890 273 926 q 309 820 294 855 q 341 760 323 786 q 370 734 358 734 q 402 748 394 734 q 411 798 411 762 q 404 847 411 815 q 387 912 398 880 q 358 968 376 944 q 318 993 340 993 q 273 944 273 993 "},"W":{"x_min":-18.0625,"x_max":1291.765625,"ha":1281,"o":"m 857 503 l 784 753 q 757 840 770 799 q 728 912 744 881 q 692 962 712 943 q 643 981 672 981 q 591 963 612 981 q 554 915 570 946 q 527 845 538 884 q 502 762 515 805 l 430 507 q 384 396 411 439 q 319 354 356 354 q 259 391 281 354 q 219 498 237 427 l 141 795 q 115 882 127 848 q 91 936 104 916 q 64 963 79 955 q 31 971 50 971 q -6 959 5 971 q -18 916 -18 947 q -11 868 -18 902 q 8 789 -5 834 l 147 320 q 170 243 158 284 q 195 163 181 202 q 223 88 208 123 q 256 31 238 54 q 311 0 284 0 q 377 43 354 0 q 426 168 401 86 l 543 544 q 584 640 563 611 q 640 669 604 669 q 701 638 676 669 q 741 551 726 607 l 848 162 q 872 85 861 118 q 900 33 884 52 q 966 -1 925 -1 q 1008 8 991 -1 q 1038 36 1025 17 q 1079 139 1062 72 q 1126 307 1097 207 l 1268 793 q 1286 864 1280 833 q 1291 910 1291 894 q 1240 965 1291 965 q 1195 938 1213 965 q 1157 840 1176 911 q 1147 804 1157 840 q 1123 717 1137 768 q 1094 608 1109 665 q 1068 511 1079 551 q 1025 391 1048 432 q 965 350 1001 350 q 902 392 929 350 q 857 503 876 435 "},"ï":{"x_min":6.9375,"x_max":306.96875,"ha":303,"o":"m 215 540 q 212 578 215 556 q 203 619 210 599 q 185 651 196 638 q 153 665 173 665 q 124 651 135 665 q 107 619 113 638 q 99 578 101 599 q 97 540 97 556 l 97 112 q 99 79 97 98 q 107 44 101 60 q 124 15 113 27 q 153 4 135 4 q 183 15 171 4 q 202 42 195 26 q 212 78 209 59 q 215 112 215 97 l 215 540 m 247 849 q 206 833 219 849 q 193 798 193 818 q 206 760 193 777 q 247 743 220 743 q 290 760 275 743 q 306 798 306 777 q 293 833 306 818 q 247 849 279 849 m 61 849 q 20 833 33 849 q 6 798 6 818 q 20 760 6 777 q 61 743 34 743 q 104 760 88 743 q 119 798 119 777 q 105 833 119 818 q 61 849 91 849 "},">":{"x_min":70.859375,"x_max":682,"ha":743,"o":"m 141 623 q 246 576 194 597 q 339 534 298 555 q 406 485 380 512 q 432 419 432 458 q 414 371 432 393 q 370 331 397 349 q 309 297 343 312 q 243 268 276 281 q 181 243 211 255 q 136 222 152 231 q 85 182 100 199 q 70 152 70 165 q 80 135 70 141 q 102 129 90 129 q 153 143 115 129 q 236 177 191 158 q 327 217 281 197 q 400 251 373 238 q 430 266 427 265 q 498 290 455 276 q 582 324 541 305 q 652 365 622 342 q 682 413 682 387 q 660 468 682 445 q 604 507 638 490 q 529 538 570 525 q 448 569 487 552 q 418 584 445 570 q 343 620 390 598 q 247 662 295 641 q 157 698 200 683 q 95 714 115 714 q 73 697 73 714 q 89 656 73 670 q 141 623 105 641 "},"v":{"x_min":-5.5625,"x_max":590.328125,"ha":593,"o":"m 38 653 q 5 642 16 653 q -5 603 -5 632 q 4 555 -5 587 q 29 483 13 522 l 145 184 q 172 114 159 147 q 202 56 186 80 q 240 17 219 32 q 294 3 262 3 q 347 14 326 3 q 386 50 369 26 q 416 107 402 73 q 447 185 430 140 l 558 482 q 590 597 590 563 q 582 633 590 621 q 552 645 575 645 q 518 632 533 645 q 491 600 502 619 q 469 556 479 581 q 451 508 459 532 l 409 401 q 388 348 400 373 q 365 302 377 322 q 336 269 352 282 q 300 257 320 257 q 261 269 279 257 q 231 302 244 282 q 206 350 218 323 q 184 407 194 377 l 145 515 q 126 566 136 541 q 104 609 116 590 q 75 641 91 629 q 38 653 59 653 "},"û":{"x_min":57,"x_max":667,"ha":708,"o":"m 113 659 q 73 636 90 659 q 57 565 57 613 l 57 249 q 117 43 57 110 q 282 -24 177 -24 q 349 -16 323 -24 q 393 0 375 -8 q 430 17 412 9 q 476 25 448 25 q 512 22 498 25 q 538 16 526 19 q 564 10 550 13 q 600 8 578 8 q 653 46 639 8 q 667 156 667 85 l 667 516 q 664 572 667 545 q 656 617 662 598 q 638 648 650 637 q 605 659 626 659 q 574 647 586 659 q 555 617 562 635 q 545 576 548 598 q 543 537 543 555 l 543 331 q 533 244 543 288 q 503 163 523 199 q 451 102 483 126 q 377 79 420 79 q 275 99 315 79 q 212 163 235 120 q 181 269 190 206 q 172 419 172 333 l 172 554 q 157 631 172 604 q 113 659 142 659 m 495 757 q 505 769 505 757 q 491 806 505 781 q 453 854 476 830 q 403 896 430 878 q 350 915 376 915 q 297 896 322 915 q 252 853 272 877 q 220 804 231 829 q 208 766 208 779 q 213 757 208 757 q 252 770 234 757 q 284 800 269 784 q 316 830 300 816 q 350 844 331 844 q 384 830 366 844 q 419 800 401 816 q 456 770 437 784 q 495 757 475 757 "},"Ò":{"x_min":22,"x_max":1068,"ha":1075,"o":"m 1068 480 q 1024 725 1068 623 q 907 892 980 827 q 738 988 834 957 q 535 1019 641 1019 q 316 977 412 1019 q 155 862 220 935 q 56 692 90 789 q 22 480 22 594 q 58 287 22 379 q 160 126 94 195 q 322 15 227 56 q 535 -25 417 -25 q 747 11 649 -25 q 915 113 844 47 q 1027 272 987 179 q 1068 480 1068 365 m 161 480 q 192 664 161 584 q 276 798 224 744 q 396 880 328 852 q 535 908 464 908 q 691 879 619 908 q 816 796 763 851 q 899 661 868 741 q 930 480 930 581 q 900 329 930 401 q 819 204 871 258 q 695 117 767 149 q 535 86 623 86 q 376 122 445 86 q 258 215 306 158 q 185 343 210 273 q 161 480 161 413 m 479 1323 q 489 1269 479 1305 q 514 1199 500 1234 q 546 1139 529 1165 q 576 1113 563 1113 q 608 1127 600 1113 q 616 1177 616 1141 q 610 1226 616 1194 q 593 1291 604 1259 q 563 1347 581 1323 q 523 1372 545 1372 q 479 1323 479 1372 "},"\n":{"x_min":80.5625,"x_max":593.109375,"ha":650,"o":"m 593 923 q 576 955 593 943 q 540 967 559 967 q 520 966 531 967 q 497 964 509 965 q 473 961 484 962 q 455 961 462 961 q 427 951 437 961 q 406 926 416 941 q 389 899 401 918 q 366 860 377 880 q 345 822 354 840 q 336 797 336 804 q 352 770 336 777 q 402 764 368 764 q 470 786 454 764 q 502 821 481 801 q 543 862 523 841 q 578 898 563 882 q 593 923 593 915 m 337 923 q 321 955 337 943 q 284 967 305 967 q 265 966 276 967 q 241 964 254 965 q 218 961 229 962 q 200 961 206 961 q 171 951 181 961 q 151 926 161 941 q 134 899 145 918 q 110 860 122 880 q 89 822 98 840 q 80 797 80 804 q 96 770 80 777 q 148 764 112 764 q 215 786 201 764 q 247 821 226 801 q 288 862 268 841 q 322 898 308 882 q 337 923 337 915 "},"&":{"x_min":2,"x_max":832.171875,"ha":824,"o":"m 628 794 q 607 890 628 850 q 551 956 586 930 q 471 994 516 982 q 375 1006 425 1006 q 276 992 324 1006 q 190 952 228 979 q 131 883 153 925 q 109 785 109 842 q 117 714 109 739 q 136 669 125 689 q 155 626 146 648 q 165 562 165 603 q 153 510 165 532 q 123 469 141 487 q 83 430 105 450 q 43 382 61 410 q 13 319 25 355 q 2 228 2 282 q 24 130 2 176 q 89 48 47 83 q 188 -8 131 12 q 315 -29 246 -29 q 428 -15 385 -29 q 503 16 472 -1 q 561 47 535 33 q 621 61 587 61 q 672 52 653 61 q 707 35 691 44 q 739 18 722 26 q 783 9 755 9 q 826 37 826 9 q 814 73 826 57 q 789 110 803 90 q 764 155 776 130 q 753 215 753 179 q 765 286 753 255 q 792 339 778 316 q 819 379 807 362 q 832 408 832 396 q 823 442 832 425 q 797 460 815 460 q 751 445 771 460 q 713 412 732 430 q 671 380 694 394 q 615 365 648 365 q 561 378 584 365 q 521 412 537 391 q 495 458 504 433 q 486 507 486 483 q 508 579 486 550 q 557 637 530 608 q 605 702 583 667 q 628 794 628 737 m 146 248 q 159 327 146 294 q 194 380 173 359 q 238 411 215 401 q 281 421 262 421 q 352 400 315 421 q 422 348 390 379 q 476 279 455 316 q 497 209 497 243 q 485 159 497 184 q 451 115 473 134 q 399 83 430 95 q 331 72 369 72 q 248 88 283 72 q 191 131 213 105 q 157 188 168 158 q 146 248 146 219 m 241 765 q 252 821 241 797 q 281 862 263 846 q 323 887 300 879 q 369 896 346 896 q 429 885 405 896 q 468 857 453 875 q 488 816 482 839 q 494 771 494 794 q 483 712 494 737 q 455 669 473 686 q 416 643 438 652 q 369 634 394 634 q 317 645 340 634 q 276 674 293 656 q 249 717 258 693 q 241 765 241 740 "},"Ð":{"x_min":-11.515625,"x_max":1032,"ha":1047,"o":"m 84 563 q 17 549 46 563 q -11 513 -11 536 q 18 479 -11 489 q 84 470 48 470 l 151 470 l 151 161 q 155 93 151 123 q 173 43 159 63 q 210 11 187 22 q 275 0 234 0 l 443 0 q 569 6 508 0 q 688 30 630 12 q 800 81 745 48 q 907 166 854 113 q 952 220 929 189 q 992 294 975 252 q 1020 388 1009 336 q 1032 505 1032 440 q 1000 705 1032 623 q 904 853 969 787 q 806 927 858 899 q 699 972 755 956 q 585 995 644 989 q 469 1002 527 1002 l 286 1002 q 215 990 241 1002 q 173 961 188 979 q 155 917 159 942 q 151 863 151 892 l 151 563 l 84 563 m 279 674 q 285 765 279 725 q 311 833 292 806 q 365 874 330 860 q 455 888 399 888 q 629 866 548 888 q 769 799 710 844 q 862 680 828 753 q 897 503 897 607 q 860 331 897 404 q 763 208 824 257 q 622 136 702 160 q 455 113 542 113 q 367 125 402 113 q 313 162 333 138 q 286 222 294 186 q 279 307 279 258 l 279 470 l 526 470 q 593 481 562 470 q 624 513 624 493 q 593 550 624 538 q 526 563 562 563 l 279 563 l 279 674 "},"I":{"x_min":103,"x_max":231,"ha":335,"o":"m 231 872 q 229 912 231 890 q 221 951 228 933 q 202 980 215 968 q 167 992 189 992 q 131 980 144 992 q 112 950 118 968 q 104 911 105 932 q 103 872 103 890 l 103 138 q 114 38 103 77 q 168 0 125 0 q 203 11 190 0 q 221 40 215 22 q 229 84 228 59 q 231 138 231 109 l 231 872 "},"G":{"x_min":17,"x_max":947,"ha":974,"o":"m 850 903 q 821 961 850 938 q 745 998 791 984 q 646 1018 699 1012 q 546 1025 592 1025 q 334 986 431 1025 q 166 877 236 947 q 56 712 96 808 q 17 501 17 616 q 42 316 17 396 q 110 177 68 236 q 207 79 153 118 q 319 17 261 40 q 435 -16 377 -6 q 541 -26 493 -26 q 643 -20 588 -26 q 747 -4 697 -14 q 838 22 797 5 q 902 61 880 39 q 947 208 947 104 l 947 401 q 935 485 947 454 q 903 532 923 516 q 858 553 883 548 q 808 557 833 557 q 746 555 777 557 q 689 547 714 553 q 647 532 663 541 q 631 507 631 522 q 644 472 631 483 q 678 453 658 461 q 721 437 698 444 q 764 411 744 429 q 797 362 784 393 q 811 279 811 332 q 802 216 811 250 q 766 153 794 182 q 687 104 738 123 q 551 85 636 85 q 392 116 465 85 q 267 205 320 148 q 184 336 214 261 q 155 498 155 411 q 187 672 155 595 q 273 800 220 748 q 396 880 327 852 q 538 908 464 908 q 632 900 598 908 q 691 883 667 892 q 734 865 714 873 q 784 858 755 858 l 787 858 q 832 867 813 858 q 850 903 850 877 "},"`":{"x_min":122.234375,"x_max":259.75,"ha":350,"o":"m 122 948 q 132 895 122 930 q 157 825 143 859 q 189 764 172 790 q 219 739 206 739 q 251 752 243 739 q 259 802 259 766 q 253 852 259 819 q 236 916 247 884 q 206 972 225 948 q 166 997 188 997 q 122 948 122 997 "},"·":{"x_min":80.5625,"x_max":202.796875,"ha":272,"o":"m 202 448 q 183 494 202 475 q 140 513 163 513 q 97 493 113 513 q 80 448 80 473 q 98 407 80 425 q 140 389 116 389 q 183 407 163 389 q 202 448 202 425 "},"r":{"x_min":82,"x_max":480.40625,"ha":482,"o":"m 417 663 q 381 657 395 663 q 351 645 366 651 q 319 633 337 639 q 273 628 301 628 q 219 636 241 628 q 165 644 197 644 q 119 633 136 644 q 94 603 102 621 q 84 563 86 585 q 82 523 82 542 l 82 108 q 85 72 82 90 q 96 38 88 54 q 115 13 104 23 q 144 4 127 4 q 170 13 159 4 q 189 40 181 23 q 200 78 197 56 q 204 122 204 99 l 204 293 q 224 428 204 383 q 267 496 244 473 q 322 537 295 523 q 394 561 349 551 q 454 578 429 568 q 480 622 480 589 q 465 651 480 639 q 417 663 449 663 "},"¿":{"x_min":39,"x_max":590.921875,"ha":628,"o":"m 39 98 q 61 0 39 43 q 121 -74 83 -43 q 212 -123 160 -106 q 324 -141 264 -141 q 439 -120 389 -141 q 522 -71 489 -99 q 573 -14 556 -43 q 590 30 590 14 q 577 73 590 61 q 545 85 564 85 q 493 68 514 85 q 449 32 471 51 q 399 -3 427 13 q 329 -20 372 -20 q 256 -4 285 -20 q 209 33 227 10 q 184 82 192 56 q 177 130 177 109 q 207 231 177 185 q 274 317 238 277 q 340 396 310 357 q 371 478 371 435 q 361 524 371 503 q 327 545 352 545 q 288 527 303 545 q 260 483 274 509 q 230 427 246 457 q 189 371 214 396 q 150 334 175 357 q 100 275 125 310 q 57 196 75 241 q 39 98 39 152 m 334 861 q 288 843 305 861 q 270 802 270 825 q 286 760 270 779 q 334 742 302 742 q 377 760 362 742 q 391 802 391 779 q 379 843 391 825 q 334 861 366 861 "},"ý":{"x_min":18.0625,"x_max":615.328125,"ha":638,"o":"m 58 658 q 26 641 34 658 q 18 604 18 623 q 35 538 18 579 q 72 448 52 497 l 213 108 q 238 32 231 66 q 245 -33 245 -1 q 238 -86 245 -62 q 219 -129 230 -110 q 196 -162 208 -148 q 176 -184 184 -176 q 127 -219 154 -206 q 77 -241 101 -231 q 38 -262 54 -251 q 22 -291 22 -273 q 42 -324 22 -309 q 98 -340 62 -340 q 190 -323 151 -340 q 260 -272 229 -306 q 317 -185 291 -238 q 370 -60 343 -133 l 580 486 q 615 607 615 576 q 606 635 615 622 q 576 648 597 648 q 540 637 555 648 q 513 606 525 625 q 493 565 501 587 q 477 523 484 543 l 436 405 q 392 315 416 351 q 327 279 368 279 q 263 317 290 279 q 219 401 237 354 l 170 522 q 150 572 161 547 q 125 616 138 597 q 95 646 112 635 q 58 658 79 658 m 412 941 q 368 990 412 990 q 327 965 344 990 q 298 909 309 941 q 281 844 287 877 q 275 795 275 812 q 283 745 275 759 q 315 731 291 731 q 345 757 327 731 q 377 817 362 783 q 402 887 391 852 q 412 941 412 923 "},"x":{"x_min":30.046875,"x_max":584.5625,"ha":614,"o":"m 107 649 q 77 643 88 649 q 67 621 67 637 q 86 565 67 594 q 127 503 105 536 q 168 433 149 471 q 187 351 187 396 q 162 273 187 316 q 108 189 138 230 q 54 112 78 147 q 30 59 30 77 q 36 23 30 33 q 68 14 43 14 q 127 41 100 14 q 180 100 153 68 q 235 160 206 133 q 303 187 264 187 q 373 160 342 187 q 430 100 403 133 q 482 41 456 68 q 537 14 508 14 q 571 19 558 14 q 584 47 584 25 q 560 109 584 73 q 506 187 535 146 q 453 271 477 228 q 429 354 429 314 q 446 434 429 397 q 483 503 463 471 q 521 563 504 535 q 538 614 538 590 q 505 645 538 645 q 456 624 477 645 q 414 579 435 603 q 367 533 392 554 q 308 513 342 513 q 248 534 273 513 q 202 581 224 556 q 159 627 181 606 q 107 649 137 649 "},"è":{"x_min":28,"x_max":679,"ha":678,"o":"m 679 394 q 656 506 679 455 q 594 593 633 557 q 504 649 555 629 q 398 670 454 670 q 247 647 315 670 q 130 579 179 624 q 54 468 80 533 q 28 318 28 403 q 57 193 28 251 q 135 92 86 135 q 246 24 184 49 q 375 -1 309 -1 q 468 8 429 -1 q 529 29 506 17 q 564 55 553 42 q 575 78 575 69 q 568 107 575 97 q 542 117 561 117 q 502 110 521 117 q 463 95 484 103 q 419 80 442 87 q 368 74 396 74 q 309 83 341 74 q 252 108 278 92 q 208 151 225 125 q 191 209 191 176 q 206 264 191 243 q 247 298 222 286 q 301 316 272 311 q 357 321 331 321 q 428 318 397 321 q 482 312 458 315 q 525 307 505 309 q 563 304 544 304 q 649 329 619 304 q 679 394 679 354 m 188 475 q 201 528 188 503 q 235 573 214 554 q 286 605 257 593 q 347 617 315 617 q 413 607 380 617 q 471 578 445 597 q 513 533 496 560 q 530 472 530 507 q 516 422 530 443 q 480 388 503 401 q 427 369 458 375 q 363 363 397 363 q 307 367 337 363 q 250 385 276 372 q 206 419 224 397 q 188 475 188 442 m 281 940 q 292 886 281 922 q 317 816 302 851 q 349 756 331 782 q 379 730 366 730 q 411 744 402 730 q 419 794 419 758 q 413 843 419 811 q 395 908 406 876 q 366 964 384 940 q 326 989 348 989 q 281 940 281 989 "},"º":{"x_min":54,"x_max":448,"ha":490,"o":"m 448 750 q 431 842 448 804 q 386 905 414 880 q 323 941 359 929 q 246 953 287 953 q 164 937 201 953 q 103 893 128 921 q 66 830 78 866 q 54 750 54 793 q 67 676 54 711 q 106 616 81 641 q 167 575 131 590 q 246 560 202 560 q 326 573 289 560 q 390 611 363 586 q 432 671 417 636 q 448 750 448 707 m 150 754 q 180 841 150 811 q 251 871 210 871 q 327 840 296 871 q 359 754 359 810 q 329 679 359 710 q 251 648 299 648 q 207 657 226 648 q 176 683 188 667 q 156 717 163 699 q 150 754 150 736 m 156 400 q 89 386 118 400 q 60 350 60 373 q 89 316 60 326 q 156 307 119 307 l 346 307 q 413 318 382 307 q 445 350 445 330 q 413 387 445 375 q 346 400 382 400 l 156 400 "},"Ø":{"x_min":22,"x_max":1068,"ha":1075,"o":"m 806 993 q 822 1058 822 1033 q 815 1093 823 1083 q 788 1073 804 1093 q 755 1012 772 1053 l 744 985 q 535 1019 645 1019 q 316 977 412 1019 q 155 862 220 935 q 56 691 90 789 q 22 480 22 594 q 42 334 22 405 q 100 203 62 263 q 194 94 138 142 q 319 17 249 46 l 297 -32 q 293 -44 295 -35 q 291 -62 291 -53 q 293 -83 291 -74 q 301 -99 295 -93 q 326 -80 312 -99 q 352 -36 341 -61 l 367 0 q 535 -25 444 -25 q 747 11 649 -25 q 915 113 844 47 q 1027 272 987 179 q 1068 480 1068 365 q 1047 653 1068 576 q 990 790 1027 730 q 904 894 954 851 q 794 965 854 937 l 806 993 m 161 480 q 192 664 161 584 q 276 798 224 744 q 397 880 329 852 q 536 908 465 908 q 695 877 619 908 l 366 126 q 278 192 316 152 q 213 280 240 232 q 174 378 187 327 q 161 480 161 430 m 930 480 q 900 329 930 401 q 819 204 871 258 q 695 117 767 149 q 535 86 623 86 q 472 90 502 86 q 414 105 442 95 l 743 852 q 879 707 828 801 q 930 480 930 613 "},"÷":{"x_min":90.28125,"x_max":726.453125,"ha":788,"o":"m 186 393 q 119 379 148 393 q 90 343 90 366 q 120 309 90 319 q 186 300 150 300 l 627 300 q 695 311 663 300 q 726 343 726 323 q 695 380 726 368 q 627 393 663 393 l 186 393 m 474 521 q 454 566 474 547 q 411 585 435 585 q 368 565 385 585 q 352 521 352 546 q 370 479 352 497 q 411 461 388 461 q 454 479 435 461 q 474 521 474 497 m 468 153 q 448 198 468 180 q 405 217 429 217 q 362 198 379 217 q 346 153 346 178 q 364 112 346 130 q 405 94 382 94 q 448 112 429 94 q 468 153 468 130 "},"\u001f":{"x_min":25,"x_max":542,"ha":567,"o":"m 430 668 l 243 664 q 127 654 170 661 q 84 626 84 646 q 101 604 84 610 q 143 594 117 597 q 198 587 169 590 q 253 574 227 583 q 296 548 279 565 q 313 499 313 531 q 291 433 313 467 q 237 363 269 399 q 168 292 205 328 q 98 222 130 257 q 45 153 66 186 q 25 90 25 119 q 53 25 25 47 q 126 4 82 4 l 144 4 l 429 13 q 450 13 436 13 q 480 17 465 14 q 505 28 494 21 q 515 46 515 35 q 496 69 515 63 q 447 78 476 75 q 384 83 418 81 q 321 93 350 85 q 272 119 291 101 q 253 172 253 138 q 274 238 253 204 q 328 307 296 272 q 397 378 359 342 q 466 449 435 414 q 520 519 498 485 q 542 588 542 554 q 507 650 542 631 q 430 668 473 670 m 170 905 q 160 892 160 905 q 175 855 160 880 q 212 807 189 831 q 262 765 235 783 q 316 747 289 747 q 368 765 342 747 q 413 808 393 784 q 445 857 434 832 q 457 895 457 882 q 452 905 457 905 q 413 891 431 905 q 381 861 396 877 q 350 831 366 845 q 316 818 334 818 q 281 831 299 818 q 246 861 264 845 q 209 891 228 877 q 170 905 191 905 "},"h":{"x_min":84,"x_max":737,"ha":793,"o":"m 203 903 q 186 999 203 971 q 140 1028 169 1028 q 114 1017 125 1028 q 96 989 103 1007 q 86 950 89 972 q 84 908 84 929 l 84 111 q 99 29 84 58 q 143 0 115 0 q 173 10 161 0 q 191 37 185 20 q 200 75 197 54 q 203 119 203 97 l 203 318 q 219 408 203 358 q 273 497 236 458 q 291 514 282 505 q 313 531 300 523 q 345 544 326 538 q 391 550 364 550 q 497 529 454 550 q 568 474 541 509 q 606 390 594 438 q 618 283 618 341 l 618 115 q 634 26 618 52 q 680 0 651 0 q 723 32 709 0 q 737 119 737 65 l 737 367 q 728 459 737 409 q 694 552 720 509 q 619 624 667 595 q 491 654 571 654 q 427 648 451 654 q 384 635 402 643 q 350 622 366 627 q 308 617 333 617 q 233 651 264 617 q 203 744 203 685 l 203 903 "},"\u0005":{"x_min":105.5625,"x_max":438.921875,"ha":531,"o":"m 438 927 q 429 959 438 950 q 380 969 420 969 q 345 959 351 969 q 329 939 338 950 q 306 918 315 928 q 280 907 297 907 q 247 918 262 907 q 220 941 231 928 q 210 953 213 948 q 201 962 206 959 q 186 967 195 966 q 155 969 176 969 q 114 960 123 969 q 105 927 105 952 q 120 890 105 910 q 159 853 134 870 q 214 826 183 837 q 280 815 245 815 q 344 825 315 815 q 394 852 373 835 q 427 889 415 869 q 438 927 438 909 "},"\b":{"x_min":24,"x_max":207,"ha":243,"o":"m 109 1025 q 46 1002 69 1025 q 24 944 24 980 q 31 908 24 929 q 51 868 39 887 q 79 837 64 850 q 109 825 94 825 q 141 838 123 825 q 173 872 158 852 q 197 912 187 891 q 207 948 207 933 q 178 1003 207 981 q 109 1025 150 1025 m 76 932 q 87 958 76 947 q 109 969 98 969 q 135 958 122 969 q 148 929 148 947 q 136 905 148 916 q 109 894 123 894 q 86 904 95 894 q 76 932 76 915 "},".":{"x_min":72.234375,"x_max":194.453125,"ha":272,"o":"m 194 56 q 175 102 194 83 q 131 121 155 121 q 88 101 105 121 q 72 56 72 81 q 90 15 72 33 q 131 -3 108 -3 q 175 15 155 -3 q 194 56 194 33 "},";":{"x_min":86.125,"x_max":236.125,"ha":379,"o":"m 116 -142 q 157 -114 138 -142 q 190 -52 176 -87 q 211 15 204 -16 q 219 61 219 48 q 210 107 219 97 q 183 118 201 118 q 140 91 158 118 q 109 29 122 65 q 91 -43 97 -7 q 86 -97 86 -79 q 92 -130 86 -119 q 116 -142 98 -142 m 236 572 q 221 617 236 596 q 175 638 206 638 q 130 617 145 638 q 115 572 115 597 q 132 535 115 553 q 175 518 150 518 q 219 535 202 518 q 236 572 236 551 "},"f":{"x_min":68,"x_max":473.078125,"ha":511,"o":"m 473 1000 q 455 1035 473 1025 q 395 1045 436 1045 q 298 1023 339 1045 q 231 966 257 1001 q 191 885 204 931 q 178 793 178 840 q 160 697 178 728 q 123 650 143 666 q 85 619 102 633 q 68 573 68 605 q 85 536 68 551 q 123 500 102 522 q 162 443 144 479 q 181 341 181 406 l 181 98 q 196 28 181 55 q 240 1 212 1 q 284 32 269 1 q 299 105 299 64 l 299 368 q 322 466 299 433 q 374 517 346 500 q 425 544 401 534 q 449 573 449 554 q 438 604 449 593 q 411 623 428 615 q 377 638 395 630 q 342 661 359 646 q 315 701 325 676 q 305 768 305 726 q 317 848 305 817 q 348 899 330 879 q 389 932 367 919 q 429 953 410 944 q 460 973 448 962 q 473 1000 473 983 "},"“":{"x_min":81.953125,"x_max":502.8125,"ha":583,"o":"m 365 792 q 375 751 365 761 q 409 742 386 742 q 450 766 431 742 q 479 823 468 790 q 496 888 490 856 q 502 938 502 921 q 462 1002 502 1002 q 432 975 450 1002 q 400 914 415 949 q 375 844 386 879 q 365 792 365 810 m 81 792 q 92 751 81 761 q 126 742 102 742 q 165 766 148 742 q 195 823 183 790 q 212 888 206 856 q 218 938 218 921 q 209 986 218 970 q 179 1002 201 1002 q 148 975 165 1002 q 117 914 131 949 q 92 844 102 879 q 81 792 81 810 "},"A":{"x_min":-2.78125,"x_max":891.734375,"ha":889,"o":"m 613 726 q 572 824 590 779 q 536 901 555 868 q 495 951 518 933 q 441 970 473 970 q 392 952 412 970 q 354 905 372 935 q 320 834 336 875 q 283 747 304 793 l 115 362 q 84 296 104 338 q 45 208 65 254 q 11 119 26 162 q -2 53 -2 77 q 11 12 -2 23 q 54 1 25 1 q 94 21 76 1 q 129 71 112 42 q 160 127 145 99 q 188 170 175 155 q 229 202 209 191 q 271 219 248 214 q 324 226 294 225 q 395 228 354 228 l 490 228 q 554 226 526 228 q 604 219 581 225 q 646 202 627 214 q 684 173 665 191 q 722 120 707 150 q 754 63 738 90 q 789 18 769 37 q 843 0 809 0 q 882 18 873 0 q 891 47 891 37 l 891 48 q 878 107 891 69 q 847 189 865 145 q 811 275 830 233 q 779 347 791 318 l 613 726 m 288 440 q 300 500 288 455 q 331 592 311 544 q 377 677 351 640 q 436 714 404 714 q 478 696 458 714 q 515 652 498 679 q 545 594 531 626 q 567 532 558 562 q 581 480 576 503 q 586 447 586 457 q 553 357 586 390 q 438 324 520 324 q 328 351 368 324 q 288 440 288 378 "},"6":{"x_min":50,"x_max":723,"ha":742,"o":"m 490 941 q 483 973 490 961 q 451 985 475 985 q 380 951 415 985 q 314 869 344 918 l 207 698 q 150 608 177 652 q 100 516 122 563 q 63 417 77 469 q 50 309 50 366 q 72 176 50 235 q 139 74 95 116 q 246 9 183 32 q 387 -13 308 -13 q 524 11 462 -13 q 630 78 586 35 q 698 180 674 121 q 723 306 723 238 q 714 390 723 353 q 692 455 706 427 q 662 503 678 483 q 632 538 646 523 q 549 593 592 577 q 471 619 507 608 q 412 648 435 630 q 389 711 389 666 q 405 778 389 747 q 440 838 421 809 q 474 892 458 866 q 490 941 490 918 m 179 320 q 195 392 179 355 q 238 459 211 428 q 306 510 266 489 q 394 530 346 530 q 455 519 419 530 q 523 482 490 507 q 578 414 555 456 q 601 310 601 373 q 584 230 601 269 q 539 163 567 192 q 472 117 511 134 q 390 101 433 101 q 307 118 346 101 q 240 166 269 135 q 195 236 212 196 q 179 320 179 276 "},"‘":{"x_min":109.734375,"x_max":247.234375,"ha":339,"o":"m 109 791 q 120 751 109 761 q 154 742 130 742 q 195 766 177 742 q 224 823 212 790 q 241 888 236 855 q 247 937 247 920 q 206 1001 247 1001 q 177 974 194 1001 q 145 913 159 948 q 120 844 130 879 q 109 791 109 809 "},"O":{"x_min":22,"x_max":1068,"ha":1075,"o":"m 1068 480 q 1024 725 1068 623 q 907 892 980 827 q 738 988 834 957 q 535 1019 641 1019 q 316 977 412 1019 q 155 862 220 935 q 56 692 90 789 q 22 480 22 594 q 58 287 22 379 q 160 126 94 195 q 322 15 227 56 q 535 -25 417 -25 q 747 11 649 -25 q 915 113 844 47 q 1027 272 987 179 q 1068 480 1068 365 m 161 480 q 192 664 161 584 q 276 798 224 744 q 396 880 328 852 q 535 908 464 908 q 691 879 619 908 q 816 796 763 851 q 899 661 868 741 q 930 480 930 581 q 900 329 930 401 q 819 204 871 258 q 695 117 767 149 q 535 86 623 86 q 376 122 445 86 q 258 215 306 158 q 185 343 210 273 q 161 480 161 413 "},"n":{"x_min":54.890625,"x_max":711,"ha":763,"o":"m 711 387 q 690 527 711 472 q 637 616 670 583 q 559 662 603 649 q 466 676 515 676 q 383 667 412 676 q 335 650 355 659 q 295 633 314 641 q 239 625 275 625 q 209 627 219 625 q 189 634 199 630 q 164 640 180 637 q 118 643 149 643 q 69 602 85 643 q 55 504 53 561 l 55 100 q 71 29 55 55 q 110 3 88 3 q 161 35 146 3 q 176 122 176 68 l 176 337 q 188 430 176 387 q 223 506 201 473 q 280 556 246 538 q 356 575 313 575 q 444 565 400 575 q 520 524 487 555 q 573 433 553 493 q 594 275 594 373 l 594 104 q 651 3 594 3 q 681 15 669 3 q 699 47 692 27 q 708 91 705 66 q 711 138 711 115 l 711 387 "},"3":{"x_min":41.515625,"x_max":635,"ha":678,"o":"m 610 780 q 589 865 610 823 q 531 939 569 906 q 439 991 492 972 q 319 1011 385 1011 q 214 999 260 1011 q 134 970 167 988 q 83 928 101 951 q 65 883 65 905 q 75 849 65 864 q 116 835 85 835 q 169 845 148 835 q 210 870 190 856 q 255 894 230 883 q 322 905 280 905 q 383 893 354 905 q 435 861 413 882 q 472 811 458 841 q 486 746 486 782 q 470 667 486 696 q 433 621 455 638 q 384 595 410 604 q 335 577 358 585 q 298 555 313 568 q 283 518 283 542 q 299 484 283 496 q 342 463 316 472 q 397 443 367 454 q 451 413 426 432 q 494 361 477 393 q 511 275 511 328 q 499 214 511 246 q 465 156 488 182 q 407 112 442 129 q 324 95 372 95 q 242 109 273 95 q 188 140 210 123 q 145 172 166 158 q 94 186 124 186 q 56 174 70 186 q 41 131 41 163 q 63 80 41 106 q 122 34 84 55 q 210 0 159 13 q 320 -13 260 -13 q 437 6 380 -13 q 538 60 494 25 q 608 144 582 95 q 635 253 635 194 q 618 355 635 319 q 580 417 601 392 q 542 465 559 442 q 526 526 526 488 q 539 590 526 565 q 568 640 552 615 q 596 696 583 665 q 610 780 610 728 "},"9":{"x_min":31,"x_max":707,"ha":718,"o":"m 707 683 q 684 814 707 754 q 617 919 661 875 q 511 988 573 963 q 372 1014 450 1014 q 258 998 318 1014 q 148 943 198 982 q 64 843 97 905 q 31 688 31 780 q 53 562 31 618 q 107 476 76 506 q 180 420 148 434 q 238 399 211 406 q 291 383 265 392 q 346 345 316 374 q 362 322 355 337 q 368 292 368 308 q 352 231 368 263 q 316 167 336 199 q 280 106 296 135 q 264 56 264 77 q 275 25 264 35 q 305 15 286 15 q 363 42 333 15 q 420 106 393 69 q 469 181 447 142 q 507 244 491 220 q 565 331 530 281 q 631 436 600 380 q 684 555 662 492 q 707 683 707 618 m 152 690 q 168 765 152 727 q 213 832 185 802 q 278 881 240 862 q 360 900 317 900 q 444 881 405 900 q 511 832 483 862 q 555 765 539 802 q 571 690 571 727 q 556 615 571 654 q 514 544 541 576 q 446 491 486 512 q 354 470 405 470 q 278 487 315 470 q 214 533 242 504 q 169 602 186 562 q 152 690 152 643 "},"l":{"x_min":100,"x_max":219,"ha":304,"o":"m 219 861 q 205 966 219 930 q 160 1003 191 1003 q 112 967 124 1003 q 100 861 100 932 l 100 129 q 112 34 100 69 q 160 0 124 0 q 205 36 192 0 q 219 129 219 72 l 219 861 "},"¤":{"x_min":-8.328125,"x_max":927.859375,"ha":936,"o":"m 127 678 q 61 664 90 678 q 31 626 31 651 q 57 595 31 604 q 116 584 83 585 q 112 535 113 560 q 111 486 111 511 q 113 433 111 459 q 122 379 115 406 l 87 379 q 20 365 50 379 q -8 327 -8 352 q 21 295 -8 305 q 87 285 51 285 l 150 285 q 215 170 175 225 q 313 72 255 115 q 450 5 372 30 q 627 -20 527 -20 q 761 -6 705 -20 q 854 27 818 7 q 909 69 891 48 q 927 105 927 89 q 916 147 927 130 q 873 165 905 165 q 821 153 844 165 q 772 128 798 141 q 710 102 745 114 q 623 91 675 91 q 434 146 515 91 q 305 285 352 201 l 512 285 q 579 296 548 285 q 611 327 611 308 q 579 365 611 352 q 512 379 548 379 l 266 379 q 248 503 248 437 q 250 544 248 524 q 255 584 252 564 l 552 584 q 620 595 588 584 q 651 626 651 607 q 620 664 651 651 q 552 678 588 678 l 283 678 q 343 775 306 732 q 425 849 380 819 q 522 895 470 879 q 627 911 573 911 q 701 902 670 911 q 756 884 732 894 q 800 865 780 873 q 843 857 820 857 q 898 909 898 857 q 878 948 898 927 q 822 984 858 968 q 736 1010 787 1000 q 626 1021 686 1021 q 460 998 538 1021 q 318 932 381 976 q 209 825 255 889 q 137 678 162 761 l 127 678 "},"4":{"x_min":32,"x_max":721.953125,"ha":750,"o":"m 590 841 q 575 956 590 919 q 505 993 560 993 q 428 970 456 993 q 373 905 399 948 l 98 461 q 79 434 91 448 q 57 400 68 419 q 39 358 47 381 q 32 305 32 334 q 44 264 32 279 q 78 242 56 250 q 130 233 100 234 q 197 232 161 232 l 279 232 q 367 220 333 232 q 430 179 401 208 q 459 129 451 158 q 474 72 467 99 q 491 26 480 45 q 530 8 502 8 q 568 27 556 8 q 587 73 580 46 q 600 127 594 99 q 623 170 606 155 q 653 196 635 183 q 685 224 670 210 q 711 253 701 238 q 721 283 721 267 q 712 316 721 303 q 687 338 702 328 q 655 360 673 348 q 624 392 638 371 q 599 447 609 413 q 590 534 590 480 l 590 841 m 218 427 q 237 504 218 459 q 283 588 256 548 q 340 655 310 627 q 389 683 370 683 q 452 638 435 683 q 469 516 469 594 q 462 450 469 481 q 441 395 456 419 q 401 356 427 370 q 337 343 376 343 q 246 369 274 343 q 218 427 218 395 "},"p":{"x_min":65,"x_max":776,"ha":797,"o":"m 471 690 q 396 681 427 690 q 343 664 366 673 q 300 647 320 655 q 255 639 280 639 q 221 642 234 639 q 199 649 209 645 q 175 656 188 652 q 141 659 162 659 q 87 635 109 659 q 65 562 65 611 l 65 -189 q 66 -227 65 -207 q 74 -263 67 -246 q 92 -290 80 -280 q 126 -301 105 -301 q 157 -288 145 -301 q 175 -256 169 -275 q 183 -212 181 -237 q 186 -164 186 -188 l 186 -107 q 191 -53 186 -80 q 209 -7 197 -27 q 240 25 222 12 q 285 38 259 38 q 330 32 310 38 q 369 20 349 26 q 410 8 388 14 q 465 3 433 3 q 585 27 528 3 q 685 98 642 52 q 751 206 727 143 q 776 347 776 269 q 747 500 776 436 q 673 607 719 565 q 575 669 628 649 q 471 690 521 690 m 404 590 q 495 573 451 590 q 573 525 538 556 q 629 448 608 494 q 650 344 650 402 q 631 250 650 294 q 581 175 613 207 q 503 124 548 143 q 404 106 458 106 q 318 126 358 106 q 250 181 279 147 q 205 259 222 215 q 189 348 189 302 q 206 437 189 394 q 252 514 223 480 q 320 569 282 548 q 404 590 359 590 "},"‡":{"x_min":80.5625,"x_max":722.28125,"ha":801,"o":"m 494 322 q 453 388 463 351 q 438 461 443 425 q 450 544 443 500 q 484 615 456 587 q 556 655 515 646 q 634 669 598 665 q 696 678 670 672 q 722 705 722 683 q 696 739 722 732 q 634 748 670 746 q 560 757 598 751 q 497 787 522 764 q 454 864 463 821 q 441 944 444 907 q 430 1008 437 982 q 397 1035 423 1035 q 371 1008 376 1035 q 362 944 366 982 q 347 863 358 905 q 304 789 336 821 q 238 755 276 761 q 165 747 200 748 q 106 741 130 746 q 83 711 83 736 q 107 679 83 685 q 167 671 131 673 q 243 659 202 668 q 316 618 284 650 q 349 560 340 594 q 361 491 358 525 q 346 405 356 451 q 301 323 336 358 q 235 289 273 296 q 162 282 197 283 q 104 276 127 280 q 80 246 80 271 q 104 214 80 219 q 164 205 129 208 q 240 194 200 203 q 313 153 281 185 q 341 101 331 135 q 354 27 350 66 q 360 -54 358 -12 q 366 -130 362 -96 q 378 -186 370 -164 q 402 -208 386 -208 q 425 -186 418 -208 q 434 -130 431 -164 q 438 -53 437 -95 q 443 27 440 -12 q 455 100 447 66 q 481 150 463 133 q 554 190 512 180 q 631 203 595 200 q 693 212 668 207 q 719 240 719 218 q 693 273 719 266 q 631 283 668 280 q 557 292 595 286 q 494 322 519 298 "},"à":{"x_min":23.953125,"x_max":628,"ha":666,"o":"m 336 693 q 258 681 301 691 q 189 655 214 670 q 169 639 173 647 q 164 624 164 631 q 166 613 164 617 q 168 606 168 609 q 167 604 168 605 q 167 604 167 604 q 241 608 204 605 q 310 612 278 612 q 402 596 362 612 q 462 530 442 580 q 470 507 467 519 q 474 484 474 495 q 462 448 474 464 q 419 408 446 420 q 359 392 392 397 q 292 387 326 388 q 226 381 257 385 q 189 372 211 378 q 146 355 168 365 q 105 334 123 345 q 78 315 87 323 q 57 290 69 308 q 40 263 44 272 q 32 235 37 254 q 26 211 26 216 q 24 197 25 204 q 23 184 23 191 q 42 106 23 139 q 89 52 60 73 q 158 20 119 30 q 239 10 197 10 q 344 26 294 10 q 344 35 344 29 q 343 48 343 41 l 343 55 q 288 71 319 64 q 233 93 257 79 q 192 134 211 105 q 172 204 172 164 q 172 215 172 209 q 173 226 172 221 q 196 268 178 248 q 239 304 214 289 q 296 330 265 320 q 358 340 328 340 q 373 339 365 340 q 389 337 382 339 q 453 295 429 329 q 478 216 478 261 q 462 152 478 186 q 439 126 457 141 q 418 100 422 111 q 417 97 418 98 q 416 93 416 96 q 418 82 416 87 q 419 71 419 76 q 418 64 419 65 q 455 52 437 57 q 500 41 473 47 q 527 34 514 39 q 555 29 540 29 q 580 33 568 29 q 603 62 594 39 q 618 120 612 86 q 625 195 623 154 q 628 277 628 236 q 624 395 628 340 q 618 477 621 450 q 602 540 615 505 q 573 595 589 575 q 532 636 558 618 q 473 666 505 654 q 408 686 442 679 q 343 693 373 693 l 336 693 m 256 962 q 267 908 256 944 q 292 838 277 873 q 324 778 306 804 q 354 752 341 752 q 386 766 377 752 q 394 816 394 780 q 388 865 394 833 q 370 930 381 898 q 341 986 359 962 q 301 1011 323 1011 q 256 962 256 1011 "},"Ü":{"x_min":51,"x_max":841,"ha":885,"o":"m 182 457 l 182 805 q 179 866 182 835 q 169 923 176 897 q 149 967 162 950 q 119 985 137 985 q 83 969 96 985 q 62 929 70 954 q 53 872 55 904 q 51 805 51 840 l 51 418 q 87 203 51 287 q 180 71 123 119 q 306 3 237 22 q 441 -15 375 -15 q 576 3 505 -15 q 705 70 646 21 q 802 207 764 119 q 841 435 841 294 l 841 805 q 838 869 841 837 q 829 926 836 901 q 809 967 822 951 q 774 983 796 983 q 742 966 754 983 q 722 923 729 948 q 712 866 715 897 q 710 805 710 835 l 710 414 q 690 279 710 336 q 636 185 671 222 q 552 128 601 147 q 444 110 502 110 q 317 135 368 110 q 236 207 266 161 q 194 316 207 253 q 182 457 182 380 m 600 1136 q 559 1120 572 1136 q 545 1085 545 1105 q 559 1047 545 1064 q 600 1030 573 1030 q 643 1047 627 1030 q 659 1085 659 1064 q 645 1120 659 1105 q 600 1136 632 1136 m 295 1136 q 254 1120 268 1136 q 241 1085 241 1105 q 255 1047 241 1064 q 295 1030 269 1030 q 338 1047 323 1030 q 354 1085 354 1064 q 340 1120 354 1105 q 295 1136 326 1136 "},"ó":{"x_min":11,"x_max":722,"ha":735,"o":"m 722 330 q 692 478 722 413 q 612 587 662 543 q 499 655 563 632 q 365 678 434 678 q 233 654 297 678 q 120 586 169 630 q 40 477 70 541 q 11 330 11 412 q 39 187 11 251 q 116 78 67 123 q 229 10 165 34 q 365 -13 294 -13 q 513 15 447 -13 q 625 91 578 44 q 697 201 672 139 q 722 330 722 263 m 136 330 q 153 425 136 380 q 201 502 170 469 q 274 554 231 535 q 365 574 316 574 q 454 556 412 574 q 527 506 495 539 q 577 429 558 473 q 596 330 596 384 q 576 234 596 277 q 525 160 557 191 q 451 111 493 128 q 365 94 409 94 q 270 114 312 94 q 197 169 227 135 q 151 244 167 202 q 136 330 136 287 m 429 954 q 384 1003 429 1003 q 343 978 361 1003 q 315 922 326 954 q 297 857 304 890 q 291 808 291 825 q 300 758 291 772 q 331 744 308 744 q 361 770 344 744 q 393 830 379 796 q 418 900 408 865 q 429 954 429 936 "},"\r":{"x_min":97,"x_max":215,"ha":303,"o":"m 215 540 q 212 578 215 556 q 203 619 210 599 q 185 651 196 638 q 153 665 173 665 q 124 651 135 665 q 107 619 113 638 q 99 578 101 599 q 97 540 97 556 l 97 112 q 99 79 97 98 q 107 44 101 60 q 124 15 113 27 q 153 4 135 4 q 183 15 171 4 q 202 42 195 26 q 212 78 209 59 q 215 112 215 97 l 215 540 "}}}
